{
.appVersion = "3343";
.formatVersion = 3;
axes = (
{
name = Weight;
tag = wght;
}
);
customParameters = (
{
name = vendorID;
value = DH;
},
{
name = panose;
value = (
2,
2,
6,
0,
6,
5,
0,
2,
2,
0
);
},
{
name = unicodeRanges;
value = (
0,
1,
2,
3,
4,
5,
6,
7,
9,
29,
30,
31,
32,
33,
34,
35,
36,
37,
38,
39,
43,
44,
45,
46,
60,
62,
64,
67,
69
);
},
{
name = glyphOrder;
value = (
.notdef,
CR,
space,
uni0000,
exclam,
quotedbl,
numbersign,
dollar,
percent,
ampersand,
quotesingle,
parenleft,
parenright,
asterisk,
plus,
comma,
hyphen,
period,
slash,
zero,
one,
two,
three,
four,
five,
six,
seven,
eight,
nine,
colon,
semicolon,
less,
equal,
greater,
question,
at,
A,
B,
C,
D,
E,
F,
G,
H,
I,
J,
K,
L,
M,
N,
O,
P,
Q,
R,
S,
T,
U,
V,
W,
X,
Y,
Z,
bracketleft,
backslash,
bracketright,
asciicircum,
underscore,
grave,
a,
b,
c,
d,
e,
f,
g,
h,
i,
j,
k,
l,
m,
n,
o,
p,
q,
r,
s,
t,
u,
v,
w,
x,
y,
z,
braceleft,
bar,
braceright,
asciitilde,
guillemotleft,
guillemotright,
uni1780,
uni1781,
uni1782,
uni1783,
uni1784,
uni1785,
uni1786,
uni1787,
uni1788,
uni1789,
uni178A,
uni178B,
uni178C,
uni178D,
uni178E,
uni178F,
uni1790,
uni1791,
uni1792,
uni1793,
uni1794,
uni1795,
uni1796,
uni1797,
uni1798,
uni1799,
uni179A,
uni179B,
uni179C,
uni179D,
uni179E,
uni179F,
uni17A0,
uni17A1,
uni17A2,
uni17A3,
uni17A4,
uni17A5,
uni17A6,
uni17A7,
uni17A8,
uni17A9,
uni17AA,
uni17AB,
uni17AC,
uni17AD,
uni17AE,
uni17AF,
uni17B0,
uni17B1,
uni17B2,
uni17B3,
uni17B4,
uni17B5,
uni17B6,
uni17B7,
uni17B8,
uni17B9,
uni17BA,
uni17BB,
uni17BC,
uni17BD,
uni17BE,
uni17BF,
uni17C0,
uni17C1,
uni17C2,
uni17C3,
uni17C4,
uni17C5,
uni17C6,
uni17C7,
uni17C8,
uni17C9,
uni17CA,
uni17CB,
uni17CC,
uni17CD,
uni17CE,
uni17CF,
uni17D0,
uni17D1,
uni17D2,
uni17D3,
uni17D4,
uni17D5,
uni17D6,
uni17D7,
uni17D8,
uni17D9,
uni17DA,
uni17DB,
uni17DC,
uni17DD,
uni17E0,
uni17E1,
uni17E2,
uni17E3,
uni17E4,
uni17E5,
uni17E6,
uni17E7,
uni17E8,
uni17E9,
uni17D2_1780,
uni17D2_1781,
uni17D2_1782,
uni17D21783,
uni17D2_1784,
uni17D2_1785,
uni17D2_1786,

glyphs = (
{
glyphname = .notdef;
lastChange = "2024-07-08 04:22:56 +0000";
layers = (
{
layerId = m01;
shapes = (
{
closed = 1;
nodes = (
(922,0,l),
(922,1462,l),
(102,1462,l),
(102,0,l)
);
},
{
closed = 1;
nodes = (
(201,1364,l),
(823,1364,l),
(823,98,l),
(201,98,l)
);
}
);
userData = {
assembly = "NPUSHB[ ]	/* 39 values pushed */
0 0 0 3 2 0 3 103 0 2 1 1 2 87 0 2 2 1 95 4 1 1 2 1 79 0 0 7 6 5 4 0 3 0 3 17 5 6 23
CALL[ ]	/* CallFunction */";
};
width = 1024;
},
{
layerId = "A52C9687-8F69-441E-A346-B6B4B01C4528";
shapes = (
{
closed = 1;
nodes = (
(922,0,l),
(922,1462,l),
(102,1462,l),
(102,0,l)
);
},
{
closed = 1;
nodes = (
(201,1364,l),
(823,1364,l),
(823,98,l),
(201,98,l)
);
}
);
userData = {
assembly = "NPUSHB[ ]	/* 39 values pushed */
0 0 0 3 2 0 3 103 0 2 1 1 2 87 0 2 2 1 95 4 1 1 2 1 79 0 0 7 6 5 4 0 3 0 3 17 5 6 23
CALL[ ]	/* CallFunction */";
};
width = 1024;
},
{
layerId = "74807A0F-D47B-485E-A88B-DED3F6679B72";
shapes = (
{
closed = 1;
nodes = (
(922,0,l),
(922,1462,l),
(102,1462,l),
(102,0,l)
);
},
{
closed = 1;
nodes = (
(201,1364,l),
(823,1364,l),
(823,98,l),
(201,98,l)
);
}
);
userData = {
assembly = "NPUSHB[ ]	/* 39 values pushed */
0 0 0 3 2 0 3 103 0 2 1 1 2 87 0 2 2 1 95 4 1 1 2 1 79 0 0 7 6 5 4 0 3 0 3 17 5 6 23
CALL[ ]	/* CallFunction */";
};
width = 1024;
}
);
note = .notdef;
},
{
glyphname = exclam;
lastChange = "2024-07-08 04:22:56 +0000";
layers = (
{
layerId = m01;
shapes = (
{
closed = 1;
nodes = (
(442,516,l),
(493,1462,l),
(61,1462,l),
(112,516,l)
);
},
{
closed = 1;
nodes = (
(360,-25,o),
(483,66,o),
(483,166,qs),
(483,272,o),
(360,358,o),
(276,358,qs),
(190,358,o),
(65,272,o),
(65,166,qs),
(65,66,o),
(190,-25,o),
(276,-25,qs)
);
}
);
width = 550;
},
{
layerId = "A52C9687-8F69-441E-A346-B6B4B01C4528";
shapes = (
{
closed = 1;
nodes = (
(333,412,l),
(385,1462,l),
(165,1462,l),
(217,412,l)
);
},
{
closed = 1;
nodes = (
(325,-29,o),
(401,37,o),
(401,111,qs),
(401,186,o),
(325,248,o),
(274,248,qs),
(221,248,o),
(147,186,o),
(147,111,qs),
(147,37,o),
(221,-29,o),
(274,-29,qs)
);
}
);
userData = {
assembly = "NPUSHB[ ]	/* 28 values pushed */
0 3 3 2 95 0 2 2 31 77 0 0 0 1 97 0 1 1 38 1 78 17 18 36 34 4 8 26
CALL[ ]	/* CallFunction */";
};
width = 550;
},
{
layerId = "74807A0F-D47B-485E-A88B-DED3F6679B72";
shapes = (
{
closed = 1;
nodes = (
(296,356,l),
(300,1462,l),
(241,1462,l),
(245,356,l)
);
},
{
closed = 1;
nodes = (
(302,-16,o),
(320,20,o),
(320,47,qs),
(320,72,o),
(302,111,o),
(265,111,qs),
(234,111,o),
(214,72,o),
(214,47,qs),
(214,20,o),
(234,-16,o),
(265,-16,qs)
);
}
);
width = 550;
}
);
note = exclam;
unicode = 33;
},
{
glyphname = quotedbl;
lastChange = "2024-07-08 04:22:56 +0000";
layers = (
{
layerId = m01;
shapes = (
{
closed = 1;
nodes = (
(763,934,l),
(800,1462,l),
(474,1462,l),
(512,934,l)
);
},
{
closed = 1;
nodes = (
(328,934,l),
(366,1462,l),
(40,1462,l),
(77,934,l)
);
}
);
width = 835;
},
{
layerId = "A52C9687-8F69-441E-A346-B6B4B01C4528";
shapes = (
{
closed = 1;
nodes = (
(287,934,l),
(328,1462,l),
(133,1462,l),
(174,934,l)
);
},
{
closed = 1;
nodes = (
(661,934,l),
(702,1462,l),
(508,1462,l),
(549,934,l)
);
}
);
userData = {
assembly = "NPUSHB[ ]	/* 33 values pushed */
5 3 4 3 1 1 0 95 2 1 0 0 31 1 78 4 4 0 0 4 7 4 7 6 5 0 3 0 3 17 6 8 23
CALL[ ]	/* CallFunction */";
};
width = 835;
},
{
layerId = "74807A0F-D47B-485E-A88B-DED3F6679B72";
shapes = (
{
closed = 1;
nodes = (
(577,934,l),
(585,1462,l),
(528,1462,l),
(536,934,l)
);
},
{
closed = 1;
nodes = (
(278,934,l),
(286,1462,l),
(229,1462,l),
(237,934,l)
);
}
);
width = 835;
}
);
note = quotedbl;
unicode = 34;
},
{
glyphname = numbersign;
lastChange = "2024-07-08 04:22:56 +0000";
layers = (
{
layerId = m01;
shapes = (
{
closed = 1;
nodes = (
(447,0,l),
(518,391,l),
(681,391,l),
(610,0,l),
(872,0,l),
(944,391,l),
(1229,391,l),
(1229,645,l),
(990,645,l),
(1021,813,l),
(1291,813,l),
(1291,1073,l),
(1067,1073,l),
(1138,1462,l),
(876,1462,l),
(805,1073,l),
(644,1073,l),
(715,1462,l),
(453,1462,l),
(383,1073,l),
(103,1073,l),
(103,813,l),
(335,813,l),
(304,645,l),
(36,645,l),
(36,391,l),
(256,391,l),
(187,0,l)
);
},
{
closed = 1;
nodes = (
(595,813,l),
(757,813,l),
(728,645,l),
(566,645,l)
);
}
);
width = 1323;
},
{
layerId = "A52C9687-8F69-441E-A346-B6B4B01C4528";
shapes = (
{
closed = 1;
nodes = (
(375,0,l),
(454,428,l),
(747,428,l),
(663,0,l),
(809,0,l),
(893,428,l),
(1200,428,l),
(1200,565,l),
(919,565,l),
(983,893,l),
(1270,893,l),
(1270,1028,l),
(1009,1028,l),
(1091,1462,l),
(950,1462,l),
(868,1028,l),
(573,1028,l),
(655,1462,l),
(508,1462,l),
(426,1028,l),
(127,1028,l),
(127,893,l),
(401,893,l),
(336,565,l),
(51,565,l),
(51,428,l),
(309,428,l),
(231,0,l)
);
},
{
closed = 1;
nodes = (
(545,893,l),
(837,893,l),
(774,565,l),
(481,565,l)
);
}
);
userData = {
assembly = "NPUSHB[ ]	/* 68 values pushed */
16 13 11 3 9 14 8 2 0 1 9 0 104 15 7 2 1 6 4 2 2 3 1 2 103 12 1 10 10 31 77 5 1 3 3 32 3 78 0 0 31 30 29 28 0 27 0 27 26 25 24 23 22 21 20 19 17 17 17 17 17 17 17 17 17 17 8 31
CALL[ ]	/* CallFunction */";
};
width = 1323;
},
{
layerId = "74807A0F-D47B-485E-A88B-DED3F6679B72";
shapes = (
{
closed = 1;
nodes = (
(315,0,l),
(405,465,l),
(813,465,l),
(723,0,l),
(774,0,l),
(864,465,l),
(1185,465,l),
(1185,514,l),
(872,514,l),
(956,946,l),
(1265,946,l),
(1265,995,l),
(964,995,l),
(1054,1462,l),
(1003,1462,l),
(913,995,l),
(506,995,l),
(596,1462,l),
(544,1462,l),
(454,995,l),
(137,995,l),
(137,946,l),
(446,946,l),
(362,514,l),
(57,514,l),
(57,465,l),
(354,465,l),
(264,0,l)
);
},
{
closed = 1;
nodes = (
(497,946,l),
(905,946,l),
(821,514,l),
(413,514,l)
);
}
);
width = 1323;
}
);
note = numbersign;
unicode = 35;
},
{
glyphname = dollar;
lastChange = "2024-07-08 04:22:56 +0000";
layers = (
{
layerId = m01;
shapes = (
{
closed = 1;
nodes = (
(859,54,o),
(1134,275,o),
(1134,471,qs),
(1134,699,o),
(665,877,qs),
(383,982,o),
(383,1022,qs),
(383,1056,o),
(426,1122,o),
(585,1122,qs),
(848,1122,o),
(1007,1049,q),
(1095,1323,l),
(896,1415,o),
(585,1415,qs),
(231,1415,o),
(53,1160,o),
(53,1028,qs),
(53,783,o),
(525,605,qs),
(801,501,o),
(801,438,qs),
(801,400,o),
(724,340,o),
(585,340,qs),
(361,340,o),
(86,442,q),
(86,129,l),
(294,54,o),
(585,54,qs)
);
},
{
closed = 1;
nodes = (
(684,-119,l),
(684,1556,l),
(495,1556,l),
(495,-119,l)
);
}
);
width = 1171;
},
{
layerId = "A52C9687-8F69-441E-A346-B6B4B01C4528";
shapes = (
{
closed = 1;
nodes = (
(807,100,o),
(1056,304,o),
(1056,451,qs),
(1056,656,o),
(648,809,qs),
(302,943,o),
(302,1035,qs),
(302,1098,o),
(387,1219,o),
(584,1219,qs),
(802,1219,o),
(953,1149,q),
(1009,1300,l),
(845,1374,o),
(584,1374,qs),
(282,1374,o),
(126,1144,o),
(126,1030,qs),
(126,819,o),
(583,648,qs),
(880,534,o),
(880,438,qs),
(880,369,o),
(746,258,o),
(584,258,qs),
(362,258,o),
(126,342,q),
(126,168,l),
(319,100,o),
(584,100,qs)
);
},
{
closed = 1;
nodes = (
(648,-119,l),
(648,1554,l),
(517,1554,l),
(517,-119,l)
);
}
);
width = 1171;
},
{
layerId = "74807A0F-D47B-485E-A88B-DED3F6679B72";
shapes = (
{
closed = 1;
nodes = (
(776,20,o),
(1010,207,o),
(1010,381,qs),
(1010,610,o),
(617,758,qs),
(236,901,o),
(236,1102,qs),
(236,1196,o),
(372,1391,o),
(584,1391,qs),
(773,1391,o),
(926,1319,q),
(949,1366,l),
(785,1442,o),
(584,1442,qs),
(343,1442,o),
(181,1204,o),
(181,1098,qs),
(181,866,o),
(593,713,qs),
(955,576,o),
(955,383,qs),
(955,233,o),
(754,72,o),
(584,72,qs),
(372,72,o),
(187,139,q),
(187,80,l),
(355,20,o),
(584,20,qs)
);
},
{
closed = 1;
nodes = (
(617,-119,l),
(617,1554,l),
(568,1554,l),
(568,-119,l)
);
}
);
width = 1171;
}
);
note = dollar;
unicode = 36;
},
{
glyphname = percent;
lastChange = "2024-07-08 04:22:56 +0000";
layers = (
{
layerId = m01;
shapes = (
{
closed = 1;
nodes = (
(622,0,l),
(1328,1462,l),
(1069,1462,l),
(363,0,l)
);
},
{
closed = 1;
nodes = (
(523,565,o),
(693,809,o),
(693,1026,qs),
(693,1243,o),
(511,1483,o),
(361,1483,qs),
(204,1483,o),
(36,1243,o),
(36,1026,qs),
(36,809,o),
(215,565,o),
(361,565,qs)
);
},
{
closed = 1;
nodes = (
(327,805,o),
(298,924,o),
(298,1022,qs),
(298,1122,o),
(327,1239,o),
(365,1239,qs),
(402,1239,o),
(431,1122,o),
(431,1022,qs),
(431,922,o),
(402,805,o),
(365,805,qs)
);
},
{
closed = 1;
nodes = (
(1492,-16,o),
(1662,227,o),
(1662,444,qs),
(1662,662,o),
(1480,901,o),
(1330,901,qs),
(1173,901,o),
(1005,662,o),
(1005,444,qs),
(1005,227,o),
(1184,-16,o),
(1330,-16,qs)
);
},
{
closed = 1;
nodes = (
(1296,223,o),
(1267,342,o),
(1267,440,qs),
(1267,541,o),
(1296,657,o),
(1333,657,qs),
(1371,657,o),
(1400,543,o),
(1400,440,qs),
(1400,340,o),
(1371,223,o),
(1333,223,qs)
);
}
);
width = 1701;
},
{
layerId = "A52C9687-8F69-441E-A346-B6B4B01C4528";
shapes = (
{
closed = 1;
nodes = (
(524,0,l),
(1335,1462,l),
(1177,1462,l),
(366,0,l)
);
},
{
closed = 1;
nodes = (
(557,565,o),
(706,809,o),
(706,1026,qs),
(706,1243,o),
(549,1483,o),
(399,1483,qs),
(243,1483,o),
(100,1243,o),
(100,1026,qs),
(100,809,o),
(254,565,o),
(399,565,qs)
);
},
{
closed = 1;
nodes = (
(321,694,o),
(250,862,o),
(250,1026,qs),
(250,1190,o),
(321,1356,o),
(399,1356,qs),
(478,1356,o),
(557,1191,o),
(557,1026,qs),
(557,860,o),
(478,694,o),
(399,694,qs)
);
},
{
closed = 1;
nodes = (
(1452,-20,o),
(1601,223,o),
(1601,440,qs),
(1601,657,o),
(1443,897,o),
(1294,897,qs),
(1138,897,o),
(995,657,o),
(995,440,qs),
(995,223,o),
(1149,-20,o),
(1294,-20,qs)
);
},
{
closed = 1;
nodes = (
(1216,109,o),
(1144,274,o),
(1144,440,qs),
(1144,604,o),
(1216,768,o),
(1294,768,qs),
(1373,768,o),
(1452,604,o),
(1452,440,qs),
(1452,275,o),
(1373,109,o),
(1294,109,qs)
);
}
);
width = 1701;
},
{
layerId = "74807A0F-D47B-485E-A88B-DED3F6679B72";
shapes = (
{
closed = 1;
nodes = (
(485,0,l),
(1296,1462,l),
(1239,1462,l),
(428,0,l)
);
},
{
closed = 1;
nodes = (
(582,565,o),
(731,795,o),
(731,1026,qs),
(731,1249,o),
(594,1483,o),
(453,1483,qs),
(322,1483,o),
(170,1253,o),
(170,1026,qs),
(170,799,o),
(313,565,o),
(449,565,qs)
);
},
{
closed = 1;
nodes = (
(340,616,o),
(225,823,o),
(225,1026,qs),
(225,1231,o),
(344,1432,o),
(453,1432,qs),
(569,1432,o),
(676,1223,o),
(676,1026,qs),
(676,827,o),
(561,616,o),
(449,616,qs)
);
},
{
closed = 1;
nodes = (
(1401,-20,o),
(1552,209,o),
(1552,440,qs),
(1552,664,o),
(1415,897,o),
(1274,897,qs),
(1143,897,o),
(991,668,o),
(991,440,qs),
(991,213,o),
(1135,-20,o),
(1270,-20,qs)
);
},
{
closed = 1;
nodes = (
(1163,31,o),
(1047,238,o),
(1047,440,qs),
(1047,645,o),
(1167,846,o),
(1274,846,qs),
(1391,846,o),
(1497,637,o),
(1497,440,qs),
(1497,242,o),
(1384,31,o),
(1270,31,qs)
);
}
);
width = 1701;
}
);
note = percent;
unicode = 37;
},
{
glyphname = ampersand;
lastChange = "2024-07-08 04:22:56 +0000";
layers = (
{
layerId = m01;
shapes = (
{
closed = 1;
nodes = (
(1249,-20,o),
(1433,821,q),
(1064,821,l),
(951,291,o),
(588,291,qs),
(438,291,o),
(438,434,qs),
(438,569,o),
(1029,866,o),
(1029,1133,qs),
(1029,1481,o),
(621,1481,qs),
(199,1481,o),
(199,1133,qs),
(199,941,o),
(346,775,qs),
(1045,0,l),
(1467,0,l),
(601,965,l),
(521,1059,o),
(521,1120,qs),
(521,1225,o),
(616,1225,qs),
(707,1225,o),
(707,1133,qs),
(707,1015,o),
(71,697,o),
(71,406,qs),
(71,-20,o),
(554,-20,qs)
);
}
);
width = 1499;
},
{
layerId = "A52C9687-8F69-441E-A346-B6B4B01C4528";
shapes = (
{
closed = 1;
nodes = (
(1230,-20,o),
(1404,731,q),
(1222,731,l),
(1086,139,o),
(575,139,qs),
(296,139,o),
(296,387,qs),
(296,598,o),
(976,910,o),
(976,1169,qs),
(976,1485,o),
(622,1485,qs),
(245,1485,o),
(245,1165,qs),
(245,1011,o),
(438,811,qs),
(1239,0,l),
(1466,0,l),
(567,911,l),
(421,1065,o),
(421,1167,qs),
(421,1337,o),
(616,1337,qs),
(798,1337,o),
(798,1169,qs),
(798,990,o),
(108,673,o),
(108,381,qs),
(108,-20,o),
(569,-20,qs)
);
}
);
width = 1499;
},
{
layerId = "74807A0F-D47B-485E-A88B-DED3F6679B72";
shapes = (
{
closed = 1;
nodes = (
(1191,-20,o),
(1349,672,q),
(1294,672,l),
(1148,31,o),
(595,31,qs),
(204,31,o),
(204,367,qs),
(204,606,o),
(962,954,o),
(962,1190,qs),
(962,1485,o),
(643,1485,qs),
(305,1485,o),
(305,1180,qs),
(305,1030,o),
(524,810,qs),
(1321,0,l),
(1393,0,l),
(562,846,ls),
(360,1052,o),
(360,1180,qs),
(360,1434,o),
(643,1434,qs),
(907,1434,o),
(907,1190,qs),
(907,982,o),
(149,636,o),
(149,367,qs),
(149,-20,o),
(595,-20,qs)
);
}
);
width = 1499;
}
);
note = ampersand;
unicode = 38;
},
{
glyphname = quotesingle;
lastChange = "2024-07-08 04:22:56 +0000";
layers = (
{
layerId = m01;
shapes = (
{
closed = 1;
nodes = (
(375,934,l),
(416,1462,l),
(60,1462,l),
(101,934,l)
);
}
);
width = 460;
},
{
layerId = "A52C9687-8F69-441E-A346-B6B4B01C4528";
shapes = (
{
closed = 1;
nodes = (
(287,934,l),
(328,1462,l),
(133,1462,l),
(174,934,l)
);
}
);
userData = {
assembly = "NPUSHB[ ]	/* 22 values pushed */
2 1 1 1 0 95 0 0 0 31 1 78 0 0 0 3 0 3 17 3 8 23
CALL[ ]	/* CallFunction */";
};
width = 460;
},
{
layerId = "74807A0F-D47B-485E-A88B-DED3F6679B72";
shapes = (
{
closed = 1;
nodes = (
(258,934,l),
(266,1462,l),
(209,1462,l),
(217,934,l)
);
}
);
width = 460;
}
);
note = quotesingle;
unicode = 39;
},
{
glyphname = parenleft;
lastChange = "2024-07-08 04:22:56 +0000";
layers = (
{
layerId = m01;
shapes = (
{
closed = 1;
nodes = (
(599,-324,l),
(373,-4,o),
(373,584,qs),
(373,1193,o),
(601,1503,q),
(318,1503,l),
(73,1163,o),
(73,582,qs),
(73,25,o),
(318,-324,q)
);
}
);
width = 614;
},
{
layerId = "A52C9687-8F69-441E-A346-B6B4B01C4528";
shapes = (
{
closed = 1;
nodes = (
(550,-324,l),
(263,32,o),
(263,563,qs),
(263,1116,o),
(552,1462,q),
(382,1462,l),
(81,1101,o),
(81,561,qs),
(81,51,o),
(382,-324,q)
);
}
);
width = 614;
},
{
layerId = "74807A0F-D47B-485E-A88B-DED3F6679B72";
shapes = (
{
closed = 1;
nodes = (
(501,-324,l),
(191,60,o),
(191,563,qs),
(191,1091,o),
(501,1462,q),
(433,1462,l),
(136,1107,o),
(136,561,qs),
(136,43,o),
(433,-324,q)
);
}
);
width = 614;
}
);
note = parenleft;
unicode = 40;
},
{
glyphname = parenright;
lastChange = "2024-07-08 04:22:56 +0000";
layers = (
{
layerId = m01;
shapes = (
{
closed = 1;
nodes = (
(296,-324,l),
(541,25,o),
(541,582,qs),
(541,1163,o),
(296,1503,q),
(13,1503,l),
(241,1193,o),
(241,584,qs),
(241,-4,o),
(15,-324,q)
);
}
);
width = 614;
},
{
layerId = "A52C9687-8F69-441E-A346-B6B4B01C4528";
shapes = (
{
closed = 1;
nodes = (
(251,-324,l),
(552,51,o),
(552,561,qs),
(552,1101,o),
(251,1462,q),
(81,1462,l),
(370,1116,o),
(370,563,qs),
(370,32,o),
(83,-324,q)
);
}
);
width = 614;
},
{
layerId = "74807A0F-D47B-485E-A88B-DED3F6679B72";
shapes = (
{
closed = 1;
nodes = (
(174,-324,l),
(471,43,o),
(471,561,qs),
(471,1107,o),
(174,1462,q),
(106,1462,l),
(416,1091,o),
(416,563,qs),
(416,60,o),
(106,-324,q)
);
}
);
width = 614;
}
);
note = parenright;
unicode = 41;
},
{
glyphname = asterisk;
lastChange = "2024-07-08 04:22:56 +0000";
layers = (
{
layerId = m01;
shapes = (
{
closed = 1;
nodes = (
(970,711,l),
(763,989,l),
(1077,1010,l),
(1040,1305,l),
(683,1204,l),
(722,1556,l),
(419,1556,l),
(458,1204,l),
(110,1305,l),
(65,1014,l),
(378,989,l),
(171,711,l),
(444,575,l),
(567,856,l),
(710,573,l)
);
}
);
width = 1128;
},
{
layerId = "A52C9687-8F69-441E-A346-B6B4B01C4528";
shapes = (
{
closed = 1;
nodes = (
(556,993,l),
(730,635,l),
(906,731,l),
(663,1055,l),
(1039,1085,l),
(1011,1274,l),
(618,1163,l),
(658,1556,l),
(458,1556,l),
(501,1163,l),
(112,1274,l),
(83,1085,l),
(456,1055,l),
(216,731,l),
(398,635,l)
);
}
);
userData = {
assembly = "NPUSHB[ ]	/* 15 values pushed */
14 13 12 11 10 9 8 7 6 5 4 3 12 0 73
MPPEM[ ]	/* MeasurePixelPerEm */
PUSHB[ ]	/* 1 value pushed */
41
LT[ ]	/* LessThan */
IF[ ]	/* If */
PUSHB[ ]	/* 6 values pushed */
0 0 0 33 0 78
ELSE[ ]	/* Else */
PUSHB[ ]	/* 4 values pushed */
0 0 0 118
EIF[ ]	/* EndIf */
PUSHB[ ]	/* 4 values pushed */
17 1 8 23
CALL[ ]	/* CallFunction */";
};
width = 1128;
},
{
layerId = "74807A0F-D47B-485E-A88B-DED3F6679B72";
shapes = (
{
closed = 1;
nodes = (
(843,766,l),
(587,1100,l),
(988,1217,l),
(972,1272,l),
(575,1130,l),
(587,1552,l),
(529,1552,l),
(542,1130,l),
(144,1272,l),
(126,1217,l),
(532,1100,l),
(276,766,l),
(323,733,l),
(558,1079,l),
(796,731,l)
);
}
);
width = 1128;
}
);
note = asterisk;
unicode = 42;
},
{
glyphname = plus;
lastChange = "2024-07-08 04:22:56 +0000";
layers = (
{
layerId = m01;
shapes = (
{
closed = 1;
nodes = (
(713,227,l),
(713,588,l),
(1086,588,l),
(1086,856,l),
(713,856,l),
(713,1223,l),
(445,1223,l),
(445,856,l),
(72,856,l),
(72,588,l),
(445,588,l),
(445,227,l)
);
}
);
width = 1171;
},
{
layerId = "A52C9687-8F69-441E-A346-B6B4B01C4528";
shapes = (
{
closed = 1;
nodes = (
(657,227,l),
(657,649,l),
(1065,649,l),
(1065,795,l),
(657,795,l),
(657,1219,l),
(510,1219,l),
(510,795,l),
(102,795,l),
(102,649,l),
(510,649,l),
(510,227,l)
);
}
);
userData = {
assembly = "NPUSHB[ ]	/* 35 values pushed */
0 0 1 3 0 87 5 1 1 4 1 2 3 1 2 103 0 0 0 3 95 0 3 0 3 79 17 17 17 17 17 16 6 8 28
CALL[ ]	/* CallFunction */";
};
width = 1171;
},
{
layerId = "74807A0F-D47B-485E-A88B-DED3F6679B72";
shapes = (
{
closed = 1;
nodes = (
(628,252,l),
(628,698,l),
(1074,698,l),
(1074,748,l),
(628,748,l),
(628,1194,l),
(578,1194,l),
(578,748,l),
(132,748,l),
(132,698,l),
(578,698,l),
(578,252,l)
);
}
);
width = 1171;
}
);
note = plus;
unicode = 43;
},
{
glyphname = comma;
lastChange = "2024-07-08 04:22:56 +0000";
layers = (
{
layerId = m01;
shapes = (
{
closed = 1;
nodes = (
(306,-285,l),
(338,-209,o),
(463,203,o),
(482,276,q),
(467,299,l),
(125,299,l),
(117,217,o),
(47,-193,o),
(27,-285,q)
);
}
);
width = 548;
},
{
layerId = "A52C9687-8F69-441E-A346-B6B4B01C4528";
shapes = (
{
closed = 1;
nodes = (
(216,-264,l),
(265,-154,o),
(364,106,o),
(392,215,q),
(378,238,l),
(185,238,l),
(171,131,o),
(112,-147,o),
(83,-264,q)
);
}
);
userData = {
assembly = "NPUSHB[ ]	/* 21 values pushed */
0 0 1 1 0 87 0 0 0 1 95 0 1 0 1 79 20 16 2 8 24
CALL[ ]	/* CallFunction */";
};
width = 548;
},
{
layerId = "74807A0F-D47B-485E-A88B-DED3F6679B72";
shapes = (
{
closed = 1;
nodes = (
(182,-264,l),
(225,-158,o),
(293,98,o),
(315,213,q),
(309,238,l),
(252,238,l),
(235,121,o),
(182,-115,o),
(137,-264,q)
);
}
);
width = 548;
}
);
note = comma;
unicode = 44;
},
{
glyphname = hyphen;
lastChange = "2024-07-08 04:22:56 +0000";
layers = (
{
layerId = m01;
shapes = (
{
closed = 1;
nodes = (
(618,393,l),
(618,705,l),
(53,705,l),
(53,393,l)
);
}
);
width = 659;
},
{
layerId = "A52C9687-8F69-441E-A346-B6B4B01C4528";
shapes = (
{
closed = 1;
nodes = (
(577,469,l),
(577,629,l),
(81,629,l),
(81,469,l)
);
}
);
userData = {
assembly = "NPUSHB[ ]	/* 28 values pushed */
2 1 1 0 0 1 87 2 1 1 1 0 95 0 0 1 0 79 0 0 0 3 0 3 17 3 8 23
CALL[ ]	/* CallFunction */";
};
width = 659;
},
{
layerId = "74807A0F-D47B-485E-A88B-DED3F6679B72";
shapes = (
{
closed = 1;
nodes = (
(577,530,l),
(577,582,l),
(81,582,l),
(81,530,l)
);
}
);
width = 659;
}
);
note = hyphen;
unicode = 45;
},
{
glyphname = period;
lastChange = "2024-07-08 04:22:56 +0000";
layers = (
{
layerId = m01;
shapes = (
{
closed = 1;
nodes = (
(361,-25,o),
(484,66,o),
(484,166,qs),
(484,272,o),
(361,358,o),
(279,358,qs),
(191,358,o),
(66,272,o),
(66,166,qs),
(66,66,o),
(191,-25,o),
(279,-25,qs)
);
}
);
width = 548;
},
{
layerId = "A52C9687-8F69-441E-A346-B6B4B01C4528";
shapes = (
{
closed = 1;
nodes = (
(323,-29,o),
(401,37,o),
(401,111,qs),
(401,186,o),
(323,248,o),
(272,248,qs),
(221,248,o),
(147,186,o),
(147,111,qs),
(147,37,o),
(221,-29,o),
(272,-29,qs)
);
}
);
userData = {
assembly = "NPUSHB[ ]	/* 16 values pushed */
0 0 0 1 97 0 1 1 38 1 78 36 34 2 8 24
CALL[ ]	/* CallFunction */";
};
width = 548;
},
{
layerId = "74807A0F-D47B-485E-A88B-DED3F6679B72";
shapes = (
{
closed = 1;
nodes = (
(262,-16,o),
(280,20,o),
(280,47,qs),
(280,72,o),
(262,111,o),
(225,111,qs),
(194,111,o),
(174,72,o),
(174,47,qs),
(174,20,o),
(194,-16,o),
(225,-16,qs)
);
}
);
width = 548;
}
);
note = period;
unicode = 46;
},
{
glyphname = slash;
lastChange = "2024-07-08 04:22:56 +0000";
layers = (
{
layerId = m01;
shapes = (
{
closed = 1;
nodes = (
(301,-20,l),
(760,1483,l),
(469,1483,l),
(10,-20,l)
);
}
);
width = 761;
},
{
layerId = "A52C9687-8F69-441E-A346-B6B4B01C4528";
shapes = (
{
closed = 1;
nodes = (
(196,0,l),
(741,1462,l),
(565,1462,l),
(20,0,l)
);
}
);
userData = {
assembly = "NPUSHB[ ]	/* 22 values pushed */
0 0 0 31 77 2 1 1 1 32 1 78 0 0 0 3 0 3 17 3 8 23
CALL[ ]	/* CallFunction */";
};
width = 761;
},
{
layerId = "74807A0F-D47B-485E-A88B-DED3F6679B72";
shapes = (
{
closed = 1;
nodes = (
(123,0,l),
(672,1462,l),
(615,1462,l),
(66,0,l)
);
}
);
width = 761;
}
);
note = slash;
unicode = 47;
},
{
glyphname = zero;
lastChange = "2024-07-08 04:22:56 +0000";
layers = (
{
layerId = m01;
shapes = (
{
closed = 1;
nodes = (
(1118,-20,o),
(1118,729,qs),
(1118,1483,o),
(589,1483,qs),
(61,1483,o),
(61,729,qs),
(61,-20,o),
(589,-20,qs)
);
},
{
closed = 1;
nodes = (
(454,295,o),
(454,729,qs),
(454,1167,o),
(589,1167,qs),
(725,1167,o),
(725,729,qs),
(725,295,o),
(589,295,qs)
);
}
);
width = 1171;
},
{
layerId = "A52C9687-8F69-441E-A346-B6B4B01C4528";
shapes = (
{
closed = 1;
nodes = (
(1071,-20,o),
(1071,733,qs),
(1071,1485,o),
(583,1485,qs),
(100,1485,o),
(100,733,qs),
(100,-20,o),
(583,-20,qs)
);
},
{
closed = 1;
nodes = (
(280,133,o),
(280,733,qs),
(280,1331,o),
(583,1331,qs),
(888,1331,o),
(888,733,qs),
(888,133,o),
(583,133,qs)
);
}
);
width = 1171;
},
{
layerId = "74807A0F-D47B-485E-A88B-DED3F6679B72";
shapes = (
{
closed = 1;
nodes = (
(1047,-20,o),
(1047,737,qs),
(1047,1485,o),
(595,1485,qs),
(136,1485,o),
(136,737,qs),
(136,-20,o),
(593,-20,qs)
);
},
{
closed = 1;
nodes = (
(191,31,o),
(191,737,qs),
(191,1434,o),
(595,1434,qs),
(992,1434,o),
(992,737,qs),
(992,31,o),
(593,31,qs)
);
}
);
width = 1171;
}
);
note = zero;
unicode = 48;
},
{
glyphname = one;
lastChange = "2024-07-08 04:22:56 +0000";
layers = (
{
layerId = m01;
shapes = (
{
closed = 1;
nodes = (
(941,0,l),
(941,1462,l),
(585,1462,l),
(83,1053,l),
(288,801,l),
(540,1032,l),
(540,0,l)
);
}
);
width = 1171;
},
{
layerId = "A52C9687-8F69-441E-A346-B6B4B01C4528";
shapes = (
{
closed = 1;
nodes = (
(727,0,l),
(727,1462,l),
(577,1462,l),
(182,1155,l),
(276,1034,l),
(551,1274,l),
(551,0,l)
);
}
);
width = 1171;
},
{
layerId = "74807A0F-D47B-485E-A88B-DED3F6679B72";
shapes = (
{
closed = 1;
nodes = (
(744,0,l),
(744,1462,l),
(697,1462,l),
(298,1171,l),
(331,1128,l),
(691,1403,l),
(691,0,l)
);
}
);
width = 1171;
}
);
note = one;
unicode = 49;
},
{
glyphname = two;
lastChange = "2024-07-08 04:22:56 +0000";
layers = (
{
layerId = m01;
shapes = (
{
closed = 1;
nodes = (
(1122,0,l),
(1122,326,l),
(569,326,l),
(675,437,ls),
(1094,879,o),
(1094,1083,qs),
(1094,1483,o),
(606,1483,qs),
(328,1483,o),
(45,1249,q),
(262,995,l),
(452,1151,o),
(561,1151,qs),
(702,1151,o),
(702,1028,qs),
(702,926,o),
(416,624,qs),
(61,249,l),
(61,0,l)
);
}
);
width = 1171;
},
{
layerId = "A52C9687-8F69-441E-A346-B6B4B01C4528";
shapes = (
{
closed = 1;
nodes = (
(1065,0,l),
(1065,164,l),
(328,164,l),
(622,473,ls),
(1005,879,o),
(1005,1094,qs),
(1005,1483,o),
(563,1483,qs),
(328,1483,o),
(114,1311,q),
(211,1190,l),
(383,1329,o),
(563,1329,qs),
(821,1329,o),
(821,1083,qs),
(821,898,o),
(501,561,qs),
(98,136,l),
(98,0,l)
);
}
);
width = 1171;
},
{
layerId = "74807A0F-D47B-485E-A88B-DED3F6679B72";
shapes = (
{
closed = 1;
nodes = (
(1055,0,l),
(1055,51,l),
(242,51,l),
(670,504,ls),
(987,839,o),
(987,1104,qs),
(987,1483,o),
(598,1483,qs),
(389,1483,o),
(213,1341,q),
(244,1300,l),
(407,1432,o),
(598,1432,qs),
(932,1432,o),
(932,1104,qs),
(932,851,o),
(629,532,qs),
(170,47,l),
(170,0,l)
);
}
);
width = 1171;
}
);
note = two;
unicode = 50;
},
{
glyphname = three;
lastChange = "2024-07-08 04:22:56 +0000";
layers = (
{
layerId = m01;
shapes = (
{
closed = 1;
nodes = (
(1116,-20,o),
(1116,418,qs),
(1116,714,o),
(749,764,q),
(749,770,l),
(1073,826,o),
(1073,1145,qs),
(1073,1483,o),
(587,1483,qs),
(264,1483,o),
(71,1335,q),
(235,1071,l),
(357,1165,o),
(526,1165,qs),
(690,1165,o),
(690,1051,qs),
(690,897,o),
(388,897,qs),
(296,897,l),
(296,600,l),
(386,600,ls),
(698,600,o),
(698,442,qs),
(698,291,o),
(448,291,qs),
(273,291,o),
(69,387,q),
(69,59,l),
(237,-20,o),
(505,-20,qs)
);
}
);
width = 1171;
},
{
layerId = "A52C9687-8F69-441E-A346-B6B4B01C4528";
shapes = (
{
closed = 1;
nodes = (
(1055,-20,o),
(1055,416,qs),
(1055,715,o),
(706,762,q),
(706,770,l),
(1010,824,o),
(1010,1120,qs),
(1010,1483,o),
(557,1483,qs),
(293,1483,o),
(100,1331,q),
(190,1208,l),
(351,1331,o),
(559,1331,qs),
(825,1331,o),
(825,1108,qs),
(825,831,o),
(459,831,qs),
(315,831,l),
(315,678,l),
(457,678,ls),
(866,678,o),
(866,420,qs),
(866,131,o),
(495,131,qs),
(293,131,o),
(92,227,q),
(92,59,l),
(259,-20,o),
(493,-20,qs)
);
}
);
width = 1171;
},
{
layerId = "74807A0F-D47B-485E-A88B-DED3F6679B72";
shapes = (
{
closed = 1;
nodes = (
(1037,-20,o),
(1037,397,qs),
(1037,716,o),
(681,764,q),
(681,768,l),
(992,822,o),
(992,1128,qs),
(992,1483,o),
(589,1483,qs),
(338,1483,o),
(142,1331,q),
(171,1288,l),
(357,1432,o),
(589,1432,qs),
(937,1432,o),
(937,1128,qs),
(937,786,o),
(519,786,qs),
(349,786,l),
(349,735,l),
(519,735,ls),
(982,735,o),
(982,397,qs),
(982,31,o),
(536,31,qs),
(319,31,o),
(126,123,q),
(126,66,l),
(308,-20,o),
(536,-20,qs)
);
}
);
width = 1171;
}
);
note = three;
unicode = 51;
},
{
glyphname = four;
lastChange = "2024-07-08 04:22:56 +0000";
layers = (
{
layerId = m01;
shapes = (
{
closed = 1;
nodes = (
(997,0,l),
(997,283,l),
(1159,283,l),
(1159,578,l),
(997,578,l),
(997,1462,l),
(632,1462,l),
(24,573,l),
(24,283,l),
(608,283,l),
(608,0,l)
);
},
{
closed = 1;
nodes = (
(608,963,l),
(608,578,l),
(366,578,l)
);
}
);
width = 1171;
},
{
layerId = "A52C9687-8F69-441E-A346-B6B4B01C4528";
shapes = (
{
closed = 1;
nodes = (
(917,0,l),
(917,332,l),
(1130,332,l),
(1130,494,l),
(917,494,l),
(917,1470,l),
(731,1470,l),
(43,485,l),
(43,332,l),
(743,332,l),
(743,0,l)
);
},
{
closed = 1;
nodes = (
(743,1268,l),
(743,494,l),
(219,494,l)
);
}
);
width = 1171;
},
{
layerId = "74807A0F-D47B-485E-A88B-DED3F6679B72";
shapes = (
{
closed = 1;
nodes = (
(872,0,l),
(872,397,l),
(1147,397,l),
(1147,449,l),
(872,449,l),
(872,1470,l),
(815,1470,l),
(51,434,l),
(51,397,l),
(819,397,l),
(819,0,l)
);
},
{
closed = 1;
nodes = (
(819,1405,l),
(819,449,l),
(123,449,l)
);
}
);
width = 1171;
}
);
note = four;
unicode = 52;
},
{
glyphname = five;
lastChange = "2024-07-08 04:22:56 +0000";
layers = (
{
layerId = m01;
shapes = (
{
closed = 1;
nodes = (
(1096,-20,o),
(1096,487,qs),
(1096,958,o),
(653,958,qs),
(553,958,o),
(481,940,q),
(500,1133,l),
(997,1133,l),
(997,1462,l),
(164,1462,l),
(109,690,l),
(254,618,l),
(378,653,o),
(455,653,qs),
(696,653,o),
(696,475,qs),
(696,291,o),
(469,291,qs),
(251,291,o),
(84,383,q),
(84,59,l),
(231,-20,o),
(502,-20,qs)
);
}
);
width = 1171;
},
{
layerId = "A52C9687-8F69-441E-A346-B6B4B01C4528";
shapes = (
{
closed = 1;
nodes = (
(1055,-20,o),
(1055,467,qs),
(1055,897,o),
(563,897,qs),
(421,897,o),
(338,874,q),
(373,1298,l),
(952,1298,l),
(952,1462,l),
(219,1462,l),
(164,772,l),
(254,715,l),
(365,745,o),
(504,745,qs),
(870,745,o),
(870,449,qs),
(870,133,o),
(510,133,qs),
(301,133,o),
(129,229,q),
(129,59,l),
(270,-20,o),
(508,-20,qs)
);
}
);
width = 1171;
},
{
layerId = "74807A0F-D47B-485E-A88B-DED3F6679B72";
shapes = (
{
closed = 1;
nodes = (
(1044,-20,o),
(1044,444,qs),
(1044,872,o),
(571,872,qs),
(416,872,o),
(267,831,q),
(319,1411,l),
(956,1411,l),
(956,1462,l),
(272,1462,l),
(210,805,l),
(249,774,l),
(419,821,o),
(571,821,qs),
(988,821,o),
(988,444,qs),
(988,31,o),
(528,31,qs),
(335,31,o),
(161,127,q),
(161,66,l),
(314,-20,o),
(528,-20,qs)
);
}
);
width = 1171;
}
);
note = five;
unicode = 53;
},
{
glyphname = six;
lastChange = "2024-07-08 04:22:56 +0000";
layers = (
{
layerId = m01;
shapes = (
{
closed = 1;
nodes = (
(1126,-20,o),
(1126,500,qs),
(1126,975,o),
(716,975,qs),
(487,975,o),
(286,540,q),
(419,479,l),
(510,670,o),
(606,670,qs),
(743,670,o),
(743,492,qs),
(743,293,o),
(602,293,qs),
(421,293,o),
(421,618,qs),
(421,1176,o),
(817,1176,qs),
(972,1176,o),
(1034,1157,q),
(1034,1466,l),
(978,1483,o),
(825,1483,qs),
(59,1483,o),
(59,618,qs),
(59,-20,o),
(610,-20,qs)
);
}
);
width = 1171;
},
{
layerId = "A52C9687-8F69-441E-A346-B6B4B01C4528";
shapes = (
{
closed = 1;
nodes = (
(1075,-20,o),
(1075,471,qs),
(1075,915,o),
(651,915,qs),
(350,915,o),
(187,567,q),
(281,520,l),
(398,774,o),
(614,774,qs),
(896,774,o),
(896,471,qs),
(896,131,o),
(608,131,qs),
(292,131,o),
(292,625,qs),
(292,1335,o),
(786,1335,qs),
(881,1335,o),
(962,1311,q),
(962,1464,l),
(895,1483,o),
(782,1483,qs),
(112,1483,o),
(112,625,qs),
(112,-20,o),
(610,-20,qs)
);
}
);
width = 1171;
},
{
layerId = "74807A0F-D47B-485E-A88B-DED3F6679B72";
shapes = (
{
closed = 1;
nodes = (
(1050,-20,o),
(1050,461,qs),
(1050,899,o),
(622,899,qs),
(306,899,o),
(145,553,q),
(186,534,l),
(333,848,o),
(622,848,qs),
(995,848,o),
(995,461,qs),
(995,31,o),
(612,31,qs),
(190,31,o),
(190,621,qs),
(196,1436,o),
(751,1436,qs),
(853,1436,o),
(952,1405,q),
(952,1460,l),
(868,1487,o),
(751,1487,qs),
(139,1487,o),
(139,621,qs),
(139,-20,o),
(612,-20,qs)
);
}
);
width = 1171;
}
);
note = six;
unicode = 54;
},
{
glyphname = seven;
lastChange = "2024-07-08 04:22:56 +0000";
layers = (
{
layerId = m01;
shapes = (
{
closed = 1;
nodes = (
(608,0,l),
(1122,1229,l),
(1122,1462,l),
(67,1462,l),
(67,1135,l),
(700,1135,l),
(198,0,l)
);
}
);
width = 1171;
},
{
layerId = "A52C9687-8F69-441E-A346-B6B4B01C4528";
shapes = (
{
closed = 1;
nodes = (
(477,0,l),
(1071,1323,l),
(1071,1462,l),
(90,1462,l),
(90,1298,l),
(878,1298,l),
(278,0,l)
);
}
);
width = 1171;
},
{
layerId = "74807A0F-D47B-485E-A88B-DED3F6679B72";
shapes = (
{
closed = 1;
nodes = (
(463,0,l),
(1074,1427,l),
(1074,1462,l),
(148,1462,l),
(148,1411,l),
(1012,1411,l),
(404,0,l)
);
}
);
width = 1171;
}
);
note = seven;
unicode = 55;
},
{
glyphname = eight;
lastChange = "2024-07-08 04:22:56 +0000";
layers = (
{
layerId = m01;
shapes = (
{
closed = 1;
nodes = (
(1124,-20,o),
(1124,389,qs),
(1124,725,o),
(471,960,o),
(471,1092,qs),
(471,1198,o),
(592,1198,qs),
(710,1198,o),
(710,1092,qs),
(710,966,o),
(57,717,o),
(57,385,qs),
(57,-20,o),
(589,-20,qs)
);
},
{
closed = 1;
nodes = (
(419,264,o),
(419,401,qs),
(419,556,o),
(1081,807,o),
(1081,1126,qs),
(1081,1483,o),
(594,1483,qs),
(100,1483,o),
(100,1128,qs),
(100,791,o),
(762,553,o),
(762,393,qs),
(762,264,o),
(585,264,qs)
);
}
);
width = 1171;
},
{
layerId = "A52C9687-8F69-441E-A346-B6B4B01C4528";
shapes = (
{
closed = 1;
nodes = (
(1069,-20,o),
(1069,379,qs),
(1069,667,o),
(323,931,o),
(323,1126,qs),
(323,1337,o),
(581,1337,qs),
(843,1337,o),
(843,1126,qs),
(843,935,o),
(100,655,o),
(100,373,qs),
(100,-20,o),
(589,-20,qs)
);
},
{
closed = 1;
nodes = (
(276,123,o),
(276,371,qs),
(276,591,o),
(1022,871,o),
(1022,1133,qs),
(1022,1483,o),
(583,1483,qs),
(147,1483,o),
(147,1135,qs),
(147,842,o),
(893,578,o),
(893,377,qs),
(893,123,o),
(585,123,qs)
);
}
);
width = 1171;
},
{
layerId = "74807A0F-D47B-485E-A88B-DED3F6679B72";
shapes = (
{
closed = 1;
nodes = (
(1060,-20,o),
(1060,371,qs),
(1060,647,o),
(263,931,o),
(263,1145,qs),
(263,1432,o),
(610,1432,qs),
(956,1432,o),
(956,1149,qs),
(956,941,o),
(161,643,o),
(161,358,qs),
(161,-20,o),
(601,-20,qs)
);
},
{
closed = 1;
nodes = (
(216,31,o),
(216,358,qs),
(216,610,o),
(1011,912,o),
(1011,1149,qs),
(1011,1483,o),
(610,1483,qs),
(208,1483,o),
(208,1145,qs),
(208,896,o),
(1005,613,o),
(1005,371,qs),
(1005,31,o),
(601,31,qs)
);
}
);
width = 1171;
}
);
note = eight;
unicode = 56;
},
{
glyphname = nine;
lastChange = "2024-07-08 04:22:56 +0000";
layers = (
{
layerId = m01;
shapes = (
{
closed = 1;
nodes = (
(1120,-20,o),
(1120,845,qs),
(1120,1483,o),
(569,1483,qs),
(53,1483,o),
(53,963,qs),
(53,488,o),
(463,488,qs),
(692,488,o),
(893,923,q),
(760,984,l),
(669,793,o),
(573,793,qs),
(436,793,o),
(436,971,qs),
(436,1170,o),
(577,1170,qs),
(758,1170,o),
(758,845,qs),
(758,287,o),
(362,287,qs),
(207,287,o),
(145,306,q),
(145,-3,l),
(201,-20,o),
(354,-20,qs)
);
}
);
width = 1171;
},
{
layerId = "A52C9687-8F69-441E-A346-B6B4B01C4528";
shapes = (
{
closed = 1;
nodes = (
(1065,-20,o),
(1065,838,qs),
(1065,1483,o),
(567,1483,qs),
(102,1483,o),
(102,992,qs),
(102,548,o),
(526,548,qs),
(827,548,o),
(990,896,q),
(896,943,l),
(779,689,o),
(563,689,qs),
(281,689,o),
(281,992,qs),
(281,1332,o),
(569,1332,qs),
(885,1332,o),
(885,838,qs),
(885,128,o),
(391,128,qs),
(296,128,o),
(215,152,q),
(215,-1,l),
(282,-20,o),
(395,-20,qs)
);
}
);
width = 1171;
},
{
layerId = "74807A0F-D47B-485E-A88B-DED3F6679B72";
shapes = (
{
closed = 1;
nodes = (
(1053,-20,o),
(1053,846,qs),
(1053,1487,o),
(580,1487,qs),
(142,1487,o),
(142,1006,qs),
(142,568,o),
(570,568,qs),
(886,568,o),
(1047,914,q),
(1006,933,l),
(859,619,o),
(570,619,qs),
(197,619,o),
(197,1006,qs),
(197,1436,o),
(580,1436,qs),
(1002,1436,o),
(1002,846,qs),
(996,31,o),
(441,31,qs),
(339,31,o),
(240,62,q),
(240,7,l),
(324,-20,o),
(441,-20,qs)
);
}
);
width = 1171;
}
);
note = nine;
unicode = 57;
},
{
glyphname = colon;
lastChange = "2024-07-08 04:22:56 +0000";
layers = (
{
layerId = m01;
shapes = (
{
closed = 1;
nodes = (
(351,764,o),
(474,854,o),
(474,956,qs),
(474,1061,o),
(351,1147,o),
(269,1147,qs),
(181,1147,o),
(56,1061,o),
(56,956,qs),
(56,854,o),
(181,764,o),
(269,764,qs)
);
},
{
closed = 1;
nodes = (
(351,-25,o),
(474,66,o),
(474,166,qs),
(474,272,o),
(351,358,o),
(269,358,qs),
(181,358,o),
(56,272,o),
(56,166,qs),
(56,66,o),
(181,-25,o),
(269,-25,qs)
);
}
);
width = 548;
},
{
layerId = "A52C9687-8F69-441E-A346-B6B4B01C4528";
shapes = (
{
closed = 1;
nodes = (
(323,848,o),
(401,913,o),
(401,987,qs),
(401,1065,o),
(323,1126,o),
(272,1126,qs),
(221,1126,o),
(147,1065,o),
(147,987,qs),
(147,913,o),
(221,848,o),
(272,848,qs)
);
},
{
closed = 1;
nodes = (
(323,-29,o),
(401,37,o),
(401,111,qs),
(401,186,o),
(323,248,o),
(272,248,qs),
(221,248,o),
(147,186,o),
(147,111,qs),
(147,37,o),
(221,-29,o),
(272,-29,qs)
);
}
);
userData = {
assembly = "NPUSHB[ ]	/* 28 values pushed */
0 1 1 0 97 0 0 0 40 77 0 2 2 3 97 0 3 3 38 3 78 36 36 36 34 4 8 26
CALL[ ]	/* CallFunction */";
};
width = 548;
},
{
layerId = "74807A0F-D47B-485E-A88B-DED3F6679B72";
shapes = (
{
closed = 1;
nodes = (
(272,963,o),
(290,999,o),
(290,1026,qs),
(290,1051,o),
(272,1090,o),
(235,1090,qs),
(204,1090,o),
(184,1051,o),
(184,1026,qs),
(184,999,o),
(204,963,o),
(235,963,qs)
);
},
{
closed = 1;
nodes = (
(272,-16,o),
(290,20,o),
(290,47,qs),
(290,72,o),
(272,111,o),
(235,111,qs),
(204,111,o),
(184,72,o),
(184,47,qs),
(184,20,o),
(204,-16,o),
(235,-16,qs)
);
}
);
width = 548;
}
);
note = colon;
unicode = 58;
},
{
glyphname = semicolon;
lastChange = "2024-07-08 04:22:56 +0000";
layers = (
{
layerId = m01;
shapes = (
{
closed = 1;
nodes = (
(316,-285,l),
(348,-209,o),
(473,203,o),
(492,276,q),
(477,299,l),
(135,299,l),
(127,217,o),
(57,-193,o),
(37,-285,q)
);
},
{
closed = 1;
nodes = (
(365,764,o),
(490,854,o),
(490,956,qs),
(490,1061,o),
(365,1147,o),
(283,1147,qs),
(195,1147,o),
(72,1061,o),
(72,956,qs),
(72,854,o),
(195,764,o),
(283,764,qs)
);
}
);
width = 548;
},
{
layerId = "A52C9687-8F69-441E-A346-B6B4B01C4528";
shapes = (
{
closed = 1;
nodes = (
(198,-264,l),
(247,-156,o),
(348,106,o),
(374,215,q),
(360,238,l),
(167,238,l),
(157,166,o),
(81,-188,o),
(63,-264,q)
);
},
{
closed = 1;
nodes = (
(321,848,o),
(397,913,o),
(397,987,qs),
(397,1065,o),
(321,1126,o),
(268,1126,qs),
(217,1126,o),
(143,1065,o),
(143,987,qs),
(143,913,o),
(217,848,o),
(268,848,qs)
);
}
);
width = 548;
},
{
layerId = "74807A0F-D47B-485E-A88B-DED3F6679B72";
shapes = (
{
closed = 1;
nodes = (
(142,-264,l),
(185,-158,o),
(253,98,o),
(275,213,q),
(269,238,l),
(212,238,l),
(195,121,o),
(142,-115,o),
(97,-264,q)
);
},
{
closed = 1;
nodes = (
(281,963,o),
(300,999,o),
(300,1026,qs),
(300,1051,o),
(281,1090,o),
(244,1090,qs),
(214,1090,o),
(193,1051,o),
(193,1026,qs),
(193,999,o),
(214,963,o),
(244,963,qs)
);
}
);
width = 548;
}
);
note = semicolon;
unicode = 59;
},
{
glyphname = less;
lastChange = "2024-07-08 04:22:56 +0000";
layers = (
{
layerId = m01;
shapes = (
{
closed = 1;
nodes = (
(1104,473,l),
(483,725,l),
(1104,1008,l),
(1104,1305,l),
(92,799,l),
(92,627,l),
(1104,178,l)
);
}
);
width = 1171;
},
{
layerId = "A52C9687-8F69-441E-A346-B6B4B01C4528";
shapes = (
{
closed = 1;
nodes = (
(1067,397,l),
(295,721,l),
(1067,1085,l),
(1067,1245,l),
(102,764,l),
(102,662,l),
(1067,238,l)
);
}
);
userData = {
assembly = "PUSHB[ ]	/* 4 values pushed */
5 2 1 50
CALL[ ]	/* CallFunction */";
};
width = 1171;
},
{
layerId = "74807A0F-D47B-485E-A88B-DED3F6679B72";
shapes = (
{
closed = 1;
nodes = (
(1072,336,l),
(206,741,l),
(1072,1147,l),
(1072,1200,l),
(134,760,l),
(134,723,l),
(1072,283,l)
);
}
);
width = 1171;
}
);
note = less;
unicode = 60;
},
{
glyphname = equal;
lastChange = "2024-07-08 04:22:56 +0000";
layers = (
{
layerId = m01;
shapes = (
{
closed = 1;
nodes = (
(1098,358,l),
(1098,629,l),
(82,629,l),
(82,358,l)
);
},
{
closed = 1;
nodes = (
(1098,815,l),
(1098,1083,l),
(82,1083,l),
(82,815,l)
);
}
);
width = 1171;
},
{
layerId = "A52C9687-8F69-441E-A346-B6B4B01C4528";
shapes = (
{
closed = 1;
nodes = (
(1052,444,l),
(1052,590,l),
(114,590,l),
(114,444,l)
);
},
{
closed = 1;
nodes = (
(1052,852,l),
(1052,997,l),
(114,997,l),
(114,852,l)
);
}
);
userData = {
assembly = "NPUSHB[ ]	/* 45 values pushed */
4 1 1 0 0 3 1 0 103 5 1 3 2 2 3 87 5 1 3 3 2 95 0 2 3 2 79 4 4 0 0 4 7 4 7 6 5 0 3 0 3 17 6 8 23
CALL[ ]	/* CallFunction */";
};
width = 1171;
},
{
layerId = "74807A0F-D47B-485E-A88B-DED3F6679B72";
shapes = (
{
closed = 1;
nodes = (
(1054,489,l),
(1054,539,l),
(112,539,l),
(112,489,l)
);
},
{
closed = 1;
nodes = (
(1054,907,l),
(1054,956,l),
(112,956,l),
(112,907,l)
);
}
);
width = 1171;
}
);
note = equal;
unicode = 61;
},
{
glyphname = greater;
lastChange = "2024-07-08 04:22:56 +0000";
layers = (
{
layerId = m01;
shapes = (
{
closed = 1;
nodes = (
(1094,627,l),
(1094,799,l),
(82,1305,l),
(82,1008,l),
(703,725,l),
(82,473,l),
(82,178,l)
);
}
);
width = 1171;
},
{
layerId = "A52C9687-8F69-441E-A346-B6B4B01C4528";
shapes = (
{
closed = 1;
nodes = (
(1067,662,l),
(1067,764,l),
(102,1245,l),
(102,1085,l),
(874,719,l),
(102,397,l),
(102,238,l)
);
}
);
userData = {
assembly = "PUSHB[ ]	/* 4 values pushed */
5 1 1 50
CALL[ ]	/* CallFunction */";
};
width = 1171;
},
{
layerId = "74807A0F-D47B-485E-A88B-DED3F6679B72";
shapes = (
{
closed = 1;
nodes = (
(1052,723,l),
(1052,760,l),
(114,1200,l),
(114,1147,l),
(980,741,l),
(114,336,l),
(114,283,l)
);
}
);
width = 1171;
}
);
note = greater;
unicode = 62;
},
{
glyphname = question;
lastChange = "2024-07-08 04:22:56 +0000";
layers = (
{
layerId = m01;
shapes = (
{
closed = 1;
nodes = (
(526,516,l),
(526,567,ls),
(526,634,o),
(664,741,qs),
(871,907,o),
(871,1118,qs),
(871,1483,o),
(454,1483,qs),
(279,1483,o),
(0,1341,q),
(121,1069,l),
(316,1176,o),
(430,1176,qs),
(550,1176,o),
(550,1085,qs),
(550,1003,o),
(417,899,qs),
(258,769,o),
(258,602,qs),
(258,516,l)
);
},
{
closed = 1;
nodes = (
(478,-25,o),
(585,66,o),
(585,166,qs),
(585,272,o),
(478,358,o),
(404,358,qs),
(328,358,o),
(220,272,o),
(220,166,qs),
(220,66,o),
(328,-25,o),
(404,-25,qs)
);
}
);
width = 888;
},
{
layerId = "A52C9687-8F69-441E-A346-B6B4B01C4528";
shapes = (
{
closed = 1;
nodes = (
(430,412,l),
(430,446,ls),
(430,619,o),
(593,733,qs),
(835,899,o),
(835,1124,qs),
(835,1483,o),
(427,1483,qs),
(268,1483,o),
(24,1382,q),
(87,1239,l),
(295,1325,o),
(415,1325,qs),
(663,1325,o),
(663,1120,qs),
(663,956,o),
(458,815,qs),
(286,696,o),
(286,467,qs),
(286,412,l)
);
},
{
closed = 1;
nodes = (
(417,-29,o),
(491,37,o),
(491,111,qs),
(491,186,o),
(417,248,o),
(366,248,qs),
(311,248,o),
(239,186,o),
(239,111,qs),
(239,37,o),
(311,-29,o),
(366,-29,qs)
);
}
);
width = 888;
},
{
layerId = "74807A0F-D47B-485E-A88B-DED3F6679B72";
shapes = (
{
closed = 1;
nodes = (
(365,356,l),
(365,381,ls),
(365,614,o),
(515,717,qs),
(785,904,o),
(785,1135,qs),
(785,1483,o),
(404,1483,qs),
(262,1483,o),
(97,1415,q),
(117,1362,l),
(285,1432,o),
(404,1432,qs),
(730,1432,o),
(730,1135,qs),
(730,927,o),
(488,760,qs),
(314,640,o),
(314,381,qs),
(314,356,l)
);
},
{
closed = 1;
nodes = (
(380,-16,o),
(398,20,o),
(398,47,qs),
(398,72,o),
(380,111,o),
(343,111,qs),
(312,111,o),
(292,72,o),
(292,47,qs),
(292,20,o),
(312,-16,o),
(343,-16,qs)
);
}
);
width = 888;
}
);
note = question;
unicode = 63;
},
{
glyphname = at;
lastChange = "2024-07-08 04:22:56 +0000";
layers = (
{
layerId = m01;
shapes = (
{
closed = 1;
nodes = (
(1179,-154,o),
(1412,-59,q),
(1412,170,l),
(1181,74,o),
(898,74,qs),
(353,74,o),
(353,606,qs),
(353,1257,o),
(972,1257,qs),
(1490,1257,o),
(1490,758,qs),
(1490,451,o),
(1373,451,qs),
(1320,451,o),
(1326,631,qs),
(1347,1053,l),
(1181,1114,o),
(990,1114,qs),
(478,1114,o),
(478,639,qs),
(478,233,o),
(857,233,qs),
(1061,233,o),
(1207,621,q),
(1075,696,l),
(980,451,o),
(892,451,qs),
(759,451,o),
(759,641,qs),
(759,895,o),
(994,895,qs),
(1044,895,o),
(1062,889,q),
(1052,653,ls),
(1032,233,o),
(1375,233,qs),
(1754,233,o),
(1754,756,qs),
(1754,1481,o),
(968,1481,qs),
(81,1481,o),
(81,610,qs),
(81,-154,o),
(912,-154,qs)
);
}
);
width = 1841;
},
{
layerId = "A52C9687-8F69-441E-A346-B6B4B01C4528";
shapes = (
{
closed = 1;
nodes = (
(1119,-182,o),
(1326,-98,q),
(1326,41,l),
(1111,-47,o),
(886,-47,qs),
(265,-47,o),
(265,580,qs),
(265,1327,o),
(986,1327,qs),
(1578,1327,o),
(1578,733,qs),
(1578,350,o),
(1380,350,qs),
(1242,350,o),
(1255,600,qs),
(1275,1016,l),
(1138,1065,o),
(962,1065,qs),
(528,1065,o),
(528,604,qs),
(528,223,o),
(853,223,qs),
(1072,223,o),
(1204,569,q),
(1112,616,l),
(1013,350,o),
(880,350,qs),
(687,350,o),
(687,600,qs),
(687,936,o),
(964,936,qs),
(1057,936,o),
(1115,915,q),
(1100,609,ls),
(1080,223,o),
(1367,223,qs),
(1722,223,o),
(1722,731,qs),
(1722,1462,o),
(986,1462,qs),
(118,1462,o),
(118,573,qs),
(118,-182,o),
(886,-182,qs)
);
}
);
width = 1841;
},
{
layerId = "74807A0F-D47B-485E-A88B-DED3F6679B72";
shapes = (
{
closed = 1;
nodes = (
(1104,-205,o),
(1291,-127,q),
(1291,-70,l),
(1080,-154,o),
(877,-154,qs),
(191,-154,o),
(191,582,qs),
(191,1395,o),
(986,1395,qs),
(1666,1395,o),
(1666,719,qs),
(1666,270,o),
(1402,270,qs),
(1220,270,o),
(1238,648,qs),
(1254,995,l),
(1143,1036,o),
(992,1036,qs),
(558,1036,o),
(558,582,qs),
(558,219,o),
(871,219,qs),
(1131,219,o),
(1237,500,q),
(1190,516,l),
(1096,270,o),
(871,270,qs),
(613,270,o),
(613,582,qs),
(613,985,o),
(992,985,qs),
(1111,985,o),
(1201,954,q),
(1185,647,ls),
(1163,219,o),
(1402,219,qs),
(1721,219,o),
(1721,719,qs),
(1721,1446,o),
(986,1446,qs),
(136,1446,o),
(136,582,qs),
(136,-205,o),
(877,-205,qs)
);
}
);
width = 1841;
}
);
note = at;
unicode = 64;
},
{
glyphname = A;
lastChange = "2024-07-08 04:22:56 +0000";
layers = (
{
layerId = m01;
shapes = (
{
closed = 1;
nodes = (
(379,0,l),
(570,838,ls),
(582,885,o),
(649,1227,q),
(722,877,o),
(732,838,qs),
(922,0,l),
(1299,0,l),
(877,1468,l),
(417,1468,l),
(0,0,l)
);
},
{
closed = 1;
nodes = (
(936,274,l),
(936,598,l),
(371,598,l),
(371,274,l)
);
}
);
width = 1308;
},
{
layerId = "A52C9687-8F69-441E-A346-B6B4B01C4528";
shapes = (
{
closed = 1;
nodes = (
(186,0,l),
(588,1059,ls),
(600,1094,o),
(651,1278,q),
(715,1075,o),
(721,1059,qs),
(1116,0,l),
(1307,0,l),
(737,1468,l),
(571,1468,l),
(0,0,l)
);
},
{
closed = 1;
nodes = (
(981,453,l),
(981,616,l),
(332,616,l),
(332,453,l)
);
}
);
width = 1308;
},
{
layerId = "74807A0F-D47B-485E-A88B-DED3F6679B72";
shapes = (
{
closed = 1;
nodes = (
(117,0,l),
(592,1214,ls),
(646,1352,o),
(660,1397,q),
(681,1339,o),
(726,1217,qs),
(1184,0,l),
(1242,0,l),
(689,1466,l),
(638,1466,l),
(60,0,l)
);
},
{
closed = 1;
nodes = (
(991,555,l),
(991,606,l),
(317,606,l),
(317,555,l)
);
}
);
width = 1308;
}
);
note = A;
unicode = 65;
},
{
glyphname = B;
lastChange = "2024-07-08 04:22:56 +0000";
layers = (
{
layerId = m01;
shapes = (
{
closed = 1;
nodes = (
(680,0,ls),
(1263,0,o),
(1263,428,qs),
(1263,727,o),
(1005,766,q),
(1005,776,l),
(1235,818,o),
(1235,1098,qs),
(1235,1462,o),
(652,1462,qs),
(137,1462,l),
(137,0,l)
);
},
{
closed = 1;
nodes = (
(532,612,l),
(680,612,ls),
(856,612,o),
(856,461,qs),
(856,305,o),
(680,305,qs),
(532,305,l)
);
},
{
closed = 1;
nodes = (
(532,1163,l),
(652,1163,ls),
(829,1163,o),
(829,1040,qs),
(829,901,o),
(652,901,qs),
(532,901,l)
);
}
);
width = 1331;
},
{
layerId = "A52C9687-8F69-441E-A346-B6B4B01C4528";
shapes = (
{
closed = 1;
nodes = (
(653,0,ls),
(1220,0,o),
(1220,416,qs),
(1220,718,o),
(892,766,q),
(892,776,l),
(1171,826,o),
(1171,1100,qs),
(1171,1462,o),
(620,1462,qs),
(198,1462,l),
(198,0,l)
);
},
{
closed = 1;
nodes = (
(382,686,l),
(653,686,ls),
(1023,686,o),
(1023,430,qs),
(1023,156,o),
(653,156,qs),
(382,156,l)
);
},
{
closed = 1;
nodes = (
(382,1305,l),
(620,1305,ls),
(980,1305,o),
(980,1079,qs),
(980,840,o),
(653,840,qs),
(382,840,l)
);
}
);
width = 1331;
},
{
layerId = "74807A0F-D47B-485E-A88B-DED3F6679B72";
shapes = (
{
closed = 1;
nodes = (
(650,0,ls),
(1170,0,o),
(1170,416,qs),
(1170,719,o),
(844,768,q),
(844,772,l),
(1133,825,o),
(1133,1110,qs),
(1133,1462,o),
(650,1462,qs),
(240,1462,l),
(240,0,l)
);
},
{
closed = 1;
nodes = (
(293,743,l),
(650,743,ls),
(1114,743,o),
(1114,414,qs),
(1114,51,o),
(650,51,qs),
(293,51,l)
);
},
{
closed = 1;
nodes = (
(293,1411,l),
(650,1411,ls),
(1078,1411,o),
(1078,1108,qs),
(1078,795,o),
(650,795,qs),
(293,795,l)
);
}
);
width = 1331;
}
);
note = B;
unicode = 66;
},
{
glyphname = C;
lastChange = "2024-07-08 04:23:40 +0000";
layers = (
{
layerId = m01;
shapes = (
{
closed = 1;
nodes = (
(975,-20,o),
(1182,61,q),
(1182,395,l),
(958,303,o),
(811,303,qs),
(490,303,o),
(490,725,qs),
(490,1159,o),
(789,1159,qs),
(931,1159,o),
(1124,1069,q),
(1245,1380,l),
(1021,1483,o),
(793,1483,qs),
(84,1483,o),
(84,727,qs),
(84,-20,o),
(768,-20,qs)
);
}
);
width = 1294;
},
{
layerId = "A52C9687-8F69-441E-A346-B6B4B01C4528";
shapes = (
{
closed = 1;
nodes = (
(992,-20,o),
(1173,39,q),
(1173,199,l),
(992,141,o),
(822,141,qs),
(319,141,o),
(319,731,qs),
(319,1321,o),
(824,1321,qs),
(983,1321,o),
(1156,1241,q),
(1230,1397,l),
(1041,1483,o),
(826,1483,qs),
(124,1483,o),
(124,733,qs),
(124,-20,o),
(796,-20,qs)
);
}
);
width = 1294;
},
{
layerId = "74807A0F-D47B-485E-A88B-DED3F6679B72";
shapes = (
{
closed = 1;
nodes = (
(1011,-20,o),
(1167,43,q),
(1167,90,l),
(1019,31,o),
(791,31,qs),
(184,31,o),
(184,737,qs),
(184,1432,o),
(829,1432,qs),
(1013,1432,o),
(1173,1356,q),
(1194,1407,l),
(1028,1483,o),
(829,1483,qs),
(129,1483,o),
(129,737,qs),
(129,-20,o),
(791,-20,qs)
);
}
);
width = 1294;
}
);
note = C;
unicode = 67;
},
{
glyphname = D;
lastChange = "2024-07-08 04:22:56 +0000";
layers = (
{
layerId = m01;
shapes = (
{
closed = 1;
nodes = (
(655,0,ls),
(1388,0,o),
(1388,731,qs),
(1388,1462,o),
(655,1462,qs),
(147,1462,l),
(147,0,l)
);
},
{
closed = 1;
nodes = (
(542,1143,l),
(657,1143,ls),
(978,1143,o),
(978,734,qs),
(978,324,o),
(655,324,qs),
(542,324,l)
);
}
);
width = 1495;
},
{
layerId = "A52C9687-8F69-441E-A346-B6B4B01C4528";
shapes = (
{
closed = 1;
nodes = (
(640,0,ls),
(1369,0,o),
(1369,731,qs),
(1369,1462,o),
(640,1462,qs),
(198,1462,l),
(198,0,l)
);
},
{
closed = 1;
nodes = (
(382,1305,l),
(640,1305,ls),
(1175,1305,o),
(1175,732,qs),
(1175,158,o),
(640,158,qs),
(382,158,l)
);
}
);
width = 1495;
},
{
layerId = "74807A0F-D47B-485E-A88B-DED3F6679B72";
shapes = (
{
closed = 1;
nodes = (
(590,0,ls),
(1315,0,o),
(1315,731,qs),
(1315,1462,o),
(590,1462,qs),
(240,1462,l),
(240,0,l)
);
},
{
closed = 1;
nodes = (
(293,1411,l),
(590,1411,ls),
(1260,1411,o),
(1260,731,qs),
(1260,51,o),
(590,51,qs),
(293,51,l)
);
}
);
width = 1495;
}
);
note = D;
unicode = 68;
},
{
glyphname = E;
lastChange = "2024-07-08 04:22:56 +0000";
layers = (
{
layerId = m01;
shapes = (
{
closed = 1;
nodes = (
(1025,0,l),
(1025,322,l),
(552,322,l),
(552,598,l),
(991,598,l),
(991,915,l),
(552,915,l),
(552,1145,l),
(1025,1145,l),
(1025,1462,l),
(157,1462,l),
(157,0,l)
);
}
);
width = 1138;
},
{
layerId = "A52C9687-8F69-441E-A346-B6B4B01C4528";
shapes = (
{
closed = 1;
nodes = (
(1015,0,l),
(1015,162,l),
(382,162,l),
(382,684,l),
(978,684,l),
(978,844,l),
(382,844,l),
(382,1300,l),
(1015,1300,l),
(1015,1462,l),
(198,1462,l),
(198,0,l)
);
}
);
width = 1138;
},
{
layerId = "74807A0F-D47B-485E-A88B-DED3F6679B72";
shapes = (
{
closed = 1;
nodes = (
(998,0,l),
(998,51,l),
(263,51,l),
(263,745,l),
(958,745,l),
(958,797,l),
(263,797,l),
(263,1411,l),
(998,1411,l),
(998,1462,l),
(210,1462,l),
(210,0,l)
);
}
);
width = 1138;
}
);
note = E;
unicode = 69;
},
{
glyphname = F;
lastChange = "2024-07-08 04:22:56 +0000";
layers = (
{
layerId = m01;
shapes = (
{
closed = 1;
nodes = (
(546,0,l),
(546,549,l),
(984,549,l),
(984,866,l),
(546,866,l),
(546,1145,l),
(1021,1145,l),
(1021,1462,l),
(157,1462,l),
(157,0,l)
);
}
);
width = 1062;
},
{
layerId = "A52C9687-8F69-441E-A346-B6B4B01C4528";
shapes = (
{
closed = 1;
nodes = (
(382,0,l),
(382,621,l),
(976,621,l),
(976,782,l),
(382,782,l),
(382,1300,l),
(1015,1300,l),
(1015,1462,l),
(198,1462,l),
(198,0,l)
);
}
);
width = 1062;
},
{
layerId = "74807A0F-D47B-485E-A88B-DED3F6679B72";
shapes = (
{
closed = 1;
nodes = (
(263,0,l),
(263,674,l),
(962,674,l),
(962,725,l),
(263,725,l),
(263,1411,l),
(1001,1411,l),
(1001,1462,l),
(210,1462,l),
(210,0,l)
);
}
);
width = 1062;
}
);
note = F;
unicode = 70;
},
{
glyphname = G;
lastChange = "2024-07-08 04:22:56 +0000";
layers = (
{
layerId = m01;
shapes = (
{
closed = 1;
nodes = (
(1190,-20,o),
(1376,68,q),
(1376,856,l),
(745,856,l),
(745,551,l),
(1005,551,l),
(1005,322,l),
(968,305,o),
(843,305,qs),
(512,305,o),
(512,725,qs),
(512,1159,o),
(874,1159,qs),
(1060,1159,o),
(1220,1081,q),
(1345,1391,l),
(1154,1483,o),
(872,1483,qs),
(104,1483,o),
(104,735,qs),
(104,-20,o),
(811,-20,qs)
);
}
);
width = 1490;
},
{
layerId = "A52C9687-8F69-441E-A346-B6B4B01C4528";
shapes = (
{
closed = 1;
nodes = (
(1178,-20,o),
(1338,55,q),
(1338,772,l),
(833,772,l),
(833,608,l),
(1154,608,l),
(1154,174,l),
(1081,139,o),
(867,139,qs),
(317,139,o),
(317,731,qs),
(317,1321,o),
(872,1321,qs),
(1076,1321,o),
(1248,1237,q),
(1318,1397,l),
(1142,1483,o),
(882,1483,qs),
(124,1483,o),
(124,731,qs),
(124,-20,o),
(824,-20,qs)
);
}
);
width = 1490;
},
{
layerId = "74807A0F-D47B-485E-A88B-DED3F6679B72";
shapes = (
{
closed = 1;
nodes = (
(1151,-20,o),
(1349,74,q),
(1349,717,l),
(792,717,l),
(792,666,l),
(1295,666,l),
(1295,102,l),
(1147,31,o),
(898,31,qs),
(224,31,o),
(224,729,qs),
(224,1436,o),
(906,1436,qs),
(1125,1436,o),
(1308,1346,q),
(1332,1397,l),
(1148,1487,o),
(908,1487,qs),
(169,1487,o),
(169,727,qs),
(169,-20,o),
(894,-20,qs)
);
}
);
width = 1490;
}
);
note = G;
unicode = 71;
},
{
glyphname = H;
lastChange = "2024-07-08 04:22:56 +0000";
layers = (
{
layerId = m01;
shapes = (
{
closed = 1;
nodes = (
(534,0,l),
(534,596,l),
(993,596,l),
(993,0,l),
(1390,0,l),
(1390,1462,l),
(993,1462,l),
(993,920,l),
(534,920,l),
(534,1462,l),
(137,1462,l),
(137,0,l)
);
}
);
width = 1517;
},
{
layerId = "A52C9687-8F69-441E-A346-B6B4B01C4528";
shapes = (
{
closed = 1;
nodes = (
(382,0,l),
(382,682,l),
(1132,682,l),
(1132,0,l),
(1316,0,l),
(1316,1462,l),
(1132,1462,l),
(1132,844,l),
(382,844,l),
(382,1462,l),
(198,1462,l),
(198,0,l)
);
}
);
width = 1517;
},
{
layerId = "74807A0F-D47B-485E-A88B-DED3F6679B72";
shapes = (
{
closed = 1;
nodes = (
(293,0,l),
(293,743,l),
(1211,743,l),
(1211,0,l),
(1264,0,l),
(1264,1462,l),
(1211,1462,l),
(1211,795,l),
(293,795,l),
(293,1462,l),
(240,1462,l),
(240,0,l)
);
}
);
width = 1517;
}
);
note = H;
unicode = 72;
},
{
glyphname = I;
lastChange = "2024-07-08 04:22:56 +0000";
layers = (
{
layerId = m01;
shapes = (
{
closed = 1;
nodes = (
(671,0,l),
(671,225,l),
(518,295,l),
(518,1169,l),
(671,1237,l),
(671,1462,l),
(29,1462,l),
(29,1237,l),
(182,1169,l),
(182,295,l),
(29,225,l),
(29,0,l)
);
}
);
width = 694;
},
{
layerId = "A52C9687-8F69-441E-A346-B6B4B01C4528";
shapes = (
{
closed = 1;
nodes = (
(609,0,l),
(609,106,l),
(437,145,l),
(437,1315,l),
(609,1356,l),
(609,1462,l),
(81,1462,l),
(81,1356,l),
(253,1315,l),
(253,145,l),
(81,106,l),
(81,0,l)
);
}
);
width = 694;
},
{
layerId = "74807A0F-D47B-485E-A88B-DED3F6679B72";
shapes = (
{
closed = 1;
nodes = (
(516,0,l),
(516,41,l),
(377,47,l),
(377,1413,l),
(516,1421,l),
(516,1462,l),
(184,1462,l),
(184,1421,l),
(323,1413,l),
(323,47,l),
(184,41,l),
(184,0,l)
);
}
);
width = 694;
}
);
note = I;
unicode = 73;
},
{
glyphname = J;
lastChange = "2024-07-08 04:22:56 +0000";
layers = (
{
layerId = m01;
shapes = (
{
closed = 1;
nodes = (
(504,-459,o),
(504,143,qs),
(504,1462,l),
(107,1462,l),
(107,109,ls),
(107,-152,o),
(-76,-152,qs),
(-150,-152,o),
(-221,-131,q),
(-221,-438,l),
(-146,-459,o),
(-16,-459,qs)
);
}
);
width = 559;
},
{
layerId = "A52C9687-8F69-441E-A346-B6B4B01C4528";
shapes = (
{
closed = 1;
nodes = (
(373,-389,o),
(373,23,qs),
(373,1462,l),
(189,1462,l),
(189,8,ls),
(189,-227,o),
(-12,-227,qs),
(-93,-227,o),
(-159,-207,q),
(-159,-362,l),
(-69,-389,o),
(-7,-389,qs)
);
}
);
width = 559;
},
{
layerId = "74807A0F-D47B-485E-A88B-DED3F6679B72";
shapes = (
{
closed = 1;
nodes = (
(341,-356,o),
(341,4,qs),
(341,1462,l),
(288,1462,l),
(288,10,ls),
(288,-303,o),
(32,-303,qs),
(-32,-303,o),
(-130,-274,q),
(-130,-332,l),
(-49,-356,o),
(32,-356,qs)
);
}
);
width = 559;
}
);
note = J;
unicode = 74;
},
{
glyphname = K;
lastChange = "2024-07-08 04:22:56 +0000";
layers = (
{
layerId = m01;
shapes = (
{
closed = 1;
nodes = (
(508,0,l),
(508,489,l),
(611,559,l),
(867,0,l),
(1261,0,l),
(861,807,l),
(1268,1462,l),
(886,1462,l),
(615,1014,ls),
(587,971,o),
(508,827,q),
(508,1462,l),
(157,1462,l),
(157,0,l)
);
}
);
width = 1267;
},
{
layerId = "A52C9687-8F69-441E-A346-B6B4B01C4528";
shapes = (
{
closed = 1;
nodes = (
(382,0,l),
(382,567,l),
(532,698,l),
(1050,0,l),
(1267,0,l),
(665,825,l),
(1245,1462,l),
(1029,1462,l),
(634,1020,ls),
(571,950,o),
(382,741,q),
(382,1462,l),
(198,1462,l),
(198,0,l)
);
}
);
width = 1267;
},
{
layerId = "74807A0F-D47B-485E-A88B-DED3F6679B72";
shapes = (
{
closed = 1;
nodes = (
(283,0,l),
(283,600,l),
(498,815,l),
(1092,0,l),
(1162,0,l),
(539,854,l),
(1150,1462,l),
(1072,1462,l),
(386,770,ls),
(359,741,o),
(283,664,q),
(283,1462,l),
(230,1462,l),
(230,0,l)
);
}
);
width = 1267;
}
);
note = K;
unicode = 75;
},
{
glyphname = L;
lastChange = "2024-07-08 04:22:56 +0000";
layers = (
{
layerId = m01;
shapes = (
{
closed = 1;
nodes = (
(1055,0,l),
(1055,319,l),
(542,319,l),
(542,1462,l),
(157,1462,l),
(157,0,l)
);
}
);
width = 1073;
},
{
layerId = "A52C9687-8F69-441E-A346-B6B4B01C4528";
shapes = (
{
closed = 1;
nodes = (
(1021,0,l),
(1021,164,l),
(382,164,l),
(382,1462,l),
(198,1462,l),
(198,0,l)
);
}
);
width = 1073;
},
{
layerId = "74807A0F-D47B-485E-A88B-DED3F6679B72";
shapes = (
{
closed = 1;
nodes = (
(994,0,l),
(994,51,l),
(263,51,l),
(263,1462,l),
(210,1462,l),
(210,0,l)
);
}
);
width = 1073;
}
);
note = L;
unicode = 76;
},
{
glyphname = M;
lastChange = "2024-07-08 04:22:56 +0000";
layers = (
{
layerId = m01;
shapes = (
{
closed = 1;
nodes = (
(457,0,l),
(457,635,ls),
(457,709,o),
(437,1053,q),
(445,1053,l),
(744,0,l),
(1121,0,l),
(1416,1051,l),
(1424,1051,l),
(1410,709,o),
(1410,641,qs),
(1410,0,l),
(1772,0,l),
(1772,1462,l),
(1246,1462,l),
(947,424,l),
(938,424,l),
(633,1462,l),
(107,1462,l),
(107,0,l)
);
}
);
width = 1857;
},
{
layerId = "A52C9687-8F69-441E-A346-B6B4B01C4528";
shapes = (
{
closed = 1;
nodes = (
(368,0,l),
(368,887,ls),
(368,1004,o),
(354,1282,q),
(362,1282,l),
(843,0,l),
(995,0,l),
(1482,1280,l),
(1490,1280,l),
(1476,1006,o),
(1476,899,qs),
(1476,0,l),
(1658,0,l),
(1658,1462,l),
(1388,1462,l),
(929,264,l),
(921,264,l),
(470,1462,l),
(198,1462,l),
(198,0,l)
);
}
);
width = 1857;
},
{
layerId = "74807A0F-D47B-485E-A88B-DED3F6679B72";
shapes = (
{
closed = 1;
nodes = (
(343,0,l),
(343,1221,ls),
(343,1266,o),
(341,1391,q),
(345,1391,l),
(915,0,l),
(956,0,l),
(1525,1389,l),
(1529,1389,l),
(1527,1264,o),
(1527,1233,qs),
(1527,0,l),
(1580,0,l),
(1580,1462,l),
(1498,1462,l),
(939,98,l),
(933,98,l),
(376,1462,l),
(290,1462,l),
(290,0,l)
);
}
);
width = 1857;
}
);
note = M;
unicode = 77;
},
{
glyphname = N;
lastChange = "2024-07-08 04:22:56 +0000";
layers = (
{
layerId = m01;
shapes = (
{
closed = 1;
nodes = (
(447,0,l),
(447,659,ls),
(447,715,o),
(429,1030,q),
(437,1030,l),
(971,0,l),
(1490,0,l),
(1490,1462,l),
(1137,1462,l),
(1137,801,ls),
(1137,750,o),
(1152,446,q),
(1146,446,l),
(613,1462,l),
(97,1462,l),
(97,0,l)
);
}
);
width = 1556;
},
{
layerId = "A52C9687-8F69-441E-A346-B6B4B01C4528";
shapes = (
{
closed = 1;
nodes = (
(368,0,l),
(368,817,ls),
(368,930,o),
(352,1214,q),
(360,1214,l),
(1142,0,l),
(1357,0,l),
(1357,1462,l),
(1185,1462,l),
(1185,637,ls),
(1185,569,o),
(1199,252,q),
(1191,252,l),
(411,1462,l),
(198,1462,l),
(198,0,l)
);
}
);
width = 1556;
},
{
layerId = "74807A0F-D47B-485E-A88B-DED3F6679B72";
shapes = (
{
closed = 1;
nodes = (
(323,0,l),
(323,1028,ls),
(323,1110,o),
(321,1341,q),
(325,1341,l),
(1237,0,l),
(1276,0,l),
(1276,1462,l),
(1222,1462,l),
(1222,432,ls),
(1222,360,o),
(1224,125,q),
(1220,125,l),
(311,1462,l),
(270,1462,l),
(270,0,l)
);
}
);
width = 1556;
}
);
note = N;
unicode = 78;
},
{
glyphname = O;
lastChange = "2024-07-08 04:22:56 +0000";
layers = (
{
layerId = m01;
shapes = (
{
closed = 1;
nodes = (
(1515,-20,o),
(1515,733,qs),
(1515,1485,o),
(805,1485,qs),
(94,1485,o),
(94,733,qs),
(94,-20,o),
(805,-20,qs)
);
},
{
closed = 1;
nodes = (
(510,307,o),
(510,733,qs),
(510,1159,o),
(805,1159,qs),
(1100,1159,o),
(1100,733,qs),
(1100,307,o),
(805,307,qs)
);
}
);
width = 1599;
},
{
layerId = "A52C9687-8F69-441E-A346-B6B4B01C4528";
shapes = (
{
closed = 1;
nodes = (
(1474,-20,o),
(1474,733,qs),
(1474,1485,o),
(799,1485,qs),
(124,1485,o),
(124,733,qs),
(124,-20,o),
(799,-20,qs)
);
},
{
closed = 1;
nodes = (
(319,141,o),
(319,733,qs),
(319,1325,o),
(799,1325,qs),
(1279,1325,o),
(1279,733,qs),
(1279,141,o),
(799,141,qs)
);
}
);
width = 1599;
},
{
layerId = "74807A0F-D47B-485E-A88B-DED3F6679B72";
shapes = (
{
closed = 1;
nodes = (
(1443,-20,o),
(1443,733,qs),
(1443,1485,o),
(801,1485,qs),
(159,1485,o),
(159,733,qs),
(159,-20,o),
(801,-20,qs)
);
},
{
closed = 1;
nodes = (
(214,31,o),
(214,733,qs),
(214,1434,o),
(801,1434,qs),
(1388,1434,o),
(1388,733,qs),
(1388,31,o),
(801,31,qs)
);
}
);
width = 1599;
}
);
note = O;
unicode = 79;
},
{
glyphname = P;
lastChange = "2024-07-08 04:22:56 +0000";
layers = (
{
layerId = m01;
shapes = (
{
closed = 1;
nodes = (
(532,0,l),
(532,485,l),
(640,485,ls),
(1198,485,o),
(1198,974,qs),
(1198,1462,o),
(640,1462,qs),
(137,1462,l),
(137,0,l)
);
},
{
closed = 1;
nodes = (
(532,1143,l),
(640,1143,ls),
(803,1143,o),
(803,975,qs),
(803,807,o),
(640,807,qs),
(532,807,l)
);
}
);
width = 1239;
},
{
layerId = "A52C9687-8F69-441E-A346-B6B4B01C4528";
shapes = (
{
closed = 1;
nodes = (
(382,0,l),
(382,569,l),
(570,569,ls),
(1134,569,o),
(1134,1016,qs),
(1134,1462,o),
(570,1462,qs),
(198,1462,l),
(198,0,l)
);
},
{
closed = 1;
nodes = (
(382,1305,l),
(570,1305,ls),
(943,1305,o),
(943,1016,qs),
(943,727,o),
(570,727,qs),
(382,727,l)
);
}
);
width = 1239;
},
{
layerId = "74807A0F-D47B-485E-A88B-DED3F6679B72";
shapes = (
{
closed = 1;
nodes = (
(293,0,l),
(293,625,l),
(580,625,ls),
(1086,625,o),
(1086,1044,qs),
(1086,1462,o),
(580,1462,qs),
(240,1462,l),
(240,0,l)
);
},
{
closed = 1;
nodes = (
(293,1411,l),
(580,1411,ls),
(1031,1411,o),
(1031,1044,qs),
(1031,676,o),
(580,676,qs),
(293,676,l)
);
}
);
width = 1239;
}
);
note = P;
unicode = 80;
},
{
glyphname = Q;
lastChange = "2024-07-08 04:22:56 +0000";
layers = (
{
layerId = m01;
shapes = (
{
closed = 1;
nodes = (
(1515,-20,o),
(1515,733,qs),
(1515,1485,o),
(805,1485,qs),
(94,1485,o),
(94,733,qs),
(94,-20,o),
(805,-20,qs)
);
},
{
closed = 1;
nodes = (
(1556,-348,l),
(1150,123,l),
(769,40,l),
(1065,-348,l)
);
},
{
closed = 1;
nodes = (
(510,307,o),
(510,733,qs),
(510,1159,o),
(805,1159,qs),
(1100,1159,o),
(1100,733,qs),
(1100,307,o),
(805,307,qs)
);
}
);
width = 1599;
},
{
layerId = "A52C9687-8F69-441E-A346-B6B4B01C4528";
shapes = (
{
closed = 1;
nodes = (
(1474,-20,o),
(1474,733,qs),
(1474,1485,o),
(799,1485,qs),
(124,1485,o),
(124,733,qs),
(124,-20,o),
(799,-20,qs)
);
},
{
closed = 1;
nodes = (
(1398,-348,l),
(1018,57,l),
(821,23,l),
(1134,-348,l)
);
},
{
closed = 1;
nodes = (
(319,141,o),
(319,733,qs),
(319,1325,o),
(799,1325,qs),
(1279,1325,o),
(1279,733,qs),
(1279,141,o),
(799,141,qs)
);
}
);
width = 1599;
},
{
layerId = "74807A0F-D47B-485E-A88B-DED3F6679B72";
shapes = (
{
closed = 1;
nodes = (
(1453,-20,o),
(1453,733,qs),
(1453,1485,o),
(811,1485,qs),
(169,1485,o),
(169,733,qs),
(169,-20,o),
(811,-20,qs)
);
},
{
closed = 1;
nodes = (
(1238,-348,l),
(933,7,l),
(872,-1,l),
(1164,-348,l)
);
},
{
closed = 1;
nodes = (
(224,31,o),
(224,733,qs),
(224,1434,o),
(811,1434,qs),
(1398,1434,o),
(1398,733,qs),
(1398,31,o),
(811,31,qs)
);
}
);
width = 1599;
}
);
note = Q;
unicode = 81;
},
{
glyphname = R;
lastChange = "2024-07-08 04:22:56 +0000";
layers = (
{
layerId = m01;
shapes = (
{
closed = 1;
nodes = (
(510,0,l),
(510,485,l),
(607,485,ls),
(1105,485,o),
(1105,974,qs),
(1105,1462,o),
(607,1462,qs),
(157,1462,l),
(157,0,l)
);
},
{
closed = 1;
nodes = (
(1277,0,l),
(896,637,l),
(600,532,l),
(877,0,l)
);
},
{
closed = 1;
nodes = (
(510,1143,l),
(607,1143,ls),
(752,1143,o),
(752,975,qs),
(752,807,o),
(607,807,qs),
(510,807,l)
);
}
);
width = 1273;
},
{
layerId = "A52C9687-8F69-441E-A346-B6B4B01C4528";
shapes = (
{
closed = 1;
nodes = (
(382,0,l),
(382,569,l),
(570,569,ls),
(1134,569,o),
(1134,1016,qs),
(1134,1462,o),
(570,1462,qs),
(198,1462,l),
(198,0,l)
);
},
{
closed = 1;
nodes = (
(1242,0,l),
(841,655,l),
(673,604,l),
(1027,0,l)
);
},
{
closed = 1;
nodes = (
(382,1305,l),
(570,1305,ls),
(943,1305,o),
(943,1016,qs),
(943,727,o),
(570,727,qs),
(382,727,l)
);
}
);
width = 1273;
},
{
layerId = "74807A0F-D47B-485E-A88B-DED3F6679B72";
shapes = (
{
closed = 1;
nodes = (
(283,0,l),
(283,625,l),
(570,625,ls),
(1076,625,o),
(1076,1044,qs),
(1076,1462,o),
(570,1462,qs),
(230,1462,l),
(230,0,l)
);
},
{
closed = 1;
nodes = (
(1148,0,l),
(739,680,l),
(682,665,l),
(1080,0,l)
);
},
{
closed = 1;
nodes = (
(283,1411,l),
(570,1411,ls),
(1021,1411,o),
(1021,1044,qs),
(1021,676,o),
(570,676,qs),
(283,676,l)
);
}
);
width = 1273;
}
);
note = R;
unicode = 82;
},
{
glyphname = S;
lastChange = "2024-07-08 04:22:56 +0000";
layers = (
{
layerId = m01;
shapes = (
{
closed = 1;
nodes = (
(1084,-20,o),
(1084,444,qs),
(1084,767,o),
(748,872,qs),
(461,966,o),
(461,1073,qs),
(461,1167,o),
(609,1167,qs),
(747,1167,o),
(963,1073,q),
(1084,1378,l),
(842,1483,o),
(621,1483,qs),
(70,1483,o),
(70,1055,qs),
(70,717,o),
(425,602,qs),
(689,518,o),
(689,410,qs),
(689,301,o),
(519,301,qs),
(437,301,o),
(60,424,q),
(60,72,l),
(348,-20,o),
(511,-20,qs)
);
}
);
width = 1124;
},
{
layerId = "A52C9687-8F69-441E-A346-B6B4B01C4528";
shapes = (
{
closed = 1;
nodes = (
(1028,-20,o),
(1028,391,qs),
(1028,686,o),
(628,813,qs),
(309,914,o),
(309,1108,qs),
(309,1321,o),
(585,1321,qs),
(754,1321,o),
(935,1243,q),
(993,1401,l),
(799,1483,o),
(589,1483,qs),
(122,1483,o),
(122,1110,qs),
(122,795,o),
(499,676,qs),
(843,566,o),
(843,375,qs),
(843,139,o),
(514,139,qs),
(377,139,o),
(104,225,q),
(104,49,l),
(329,-20,o),
(505,-20,qs)
);
}
);
width = 1124;
},
{
layerId = "74807A0F-D47B-485E-A88B-DED3F6679B72";
shapes = (
{
closed = 1;
nodes = (
(1011,-20,o),
(1011,369,qs),
(1011,631,o),
(577,768,qs),
(196,888,o),
(196,1118,qs),
(196,1432,o),
(601,1432,qs),
(784,1432,o),
(951,1360,q),
(974,1407,l),
(798,1483,o),
(605,1483,qs),
(140,1483,o),
(140,1114,qs),
(140,849,o),
(548,721,qs),
(955,592,o),
(955,371,qs),
(955,31,o),
(525,31,qs),
(340,31,o),
(124,98,q),
(124,39,l),
(313,-20,o),
(521,-20,qs)
);
}
);
width = 1124;
}
);
note = S;
unicode = 83;
},
{
glyphname = T;
lastChange = "2024-07-08 04:22:56 +0000";
layers = (
{
layerId = m01;
shapes = (
{
closed = 1;
nodes = (
(773,0,l),
(773,1139,l),
(1129,1139,l),
(1129,1462,l),
(21,1462,l),
(21,1139,l),
(377,1139,l),
(377,0,l)
);
}
);
width = 1138;
},
{
layerId = "A52C9687-8F69-441E-A346-B6B4B01C4528";
shapes = (
{
closed = 1;
nodes = (
(661,0,l),
(661,1300,l),
(1116,1300,l),
(1116,1462,l),
(20,1462,l),
(20,1300,l),
(477,1300,l),
(477,0,l)
);
}
);
userData = {
assembly = "NPUSHB[ ]	/* 24 values pushed */
2 1 0 0 3 95 0 3 3 31 77 0 1 1 32 1 78 17 17 17 16 4 8 26
CALL[ ]	/* CallFunction */";
};
width = 1138;
},
{
layerId = "74807A0F-D47B-485E-A88B-DED3F6679B72";
shapes = (
{
closed = 1;
nodes = (
(603,0,l),
(603,1411,l),
(1090,1411,l),
(1090,1462,l),
(64,1462,l),
(64,1411,l),
(549,1411,l),
(549,0,l)
);
}
);
width = 1138;
}
);
note = T;
unicode = 84;
},
{
glyphname = U;
lastChange = "2024-07-08 04:22:56 +0000";
layers = (
{
layerId = m01;
shapes = (
{
closed = 1;
nodes = (
(1380,-20,o),
(1380,573,qs),
(1380,1462,l),
(985,1462,l),
(985,573,ls),
(985,309,o),
(756,309,qs),
(526,309,o),
(526,573,qs),
(526,1462,l),
(129,1462,l),
(129,573,ls),
(129,-20,o),
(755,-20,qs)
);
}
);
width = 1497;
},
{
layerId = "A52C9687-8F69-441E-A346-B6B4B01C4528";
shapes = (
{
closed = 1;
nodes = (
(1310,-20,o),
(1310,520,qs),
(1310,1462,l),
(1128,1462,l),
(1128,520,ls),
(1128,139,o),
(748,139,qs),
(368,139,o),
(368,520,qs),
(368,1462,l),
(184,1462,l),
(184,520,ls),
(184,-20,o),
(748,-20,qs)
);
}
);
width = 1497;
},
{
layerId = "74807A0F-D47B-485E-A88B-DED3F6679B72";
shapes = (
{
closed = 1;
nodes = (
(1285,-20,o),
(1285,520,qs),
(1285,1462,l),
(1232,1462,l),
(1232,520,ls),
(1232,31,o),
(750,31,qs),
(267,31,o),
(267,520,qs),
(267,1462,l),
(214,1462,l),
(214,520,ls),
(214,-20,o),
(750,-20,qs)
);
}
);
width = 1497;
}
);
note = U;
unicode = 85;
},
{
glyphname = V;
lastChange = "2024-07-08 04:22:56 +0000";
layers = (
{
layerId = m01;
shapes = (
{
closed = 1;
nodes = (
(811,0,l),
(1224,1462,l),
(843,1462,l),
(668,717,ls),
(658,676,o),
(612,377,q),
(562,680,o),
(554,721,qs),
(382,1462,l),
(0,1462,l),
(411,0,l)
);
}
);
width = 1228;
},
{
layerId = "A52C9687-8F69-441E-A346-B6B4B01C4528";
shapes = (
{
closed = 1;
nodes = (
(707,0,l),
(1229,1462,l),
(1034,1462,l),
(707,528,ls),
(674,436,o),
(614,205,q),
(555,434,o),
(522,524,qs),
(193,1462,l),
(0,1462,l),
(522,0,l)
);
}
);
width = 1228;
},
{
layerId = "74807A0F-D47B-485E-A88B-DED3F6679B72";
shapes = (
{
closed = 1;
nodes = (
(642,0,l),
(1193,1462,l),
(1136,1462,l),
(695,293,ls),
(669,223,o),
(618,76,q),
(560,233,o),
(540,293,q),
(97,1462,l),
(40,1462,l),
(591,0,l)
);
}
);
width = 1228;
}
);
note = V;
unicode = 86;
},
{
glyphname = W;
lastChange = "2024-07-08 04:22:56 +0000";
layers = (
{
layerId = m01;
shapes = (
{
closed = 1;
nodes = (
(762,0,l),
(891,637,ls),
(911,741,o),
(950,995,q),
(989,741,o),
(1008,637,qs),
(1134,0,l),
(1558,0,l),
(1885,1462,l),
(1540,1462,l),
(1393,727,ls),
(1386,690,o),
(1328,342,q),
(1266,725,o),
(1229,909,qs),
(1116,1462,l),
(783,1462,l),
(666,909,ls),
(629,725,o),
(567,342,q),
(506,702,o),
(501,729,qs),
(356,1462,l),
(10,1462,l),
(339,0,l)
);
}
);
width = 1904;
},
{
layerId = "A52C9687-8F69-441E-A346-B6B4B01C4528";
shapes = (
{
closed = 1;
nodes = (
(597,0,l),
(874,952,ls),
(901,1047,o),
(944,1247,q),
(999,1016,o),
(1017,958,qs),
(1302,0,l),
(1488,0,l),
(1877,1462,l),
(1685,1462,l),
(1460,571,ls),
(1435,475,o),
(1388,221,q),
(1337,479,o),
(1308,573,qs),
(1040,1462,l),
(849,1462,l),
(591,580,ls),
(565,489,o),
(513,221,q),
(468,475,o),
(444,569,qs),
(217,1462,l),
(24,1462,l),
(411,0,l)
);
}
);
width = 1904;
},
{
layerId = "74807A0F-D47B-485E-A88B-DED3F6679B72";
shapes = (
{
closed = 1;
nodes = (
(596,0,l),
(929,1237,ls),
(940,1272,o),
(962,1382,q),
(997,1249,o),
(1013,1192,qs),
(1343,0,l),
(1392,0,l),
(1798,1462,l),
(1742,1462,l),
(1427,344,ls),
(1404,264,o),
(1368,98,q),
(1327,264,o),
(1304,344,qs),
(991,1462,l),
(940,1462,l),
(634,350,ls),
(612,274,o),
(571,106,q),
(526,272,o),
(505,348,qs),
(202,1462,l),
(147,1462,l),
(546,0,l)
);
}
);
width = 1904;
}
);
note = W;
unicode = 87;
},
{
glyphname = X;
lastChange = "2024-07-08 04:22:56 +0000";
layers = (
{
layerId = m01;
shapes = (
{
closed = 1;
nodes = (
(8,1462,l),
(369,1462,l),
(1196,0,l),
(820,0,l)
);
},
{
closed = 1;
nodes = (
(377,0,l),
(1196,1462,l),
(823,1462,l),
(8,0,l)
);
}
);
width = 1200;
},
{
layerId = "A52C9687-8F69-441E-A346-B6B4B01C4528";
shapes = (
{
closed = 1;
nodes = (
(1192,0,l),
(244,1462,l),
(39,1462,l),
(983,0,l)
);
},
{
closed = 1;
nodes = (
(203,0,l),
(1157,1462,l),
(962,1462,l),
(8,0,l)
);
}
);
width = 1200;
},
{
layerId = "74807A0F-D47B-485E-A88B-DED3F6679B72";
shapes = (
{
closed = 1;
nodes = (
(158,0,l),
(1113,1462,l),
(1049,1462,l),
(95,0,l)
);
},
{
closed = 1;
nodes = (
(1099,0,l),
(159,1462,l),
(95,1462,l),
(1035,0,l)
);
}
);
width = 1200;
}
);
note = X;
unicode = 88;
},
{
glyphname = Y;
lastChange = "2024-07-08 04:22:56 +0000";
layers = (
{
layerId = m01;
shapes = (
{
closed = 1;
nodes = (
(754,0,l),
(754,571,l),
(1167,1462,l),
(800,1462,l),
(584,920,l),
(369,1462,l),
(0,1462,l),
(413,559,l),
(413,0,l)
);
}
);
width = 1159;
},
{
layerId = "A52C9687-8F69-441E-A346-B6B4B01C4528";
shapes = (
{
closed = 1;
nodes = (
(672,0,l),
(672,567,l),
(1159,1462,l),
(961,1462,l),
(580,743,l),
(201,1462,l),
(0,1462,l),
(487,559,l),
(487,0,l)
);
}
);
width = 1159;
},
{
layerId = "74807A0F-D47B-485E-A88B-DED3F6679B72";
shapes = (
{
closed = 1;
nodes = (
(607,0,l),
(607,563,l),
(1094,1462,l),
(1033,1462,l),
(578,616,l),
(121,1462,l),
(60,1462,l),
(554,555,l),
(554,0,l)
);
}
);
width = 1159;
}
);
note = Y;
unicode = 89;
},
{
glyphname = Z;
lastChange = "2024-07-08 04:22:56 +0000";
layers = (
{
layerId = m01;
shapes = (
{
closed = 1;
nodes = (
(1160,0,l),
(1160,319,l),
(510,319,l),
(1143,1219,l),
(1143,1462,l),
(35,1462,l),
(35,1143,l),
(654,1143,l),
(21,244,l),
(21,0,l)
);
}
);
width = 1171;
},
{
layerId = "A52C9687-8F69-441E-A346-B6B4B01C4528";
shapes = (
{
closed = 1;
nodes = (
(1091,0,l),
(1091,164,l),
(300,164,l),
(1070,1323,l),
(1070,1462,l),
(102,1462,l),
(102,1298,l),
(847,1298,l),
(77,139,l),
(77,0,l)
);
}
);
width = 1171;
},
{
layerId = "74807A0F-D47B-485E-A88B-DED3F6679B72";
shapes = (
{
closed = 1;
nodes = (
(1101,0,l),
(1101,51,l),
(149,51,l),
(1077,1425,l),
(1077,1462,l),
(130,1462,l),
(130,1411,l),
(1001,1411,l),
(73,37,l),
(73,0,l)
);
}
);
width = 1171;
}
);
note = Z;
unicode = 90;
},
{
glyphname = bracketleft;
lastChange = "2024-07-08 04:22:56 +0000";
layers = (
{
layerId = m01;
shapes = (
{
closed = 1;
nodes = (
(616,-344,l),
(616,-90,l),
(433,-90,l),
(433,1249,l),
(616,1249,l),
(616,1503,l),
(116,1503,l),
(116,-344,l)
);
}
);
width = 673;
},
{
layerId = "A52C9687-8F69-441E-A346-B6B4B01C4528";
shapes = (
{
closed = 1;
nodes = (
(622,-324,l),
(622,-176,l),
(339,-176,l),
(339,1315,l),
(622,1315,l),
(622,1462,l),
(163,1462,l),
(163,-324,l)
);
}
);
width = 673;
},
{
layerId = "74807A0F-D47B-485E-A88B-DED3F6679B72";
shapes = (
{
closed = 1;
nodes = (
(590,-324,l),
(590,-272,l),
(231,-272,l),
(231,1411,l),
(590,1411,l),
(590,1462,l),
(180,1462,l),
(180,-324,l)
);
}
);
width = 673;
}
);
note = bracketleft;
unicode = 91;
},
{
glyphname = backslash;
lastChange = "2024-07-08 04:22:56 +0000";
layers = (
{
layerId = m01;
shapes = (
{
closed = 1;
nodes = (
(765,-20,l),
(301,1483,l),
(6,1483,l),
(470,-20,l)
);
}
);
width = 761;
},
{
layerId = "A52C9687-8F69-441E-A346-B6B4B01C4528";
shapes = (
{
closed = 1;
nodes = (
(743,0,l),
(196,1462,l),
(20,1462,l),
(565,0,l)
);
}
);
width = 761;
},
{
layerId = "74807A0F-D47B-485E-A88B-DED3F6679B72";
shapes = (
{
closed = 1;
nodes = (
(682,0,l),
(133,1462,l),
(76,1462,l),
(625,0,l)
);
}
);
width = 761;
}
);
note = backslash;
unicode = 92;
},
{
glyphname = bracketright;
lastChange = "2024-07-08 04:22:56 +0000";
layers = (
{
layerId = m01;
shapes = (
{
closed = 1;
nodes = (
(547,-344,l),
(547,1503,l),
(47,1503,l),
(47,1249,l),
(229,1249,l),
(229,-90,l),
(47,-90,l),
(47,-344,l)
);
}
);
width = 673;
},
{
layerId = "A52C9687-8F69-441E-A346-B6B4B01C4528";
shapes = (
{
closed = 1;
nodes = (
(510,-324,l),
(510,1462,l),
(51,1462,l),
(51,1315,l),
(334,1315,l),
(334,-176,l),
(51,-176,l),
(51,-324,l)
);
}
);
width = 673;
},
{
layerId = "74807A0F-D47B-485E-A88B-DED3F6679B72";
shapes = (
{
closed = 1;
nodes = (
(461,-324,l),
(461,1462,l),
(51,1462,l),
(51,1411,l),
(409,1411,l),
(409,-272,l),
(51,-272,l),
(51,-324,l)
);
}
);
width = 673;
}
);
note = bracketright;
unicode = 93;
},
{
glyphname = asciicircum;
lastChange = "2024-07-08 04:22:56 +0000";
layers = (
{
layerId = m01;
shapes = (
{
closed = 1;
nodes = (
(321,502,l),
(569,1079,l),
(857,502,l),
(1152,502,l),
(644,1468,l),
(474,1468,l),
(34,502,l)
);
}
);
width = 1171;
},
{
layerId = "A52C9687-8F69-441E-A346-B6B4B01C4528";
shapes = (
{
closed = 1;
nodes = (
(237,547,l),
(564,1282,l),
(933,547,l),
(1093,547,l),
(614,1473,l),
(511,1473,l),
(77,547,l)
);
}
);
width = 1171;
},
{
layerId = "74807A0F-D47B-485E-A88B-DED3F6679B72";
shapes = (
{
closed = 1;
nodes = (
(163,569,l),
(608,1405,l),
(1024,569,l),
(1083,569,l),
(634,1473,l),
(587,1473,l),
(104,569,l)
);
}
);
width = 1171;
}
);
note = asciicircum;
unicode = 94;
},
{
glyphname = underscore;
lastChange = "2024-07-08 04:22:56 +0000";
layers = (
{
layerId = m01;
shapes = (
{
closed = 1;
nodes = (
(908,-379,l),
(908,-133,l),
(-4,-133,l),
(-4,-379,l)
);
}
);
width = 909;
},
{
layerId = "A52C9687-8F69-441E-A346-B6B4B01C4528";
shapes = (
{
closed = 1;
nodes = (
(914,-315,l),
(914,-184,l),
(-4,-184,l),
(-4,-315,l)
);
}
);
userData = {
assembly = "PUSHB[ ]	/* 2 values pushed */
6 100
WCVTP[ ]	/* WriteCVTInPixels */
NPUSHB[ ]	/* 21 values pushed */
0 0 1 1 0 87 0 0 0 1 95 0 1 0 1 79 17 16 2 8 24
CALL[ ]	/* CallFunction */
PUSHB[ ]	/* 2 values pushed */
6 0
WCVTP[ ]	/* WriteCVTInPixels */";
};
width = 909;
},
{
layerId = "74807A0F-D47B-485E-A88B-DED3F6679B72";
shapes = (
{
closed = 1;
nodes = (
(865,-238,l),
(865,-186,l),
(56,-186,l),
(56,-238,l)
);
}
);
width = 909;
}
);
note = underscore;
unicode = 95;
},
{
glyphname = grave;
lastChange = "2024-07-08 04:22:56 +0000";
layers = (
{
layerId = m01;
shapes = (
{
closed = 1;
nodes = (
(570,1241,l),
(570,1270,l),
(544,1307,o),
(466,1413,o),
(390,1524,o),
(362,1569,q),
(21,1569,l),
(21,1548,l),
(50,1520,o),
(331,1268,o),
(364,1241,q)
);
}
);
width = 575;
},
{
layerId = "A52C9687-8F69-441E-A346-B6B4B01C4528";
shapes = (
{
closed = 1;
nodes = (
(493,1241,l),
(493,1266,l),
(462,1303,o),
(386,1411,o),
(319,1524,o),
(296,1569,q),
(81,1569,l),
(81,1548,l),
(106,1511,o),
(325,1278,o),
(372,1241,q)
);
}
);
width = 575;
},
{
layerId = "74807A0F-D47B-485E-A88B-DED3F6679B72";
shapes = (
{
closed = 1;
nodes = (
(467,1241,l),
(467,1253,l),
(420,1294,o),
(311,1409,o),
(211,1524,o),
(182,1569,q),
(121,1569,l),
(121,1554,l),
(174,1485,o),
(342,1309,o),
(424,1241,q)
);
}
);
width = 575;
}
);
note = grave;
unicode = 96;
},
{
glyphname = a;
lastChange = "2024-07-08 04:45:17 +0000";
layers = (
{
layerId = m01;
shapes = (
{
closed = 1;
nodes = (
(270,793,l),
(458,877,o),
(586,877,qs),
(725,877,o),
(725,743,qs),
(725,721,l),
(535,711,ls),
(43,681,o),
(43,346,qs),
(43,-20,o),
(387,-20,qs),
(687,-20,o),
(848,357,q),
(745,429,l),
(669,256,o),
(553,256,qs),
(440,256,o),
(440,369,qs),
(440,490,o),
(635,502,qs),
(725,506,l),
(725,233,l),
(844,0,l),
(1114,0,l),
(1114,743,ls),
(1114,1153,o),
(657,1153,qs),
(384,1153,o),
(158,1051,q)
);
}
);
width = 1148;
},
{
layerId = "A52C9687-8F69-441E-A346-B6B4B01C4528";
shapes = (
{
closed = 1;
nodes = (
(270,887,l),
(453,971,o),
(579,971,qs),
(807,971,o),
(807,748,qs),
(807,662,l),
(620,653,ls),
(94,622,o),
(94,305,qs),
(94,-20,o),
(440,-20,qs),
(728,-20,o),
(898,363,q),
(828,401,l),
(707,125,o),
(481,125,qs),
(280,125,o),
(280,303,qs),
(280,508,o),
(643,529,qs),
(807,537,l),
(807,206,l),
(852,0,l),
(983,0,l),
(983,748,ls),
(983,1116,o),
(590,1116,qs),
(423,1116,o),
(215,1022,q)
);
}
);
width = 1148;
},
{
layerId = "74807A0F-D47B-485E-A88B-DED3F6679B72";
shapes = (
{
closed = 1;
nodes = (
(277,967,l),
(462,1049,o),
(600,1049,qs),
(883,1049,o),
(883,717,qs),
(883,614,l),
(672,602,ls),
(158,572,o),
(158,264,qs),
(158,-20,o),
(486,-20,qs),
(775,-20,o),
(930,331,q),
(892,354,l),
(748,31,o),
(486,31,qs),
(215,31,o),
(215,264,qs),
(215,526,o),
(676,553,qs),
(883,563,l),
(883,251,l),
(891,0,l),
(936,0,l),
(936,717,ls),
(936,1100,o),
(600,1100,qs),
(435,1100,o),
(258,1020,q)
);
}
);
width = 1148;
}
);
note = a;
unicode = 97;
},
{
glyphname = b;
lastChange = "2024-07-08 04:22:56 +0000";
layers = (
{
layerId = m01;
shapes = (
{
closed = 1;
nodes = (
(1209,-20,o),
(1209,567,qs),
(1209,1153,o),
(795,1153,qs),
(526,1153,o),
(300,736,q),
(453,625,l),
(562,838,o),
(668,838,qs),
(811,838,o),
(811,567,qs),
(811,295,o),
(668,295,qs),
(562,295,o),
(453,508,q),
(300,397,l),
(526,-20,o),
(795,-20,qs)
);
},
{
closed = 1;
nodes = (
(420,0,l),
(506,154,l),
(506,1556,l),
(115,1556,l),
(115,0,l)
);
}
);
width = 1259;
},
{
layerId = "A52C9687-8F69-441E-A346-B6B4B01C4528";
shapes = (
{
closed = 1;
nodes = (
(1147,-20,o),
(1147,549,qs),
(1147,1118,o),
(714,1118,qs),
(460,1118,o),
(238,772,q),
(331,708,l),
(503,969,o),
(688,969,qs),
(960,969,o),
(960,549,qs),
(960,129,o),
(688,129,qs),
(503,129,o),
(331,390,q),
(238,326,l),
(460,-20,o),
(714,-20,qs)
);
},
{
closed = 1;
nodes = (
(303,0,l),
(354,189,l),
(354,1556,l),
(174,1556,l),
(174,0,l)
);
}
);
width = 1259;
},
{
layerId = "74807A0F-D47B-485E-A88B-DED3F6679B72";
shapes = (
{
closed = 1;
nodes = (
(1103,-20,o),
(1103,542,qs),
(1103,1104,o),
(644,1104,qs),
(404,1104,o),
(215,808,q),
(255,777,l),
(440,1053,o),
(644,1053,qs),
(1048,1053,o),
(1048,542,qs),
(1048,31,o),
(644,31,qs),
(440,31,o),
(255,307,q),
(215,276,l),
(404,-20,o),
(644,-20,qs)
);
},
{
closed = 1;
nodes = (
(257,0,l),
(265,213,l),
(265,1556,l),
(212,1556,l),
(212,0,l)
);
}
);
width = 1259;
}
);
note = b;
unicode = 98;
},
{
glyphname = c;
lastChange = "2024-07-08 04:22:56 +0000";
layers = (
{
layerId = m01;
shapes = (
{
closed = 1;
nodes = (
(715,-20,o),
(944,80,q),
(944,391,l),
(719,291,o),
(632,291,qs),
(442,291,o),
(442,563,qs),
(442,846,o),
(630,846,qs),
(720,846,o),
(872,778,q),
(981,1067,l),
(789,1153,o),
(630,1153,qs),
(66,1153,o),
(66,561,qs),
(66,-20,o),
(601,-20,qs)
);
}
);
width = 983;
},
{
layerId = "A52C9687-8F69-441E-A346-B6B4B01C4528";
shapes = (
{
closed = 1;
nodes = (
(758,-20,o),
(896,39,q),
(896,199,l),
(742,135,o),
(612,135,qs),
(298,135,o),
(298,545,qs),
(298,961,o),
(622,961,qs),
(739,961,o),
(860,909,q),
(915,1059,l),
(777,1118,o),
(626,1118,qs),
(112,1118,o),
(112,543,qs),
(112,-20,o),
(614,-20,qs)
);
}
);
width = 983;
},
{
layerId = "74807A0F-D47B-485E-A88B-DED3F6679B72";
shapes = (
{
closed = 1;
nodes = (
(769,-20,o),
(896,33,q),
(896,84,l),
(769,31,o),
(618,31,qs),
(175,31,o),
(175,535,qs),
(175,1051,o),
(652,1051,qs),
(775,1051,o),
(894,1001,q),
(904,1053,l),
(787,1102,o),
(652,1102,qs),
(120,1102,o),
(120,535,qs),
(120,-20,o),
(618,-20,qs)
);
}
);
width = 983;
}
);
note = c;
unicode = 99;
},
{
glyphname = d;
lastChange = "2024-07-08 04:22:56 +0000";
layers = (
{
layerId = m01;
shapes = (
{
closed = 1;
nodes = (
(761,-20,o),
(987,397,q),
(834,508,l),
(725,295,o),
(619,295,qs),
(476,295,o),
(476,567,qs),
(476,838,o),
(619,838,qs),
(725,838,o),
(834,625,q),
(987,736,l),
(761,1153,o),
(492,1153,qs),
(78,1153,o),
(78,567,qs),
(78,-20,o),
(492,-20,qs)
);
},
{
closed = 1;
nodes = (
(1172,0,l),
(1172,1556,l),
(781,1556,l),
(781,154,l),
(867,0,l)
);
}
);
width = 1259;
},
{
layerId = "A52C9687-8F69-441E-A346-B6B4B01C4528";
shapes = (
{
closed = 1;
nodes = (
(799,-20,o),
(1021,326,q),
(928,390,l),
(756,129,o),
(571,129,qs),
(299,129,o),
(299,549,qs),
(299,969,o),
(571,969,qs),
(756,969,o),
(928,708,q),
(1021,772,l),
(799,1118,o),
(545,1118,qs),
(112,1118,o),
(112,549,qs),
(112,-20,o),
(545,-20,qs)
);
},
{
closed = 1;
nodes = (
(1085,0,l),
(1085,1556,l),
(905,1556,l),
(905,189,l),
(956,0,l)
);
}
);
width = 1259;
},
{
layerId = "74807A0F-D47B-485E-A88B-DED3F6679B72";
shapes = (
{
closed = 1;
nodes = (
(899,-20,o),
(1088,276,q),
(1048,307,l),
(863,31,o),
(659,31,qs),
(255,31,o),
(255,542,qs),
(255,1053,o),
(659,1053,qs),
(863,1053,o),
(1048,777,q),
(1088,808,l),
(899,1104,o),
(659,1104,qs),
(200,1104,o),
(200,542,qs),
(200,-20,o),
(659,-20,qs)
);
},
{
closed = 1;
nodes = (
(1091,0,l),
(1091,1556,l),
(1038,1556,l),
(1038,213,l),
(1046,0,l)
);
}
);
width = 1259;
}
);
note = d;
unicode = 100;
},
{
glyphname = e;
lastChange = "2024-07-08 04:22:56 +0000";
layers = (
{
layerId = m01;
shapes = (
{
closed = 1;
nodes = (
(871,-20,o),
(1052,63,q),
(1052,344,l),
(867,258,o),
(687,258,qs),
(448,258,o),
(448,573,qs),
(448,887,o),
(613,887,qs),
(778,887,o),
(780,707,q),
(288,707,l),
(288,461,l),
(1123,461,l),
(1123,635,ls),
(1123,1153,o),
(606,1153,qs),
(66,1153,o),
(66,567,qs),
(66,-20,o),
(642,-20,qs)
);
}
);
width = 1155;
},
{
layerId = "A52C9687-8F69-441E-A346-B6B4B01C4528";
shapes = (
{
closed = 1;
nodes = (
(845,-20,o),
(1001,51,q),
(1001,209,l),
(833,133,o),
(649,133,qs),
(300,133,o),
(300,552,qs),
(300,971,o),
(579,971,qs),
(860,971,o),
(862,657,q),
(223,657,l),
(223,514,l),
(1050,514,l),
(1050,623,ls),
(1050,1118,o),
(581,1118,qs),
(112,1118,o),
(112,549,qs),
(112,-20,o),
(640,-20,qs)
);
}
);
width = 1155;
},
{
layerId = "74807A0F-D47B-485E-A88B-DED3F6679B72";
shapes = (
{
closed = 1;
nodes = (
(830,-20,o),
(979,47,q),
(979,102,l),
(820,31,o),
(645,31,qs),
(215,31,o),
(215,541,qs),
(215,1051,o),
(590,1051,qs),
(965,1051,o),
(965,596,q),
(191,596,l),
(191,545,l),
(1020,545,l),
(1020,596,ls),
(1020,1102,o),
(590,1102,qs),
(160,1102,o),
(160,541,qs),
(160,-20,o),
(645,-20,qs)
);
}
);
width = 1155;
}
);
note = e;
unicode = 101;
},
{
glyphname = f;
lastChange = "2024-07-08 04:22:56 +0000";
layers = (
{
layerId = m01;
shapes = (
{
closed = 1;
nodes = (
(496,0,l),
(496,840,l),
(698,840,l),
(698,1133,l),
(496,1133,l),
(496,1163,ls),
(496,1280,o),
(568,1280,qs),
(619,1280,o),
(686,1260,q),
(756,1513,l),
(588,1567,o),
(498,1567,qs),
(177,1567,o),
(177,1147,qs),
(177,1128,l),
(45,1032,l),
(45,840,l),
(170,840,l),
(170,0,l)
);
}
);
width = 704;
},
{
layerId = "A52C9687-8F69-441E-A346-B6B4B01C4528";
shapes = (
{
closed = 1;
nodes = (
(403,0,l),
(403,958,l),
(679,958,l),
(679,1098,l),
(403,1098,l),
(403,1169,ls),
(403,1419,o),
(581,1419,qs),
(633,1419,o),
(745,1389,q),
(792,1530,l),
(647,1567,o),
(579,1567,qs),
(223,1567,o),
(223,1167,qs),
(223,1104,l),
(30,1042,l),
(30,958,l),
(223,958,l),
(223,0,l)
);
}
);
width = 704;
},
{
layerId = "74807A0F-D47B-485E-A88B-DED3F6679B72";
shapes = (
{
closed = 1;
nodes = (
(324,0,l),
(324,1030,l),
(568,1030,l),
(568,1081,l),
(324,1081,l),
(324,1235,ls),
(324,1516,o),
(566,1516,qs),
(623,1516,o),
(726,1489,q),
(734,1542,l),
(637,1567,o),
(566,1567,qs),
(271,1567,o),
(271,1235,qs),
(271,1081,l),
(62,1075,l),
(62,1030,l),
(271,1030,l),
(271,0,l)
);
}
);
width = 704;
}
);
note = f;
unicode = 102;
},
{
glyphname = g;
lastChange = "2024-07-08 04:22:56 +0000";
layers = (
{
layerId = m01;
shapes = (
{
closed = 1;
nodes = (
(1182,-492,o),
(1182,-2,qs),
(1182,1133,l),
(844,1133,l),
(791,891,l),
(791,2,ls),
(791,-186,o),
(555,-186,qs),
(352,-186,o),
(135,-100,q),
(135,-426,l),
(299,-492,o),
(578,-492,qs)
);
},
{
closed = 1;
nodes = (
(771,-20,o),
(997,397,q),
(844,508,l),
(735,295,o),
(629,295,qs),
(486,295,o),
(486,567,qs),
(486,838,o),
(629,838,qs),
(735,838,o),
(844,625,q),
(997,736,l),
(771,1153,o),
(502,1153,qs),
(88,1153,o),
(88,567,qs),
(88,-20,o),
(502,-20,qs)
);
}
);
width = 1259;
},
{
layerId = "A52C9687-8F69-441E-A346-B6B4B01C4528";
shapes = (
{
closed = 1;
nodes = (
(1085,-492,o),
(1085,-18,qs),
(1085,1098,l),
(941,1098,l),
(907,891,l),
(907,-18,ls),
(907,-342,o),
(604,-342,qs),
(410,-342,o),
(198,-256,q),
(198,-422,l),
(366,-492,o),
(593,-492,qs)
);
},
{
closed = 1;
nodes = (
(799,-20,o),
(1021,326,q),
(928,390,l),
(756,129,o),
(571,129,qs),
(299,129,o),
(299,549,qs),
(299,969,o),
(571,969,qs),
(756,969,o),
(928,708,q),
(1021,772,l),
(799,1118,o),
(545,1118,qs),
(112,1118,o),
(112,549,qs),
(112,-20,o),
(545,-20,qs)
);
}
);
width = 1259;
},
{
layerId = "74807A0F-D47B-485E-A88B-DED3F6679B72";
shapes = (
{
closed = 1;
nodes = (
(1087,-492,o),
(1087,-51,qs),
(1087,1081,l),
(1042,1081,l),
(1034,895,l),
(1034,-51,ls),
(1034,-440,o),
(638,-440,qs),
(468,-440,o),
(257,-354,q),
(257,-416,l),
(443,-492,o),
(638,-492,qs)
);
},
{
closed = 1;
nodes = (
(899,-20,o),
(1085,276,q),
(1048,307,l),
(863,31,o),
(659,31,qs),
(255,31,o),
(255,542,qs),
(255,1053,o),
(659,1053,qs),
(863,1053,o),
(1048,777,q),
(1085,808,l),
(899,1104,o),
(659,1104,qs),
(200,1104,o),
(200,542,qs),
(200,-20,o),
(659,-20,qs)
);
}
);
width = 1259;
}
);
note = g;
unicode = 103;
},
{
glyphname = h;
lastChange = "2024-07-08 04:22:56 +0000";
layers = (
{
layerId = m01;
shapes = (
{
closed = 1;
nodes = (
(1201,0,l),
(1201,737,ls),
(1201,1153,o),
(820,1153,qs),
(570,1153,o),
(322,681,q),
(453,613,l),
(572,846,o),
(673,846,qs),
(808,846,o),
(808,618,qs),
(808,0,l)
);
},
{
closed = 1;
nodes = (
(486,0,l),
(486,1556,l),
(95,1556,l),
(95,0,l)
);
}
);
width = 1265;
},
{
layerId = "A52C9687-8F69-441E-A346-B6B4B01C4528";
shapes = (
{
closed = 1;
nodes = (
(1100,0,l),
(1100,715,ls),
(1100,1116,o),
(708,1116,qs),
(442,1116,o),
(246,743,q),
(336,705,l),
(476,967,o),
(676,967,qs),
(922,967,o),
(922,702,qs),
(922,0,l)
);
},
{
closed = 1;
nodes = (
(354,0,l),
(354,1556,l),
(174,1556,l),
(174,0,l)
);
}
);
width = 1265;
},
{
layerId = "74807A0F-D47B-485E-A88B-DED3F6679B72";
shapes = (
{
closed = 1;
nodes = (
(1061,0,l),
(1061,709,ls),
(1061,1102,o),
(693,1102,qs),
(424,1102,o),
(249,766,q),
(292,740,l),
(456,1051,o),
(693,1051,qs),
(1008,1051,o),
(1008,707,qs),
(1008,0,l)
);
},
{
closed = 1;
nodes = (
(297,0,l),
(297,1556,l),
(244,1556,l),
(244,0,l)
);
}
);
width = 1265;
}
);
note = h;
unicode = 104;
},
{
glyphname = i;
lastChange = "2024-07-08 04:22:56 +0000";
layers = (
{
layerId = m01;
shapes = (
{
closed = 1;
nodes = (
(457,0,l),
(457,1133,l),
(66,1133,l),
(66,0,l)
);
},
{
closed = 1;
nodes = (
(347,1243,o),
(472,1315,o),
(472,1415,qs),
(472,1520,o),
(347,1589,o),
(263,1589,qs),
(177,1589,o),
(56,1520,o),
(56,1415,qs),
(56,1315,o),
(177,1243,o),
(263,1243,qs)
);
}
);
width = 528;
},
{
layerId = "A52C9687-8F69-441E-A346-B6B4B01C4528";
shapes = (
{
closed = 1;
nodes = (
(354,0,l),
(354,1098,l),
(173,1098,l),
(173,0,l)
);
},
{
closed = 1;
nodes = (
(306,1280,o),
(370,1335,o),
(370,1395,qs),
(370,1454,o),
(306,1509,o),
(265,1509,qs),
(220,1509,o),
(159,1454,o),
(159,1395,qs),
(159,1335,o),
(220,1280,o),
(265,1280,qs)
);
}
);
width = 528;
},
{
layerId = "74807A0F-D47B-485E-A88B-DED3F6679B72";
shapes = (
{
closed = 1;
nodes = (
(277,0,l),
(277,1081,l),
(224,1081,l),
(224,0,l)
);
},
{
closed = 1;
nodes = (
(287,1350,o),
(305,1386,o),
(305,1413,qs),
(305,1438,o),
(287,1477,o),
(250,1477,qs),
(219,1477,o),
(199,1438,o),
(199,1413,qs),
(199,1386,o),
(219,1350,o),
(250,1350,qs)
);
}
);
width = 528;
}
);
note = i;
unicode = 105;
},
{
glyphname = j;
lastChange = "2024-07-08 04:22:56 +0000";
layers = (
{
layerId = m01;
shapes = (
{
closed = 1;
nodes = (
(467,-492,o),
(467,-92,qs),
(467,1133,l),
(76,1133,l),
(76,-10,ls),
(76,-180,o),
(-43,-180,qs),
(-96,-180,o),
(-164,-162,q),
(-164,-467,l),
(-70,-492,o),
(47,-492,qs)
);
},
{
closed = 1;
nodes = (
(356,1243,o),
(481,1315,o),
(481,1415,qs),
(481,1520,o),
(356,1589,o),
(272,1589,qs),
(186,1589,o),
(65,1520,o),
(65,1415,qs),
(65,1315,o),
(186,1243,o),
(272,1243,qs)
);
}
);
width = 528;
},
{
layerId = "A52C9687-8F69-441E-A346-B6B4B01C4528";
shapes = (
{
closed = 1;
nodes = (
(355,-492,o),
(355,-164,qs),
(355,1098,l),
(175,1098,l),
(175,-170,ls),
(175,-342,o),
(23,-342,qs),
(-36,-342,o),
(-112,-322,q),
(-112,-467,l),
(-18,-492,o),
(46,-492,qs)
);
},
{
closed = 1;
nodes = (
(308,1280,o),
(371,1335,o),
(371,1395,qs),
(371,1454,o),
(308,1509,o),
(267,1509,qs),
(222,1509,o),
(160,1454,o),
(160,1395,qs),
(160,1335,o),
(222,1280,o),
(267,1280,qs)
);
}
);
width = 528;
},
{
layerId = "74807A0F-D47B-485E-A88B-DED3F6679B72";
shapes = (
{
closed = 1;
nodes = (
(298,-492,o),
(298,-246,qs),
(298,1081,l),
(245,1081,l),
(245,-238,ls),
(245,-440,o),
(83,-440,qs),
(42,-440,o),
(-42,-418,q),
(-42,-471,l),
(40,-492,o),
(83,-492,qs)
);
},
{
closed = 1;
nodes = (
(308,1350,o),
(327,1386,o),
(327,1413,qs),
(327,1438,o),
(308,1477,o),
(271,1477,qs),
(241,1477,o),
(220,1438,o),
(220,1413,qs),
(220,1386,o),
(241,1350,o),
(271,1350,qs)
);
}
);
width = 528;
}
);
note = j;
unicode = 106;
},
{
glyphname = k;
lastChange = "2024-07-08 04:22:56 +0000";
layers = (
{
layerId = m01;
shapes = (
{
closed = 1;
nodes = (
(405,0,l),
(405,309,l),
(514,406,l),
(729,0,l),
(1114,0,l),
(754,651,l),
(1093,1133,l),
(717,1133,l),
(405,657,l),
(405,1556,l),
(65,1556,l),
(65,0,l)
);
}
);
width = 1112;
},
{
layerId = "A52C9687-8F69-441E-A346-B6B4B01C4528";
shapes = (
{
closed = 1;
nodes = (
(352,0,l),
(352,403,l),
(477,512,l),
(858,0,l),
(1075,0,l),
(600,629,l),
(1044,1098,l),
(833,1098,l),
(352,565,l),
(352,1556,l),
(174,1556,l),
(174,0,l)
);
}
);
width = 1112;
},
{
layerId = "74807A0F-D47B-485E-A88B-DED3F6679B72";
shapes = (
{
closed = 1;
nodes = (
(297,0,l),
(297,352,l),
(502,580,l),
(936,0,l),
(1000,0,l),
(539,616,l),
(959,1081,l),
(889,1081,l),
(297,418,l),
(297,1556,l),
(244,1556,l),
(244,0,l)
);
}
);
width = 1112;
}
);
note = k;
unicode = 107;
},
{
glyphname = l;
lastChange = "2024-07-08 04:22:56 +0000";
layers = (
{
layerId = m01;
shapes = (
{
closed = 1;
nodes = (
(466,0,l),
(466,1556,l),
(75,1556,l),
(75,0,l)
);
}
);
width = 528;
},
{
layerId = "A52C9687-8F69-441E-A346-B6B4B01C4528";
shapes = (
{
closed = 1;
nodes = (
(354,0,l),
(354,1556,l),
(174,1556,l),
(174,0,l)
);
}
);
width = 528;
},
{
layerId = "74807A0F-D47B-485E-A88B-DED3F6679B72";
shapes = (
{
closed = 1;
nodes = (
(299,0,l),
(299,1556,l),
(246,1556,l),
(246,0,l)
);
}
);
width = 528;
}
);
note = l;
unicode = 108;
},
{
glyphname = m;
lastChange = "2024-07-08 04:22:56 +0000";
layers = (
{
layerId = m01;
shapes = (
{
closed = 1;
nodes = (
(1857,0,l),
(1857,737,ls),
(1857,1153,o),
(1476,1153,qs),
(1226,1153,o),
(978,681,q),
(1109,613,l),
(1228,846,o),
(1329,846,qs),
(1464,846,o),
(1464,618,qs),
(1464,0,l)
);
},
{
closed = 1;
nodes = (
(466,0,l),
(466,953,l),
(370,1133,l),
(75,1133,l),
(75,0,l)
);
},
{
closed = 1;
nodes = (
(1160,0,l),
(1160,737,ls),
(1160,1153,o),
(779,1153,qs),
(529,1153,o),
(281,681,q),
(412,613,l),
(531,846,o),
(632,846,qs),
(767,846,o),
(767,618,qs),
(767,0,l)
);
}
);
width = 1914;
},
{
layerId = "A52C9687-8F69-441E-A346-B6B4B01C4528";
shapes = (
{
closed = 1;
nodes = (
(1749,0,l),
(1749,715,ls),
(1749,1116,o),
(1357,1116,qs),
(1091,1116,o),
(895,743,q),
(985,705,l),
(1125,967,o),
(1325,967,qs),
(1571,967,o),
(1571,702,qs),
(1571,0,l)
);
},
{
closed = 1;
nodes = (
(354,0,l),
(354,948,l),
(319,1098,l),
(174,1098,l),
(174,0,l)
);
},
{
closed = 1;
nodes = (
(1051,0,l),
(1051,715,ls),
(1051,1116,o),
(659,1116,qs),
(393,1116,o),
(197,743,q),
(287,705,l),
(427,967,o),
(627,967,qs),
(873,967,o),
(873,702,qs),
(873,0,l)
);
}
);
width = 1914;
},
{
layerId = "74807A0F-D47B-485E-A88B-DED3F6679B72";
shapes = (
{
closed = 1;
nodes = (
(1657,0,l),
(1657,709,ls),
(1657,1102,o),
(1319,1102,qs),
(1070,1102,o),
(945,766,q),
(978,750,l),
(1092,1051,o),
(1319,1051,qs),
(1604,1051,o),
(1604,707,qs),
(1604,0,l)
);
},
{
closed = 1;
nodes = (
(317,0,l),
(319,885,l),
(307,1081,l),
(264,1081,l),
(264,0,l)
);
},
{
closed = 1;
nodes = (
(987,0,l),
(987,709,ls),
(987,1102,o),
(649,1102,qs),
(400,1102,o),
(275,766,q),
(308,750,l),
(422,1051,o),
(649,1051,qs),
(934,1051,o),
(934,707,qs),
(934,0,l)
);
}
);
width = 1914;
}
);
note = m;
unicode = 109;
},
{
glyphname = n;
lastChange = "2024-07-08 04:22:56 +0000";
layers = (
{
layerId = m01;
shapes = (
{
closed = 1;
nodes = (
(1201,0,l),
(1201,737,ls),
(1201,1153,o),
(820,1153,qs),
(570,1153,o),
(322,681,q),
(453,613,l),
(572,846,o),
(673,846,qs),
(808,846,o),
(808,618,qs),
(808,0,l)
);
},
{
closed = 1;
nodes = (
(486,0,l),
(486,953,l),
(390,1133,l),
(95,1133,l),
(95,0,l)
);
}
);
width = 1265;
},
{
layerId = "A52C9687-8F69-441E-A346-B6B4B01C4528";
shapes = (
{
closed = 1;
nodes = (
(1100,0,l),
(1100,715,ls),
(1100,1116,o),
(708,1116,qs),
(442,1116,o),
(246,743,q),
(336,705,l),
(476,967,o),
(676,967,qs),
(922,967,o),
(922,702,qs),
(922,0,l)
);
},
{
closed = 1;
nodes = (
(354,0,l),
(354,918,l),
(319,1098,l),
(174,1098,l),
(174,0,l)
);
}
);
width = 1265;
},
{
layerId = "74807A0F-D47B-485E-A88B-DED3F6679B72";
shapes = (
{
closed = 1;
nodes = (
(1051,0,l),
(1051,709,ls),
(1051,1102,o),
(683,1102,qs),
(414,1102,o),
(239,766,q),
(282,740,l),
(446,1051,o),
(683,1051,qs),
(998,1051,o),
(998,707,qs),
(998,0,l)
);
},
{
closed = 1;
nodes = (
(287,0,l),
(287,854,l),
(277,1081,l),
(234,1081,l),
(234,0,l)
);
}
);
width = 1265;
}
);
note = n;
unicode = 110;
},
{
glyphname = o;
lastChange = "2024-07-08 04:22:56 +0000";
layers = (
{
layerId = m01;
shapes = (
{
closed = 1;
nodes = (
(1186,-20,o),
(1186,567,qs),
(1186,1153,o),
(621,1153,qs),
(56,1153,o),
(56,567,qs),
(56,-20,o),
(621,-20,qs)
);
},
{
closed = 1;
nodes = (
(453,270,o),
(453,566,qs),
(453,862,o),
(621,862,qs),
(789,862,o),
(789,566,qs),
(789,270,o),
(621,270,qs)
);
}
);
width = 1239;
},
{
layerId = "A52C9687-8F69-441E-A346-B6B4B01C4528";
shapes = (
{
closed = 1;
nodes = (
(1128,-20,o),
(1128,549,qs),
(1128,1118,o),
(620,1118,qs),
(112,1118,o),
(112,549,qs),
(112,-20,o),
(620,-20,qs)
);
},
{
closed = 1;
nodes = (
(298,129,o),
(298,548,qs),
(298,967,o),
(620,967,qs),
(941,967,o),
(941,548,qs),
(941,129,o),
(620,129,qs)
);
}
);
width = 1239;
},
{
layerId = "74807A0F-D47B-485E-A88B-DED3F6679B72";
shapes = (
{
closed = 1;
nodes = (
(1074,-20,o),
(1074,541,qs),
(1074,1102,o),
(607,1102,qs),
(140,1102,o),
(140,541,qs),
(140,-20,o),
(607,-20,qs)
);
},
{
closed = 1;
nodes = (
(195,31,o),
(195,541,qs),
(195,1051,o),
(607,1051,qs),
(1019,1051,o),
(1019,541,qs),
(1019,31,o),
(607,31,qs)
);
}
);
width = 1239;
}
);
note = o;
unicode = 111;
},
{
glyphname = p;
lastChange = "2024-07-08 04:22:56 +0000";
layers = (
{
layerId = m01;
shapes = (
{
closed = 1;
nodes = (
(1202,-20,o),
(1202,566,qs),
(1202,1153,o),
(788,1153,qs),
(519,1153,o),
(293,736,q),
(446,625,l),
(555,838,o),
(661,838,qs),
(804,838,o),
(804,566,qs),
(804,295,o),
(661,295,qs),
(555,295,o),
(446,508,q),
(293,397,l),
(519,-20,o),
(788,-20,qs)
);
},
{
closed = 1;
nodes = (
(499,-423,l),
(499,979,l),
(413,1133,l),
(108,1133,l),
(108,-423,l)
);
}
);
width = 1259;
},
{
layerId = "A52C9687-8F69-441E-A346-B6B4B01C4528";
shapes = (
{
closed = 1;
nodes = (
(1145,-20,o),
(1145,549,qs),
(1145,1118,o),
(712,1118,qs),
(458,1118,o),
(236,772,q),
(329,708,l),
(501,969,o),
(686,969,qs),
(958,969,o),
(958,549,qs),
(958,129,o),
(686,129,qs),
(501,129,o),
(329,390,q),
(236,326,l),
(458,-20,o),
(712,-20,qs)
);
},
{
closed = 1;
nodes = (
(352,-458,l),
(352,909,l),
(301,1098,l),
(172,1098,l),
(172,-458,l)
);
}
);
width = 1259;
},
{
layerId = "74807A0F-D47B-485E-A88B-DED3F6679B72";
shapes = (
{
closed = 1;
nodes = (
(1111,-22,o),
(1111,540,qs),
(1111,1102,o),
(652,1102,qs),
(412,1102,o),
(223,806,q),
(263,775,l),
(448,1051,o),
(652,1051,qs),
(1056,1051,o),
(1056,540,qs),
(1056,29,o),
(652,29,qs),
(448,29,o),
(263,305,q),
(223,274,l),
(412,-22,o),
(652,-22,qs)
);
},
{
closed = 1;
nodes = (
(273,-474,l),
(273,869,l),
(265,1082,l),
(220,1082,l),
(220,-474,l)
);
}
);
width = 1259;
}
);
note = p;
unicode = 112;
},
{
glyphname = q;
lastChange = "2024-07-08 04:22:56 +0000";
layers = (
{
layerId = m01;
shapes = (
{
closed = 1;
nodes = (
(761,-20,o),
(987,397,q),
(834,508,l),
(725,295,o),
(619,295,qs),
(476,295,o),
(476,566,qs),
(476,838,o),
(619,838,qs),
(725,838,o),
(834,625,q),
(987,736,l),
(761,1153,o),
(492,1153,qs),
(78,1153,o),
(78,566,qs),
(78,-20,o),
(492,-20,qs)
);
},
{
closed = 1;
nodes = (
(1172,-423,l),
(1172,1133,l),
(867,1133,l),
(781,979,l),
(781,-423,l)
);
}
);
width = 1259;
},
{
layerId = "A52C9687-8F69-441E-A346-B6B4B01C4528";
shapes = (
{
closed = 1;
nodes = (
(799,-20,o),
(1021,326,q),
(928,390,l),
(756,129,o),
(571,129,qs),
(299,129,o),
(299,549,qs),
(299,969,o),
(571,969,qs),
(756,969,o),
(928,708,q),
(1021,772,l),
(799,1118,o),
(545,1118,qs),
(112,1118,o),
(112,549,qs),
(112,-20,o),
(545,-20,qs)
);
},
{
closed = 1;
nodes = (
(1085,-458,l),
(1085,1098,l),
(956,1098,l),
(905,909,l),
(905,-458,l)
);
}
);
width = 1259;
},
{
layerId = "74807A0F-D47B-485E-A88B-DED3F6679B72";
shapes = (
{
closed = 1;
nodes = (
(889,-22,o),
(1078,274,q),
(1038,305,l),
(853,29,o),
(649,29,qs),
(245,29,o),
(245,540,qs),
(245,1051,o),
(649,1051,qs),
(853,1051,o),
(1038,775,q),
(1078,806,l),
(889,1102,o),
(649,1102,qs),
(190,1102,o),
(190,540,qs),
(190,-22,o),
(649,-22,qs)
);
},
{
closed = 1;
nodes = (
(1081,-474,l),
(1081,1082,l),
(1036,1082,l),
(1028,869,l),
(1028,-474,l)
);
}
);
width = 1259;
}
);
note = q;
unicode = 113;
},
{
glyphname = r;
lastChange = "2024-07-08 04:24:06 +0000";
layers = (
{
layerId = m01;
shapes = (
{
closed = 1;
nodes = (
(531,784,o),
(678,784,qs),
(756,784,o),
(802,771,q),
(835,1137,l),
(782,1153,o),
(724,1153,qs),
(529,1153,o),
(297,681,q),
(419,613,l)
);
},
{
closed = 1;
nodes = (
(450,0,l),
(450,953,l),
(361,1133,l),
(85,1133,l),
(85,0,l)
);
}
);
width = 845;
},
{
layerId = "A52C9687-8F69-441E-A346-B6B4B01C4528";
shapes = (
{
closed = 1;
nodes = (
(476,954,o),
(674,954,qs),
(740,954,o),
(792,940,q),
(815,1106,l),
(768,1118,o),
(686,1118,qs),
(442,1118,o),
(246,745,q),
(336,707,l)
);
},
{
closed = 1;
nodes = (
(354,0,l),
(354,918,l),
(319,1098,l),
(174,1098,l),
(174,0,l)
);
}
);
width = 845;
},
{
layerId = "74807A0F-D47B-485E-A88B-DED3F6679B72";
shapes = (
{
closed = 1;
nodes = (
(386,1047,o),
(579,1047,qs),
(654,1047,o),
(733,1026,q),
(745,1075,l),
(660,1098,o),
(579,1098,qs),
(354,1098,o),
(209,762,q),
(242,736,l)
);
},
{
closed = 1;
nodes = (
(247,0,l),
(247,854,l),
(237,1081,l),
(194,1081,l),
(194,0,l)
);
}
);
width = 845;
}
);
note = r;
unicode = 114;
},
{
glyphname = s;
lastChange = "2024-07-08 04:22:56 +0000";
layers = (
{
layerId = m01;
shapes = (
{
closed = 1;
nodes = (
(947,-20,o),
(947,348,qs),
(947,617,o),
(656,709,qs),
(429,780,o),
(429,842,qs),
(429,889,o),
(525,889,qs),
(635,889,o),
(832,805,q),
(939,1057,l),
(707,1153,o),
(523,1153,qs),
(56,1153,o),
(56,819,qs),
(56,556,o),
(337,467,qs),
(578,391,o),
(578,322,qs),
(578,264,o),
(451,264,qs),
(264,264,o),
(58,356,q),
(58,43,l),
(207,-20,o),
(468,-20,qs)
);
}
);
width = 980;
},
{
layerId = "A52C9687-8F69-441E-A346-B6B4B01C4528";
shapes = (
{
closed = 1;
nodes = (
(888,-20,o),
(888,303,qs),
(888,525,o),
(559,629,qs),
(276,718,o),
(276,838,qs),
(276,971,o),
(503,971,qs),
(633,971,o),
(804,901,q),
(866,1044,l),
(686,1118,o),
(516,1118,qs),
(104,1118,o),
(104,827,qs),
(104,607,o),
(444,500,qs),
(714,415,o),
(714,287,qs),
(714,125,o),
(454,125,qs),
(306,125,o),
(106,213,q),
(106,49,l),
(262,-20,o),
(450,-20,qs)
);
}
);
width = 980;
},
{
layerId = "74807A0F-D47B-485E-A88B-DED3F6679B72";
shapes = (
{
closed = 1;
nodes = (
(891,-20,o),
(891,274,qs),
(891,470,o),
(526,586,qs),
(219,682,o),
(219,834,qs),
(219,1051,o),
(537,1051,qs),
(694,1051,o),
(842,989,q),
(864,1040,l),
(717,1102,o),
(537,1102,qs),
(164,1102,o),
(164,834,qs),
(164,646,o),
(508,537,qs),
(836,433,o),
(836,274,qs),
(836,31,o),
(485,31,qs),
(311,31,o),
(129,111,q),
(129,49,l),
(286,-20,o),
(485,-20,qs)
);
}
);
width = 980;
}
);
note = s;
unicode = 115;
},
{
glyphname = t;
lastChange = "2024-07-08 04:22:56 +0000";
layers = (
{
layerId = m01;
shapes = (
{
closed = 1;
nodes = (
(563,-20,o),
(747,43,q),
(747,328,l),
(630,289,o),
(580,289,qs),
(485,289,o),
(485,399,qs),
(485,840,l),
(733,840,l),
(733,1133,l),
(485,1133,l),
(485,1360,l),
(257,1360,l),
(168,1122,l),
(13,999,l),
(13,840,l),
(135,840,l),
(135,373,ls),
(135,-20,o),
(465,-20,qs)
);
}
);
width = 739;
},
{
layerId = "A52C9687-8F69-441E-A346-B6B4B01C4528";
shapes = (
{
closed = 1;
nodes = (
(588,-20,o),
(694,12,q),
(694,150,l),
(614,127,o),
(540,127,qs),
(368,127,o),
(368,324,qs),
(368,958,l),
(685,958,l),
(685,1098,l),
(368,1098,l),
(368,1350,l),
(261,1350,l),
(190,1116,l),
(32,1044,l),
(32,958,l),
(188,958,l),
(188,319,ls),
(188,-20,o),
(509,-20,qs)
);
}
);
width = 739;
},
{
layerId = "74807A0F-D47B-485E-A88B-DED3F6679B72";
shapes = (
{
closed = 1;
nodes = (
(577,-20,o),
(665,6,q),
(665,57,l),
(576,31,o),
(504,31,qs),
(309,31,o),
(309,293,qs),
(309,1030,l),
(661,1030,l),
(661,1081,l),
(309,1081,l),
(309,1350,l),
(266,1350,l),
(254,1081,l),
(90,1075,l),
(90,1030,l),
(256,1030,l),
(256,287,ls),
(256,-20,o),
(504,-20,qs)
);
}
);
width = 739;
}
);
note = t;
unicode = 116;
},
{
glyphname = u;
lastChange = "2024-07-08 04:22:56 +0000";
layers = (
{
layerId = m01;
shapes = (
{
closed = 1;
nodes = (
(716,-20,o),
(964,452,q),
(833,520,l),
(714,287,o),
(613,287,qs),
(478,287,o),
(478,515,qs),
(478,1133,l),
(85,1133,l),
(85,396,ls),
(85,-20,o),
(466,-20,qs)
);
},
{
closed = 1;
nodes = (
(1191,0,l),
(1191,1133,l),
(800,1133,l),
(800,180,l),
(896,0,l)
);
}
);
width = 1265;
},
{
layerId = "A52C9687-8F69-441E-A346-B6B4B01C4528";
shapes = (
{
closed = 1;
nodes = (
(832,-20,o),
(1028,353,q),
(938,391,l),
(798,129,o),
(598,129,qs),
(352,129,o),
(352,394,qs),
(352,1096,l),
(174,1096,l),
(174,381,ls),
(174,-20,o),
(566,-20,qs)
);
},
{
closed = 1;
nodes = (
(1100,-2,l),
(1100,1096,l),
(920,1096,l),
(920,178,l),
(955,-2,l)
);
}
);
width = 1265;
},
{
layerId = "74807A0F-D47B-485E-A88B-DED3F6679B72";
shapes = (
{
closed = 1;
nodes = (
(864,-20,o),
(1039,316,q),
(996,342,l),
(832,31,o),
(595,31,qs),
(280,31,o),
(280,375,qs),
(280,1082,l),
(227,1082,l),
(227,373,ls),
(227,-20,o),
(595,-20,qs)
);
},
{
closed = 1;
nodes = (
(1044,1,l),
(1044,1082,l),
(991,1082,l),
(991,228,l),
(1001,1,l)
);
}
);
width = 1265;
}
);
note = u;
unicode = 117;
},
{
glyphname = v;
lastChange = "2024-07-08 04:22:56 +0000";
layers = (
{
layerId = m01;
shapes = (
{
closed = 1;
nodes = (
(680,0,l),
(1039,1133,l),
(701,1133,l),
(534,461,l),
(531,444,o),
(519,348,q),
(513,348,l),
(500,455,o),
(498,463,qs),
(339,1133,l),
(0,1133,l),
(359,0,l)
);
}
);
width = 1040;
},
{
layerId = "A52C9687-8F69-441E-A346-B6B4B01C4528";
shapes = (
{
closed = 1;
nodes = (
(623,0,l),
(1040,1098,l),
(848,1098,l),
(614,451,ls),
(598,406,o),
(522,160,q),
(514,160,l),
(442,406,o),
(426,451,qs),
(193,1098,l),
(0,1098,l),
(416,0,l)
);
}
);
width = 1040;
},
{
layerId = "74807A0F-D47B-485E-A88B-DED3F6679B72";
shapes = (
{
closed = 1;
nodes = (
(543,0,l),
(961,1081,l),
(905,1081,l),
(598,283,ls),
(572,217,o),
(522,74,q),
(518,74,l),
(469,217,o),
(442,283,qs),
(135,1081,l),
(80,1081,l),
(498,0,l)
);
}
);
width = 1040;
}
);
note = v;
unicode = 118;
},
{
glyphname = w;
lastChange = "2024-07-08 04:22:56 +0000";
layers = (
{
layerId = m01;
shapes = (
{
closed = 1;
nodes = (
(648,0,l),
(749,481,l),
(759,541,o),
(806,834,q),
(811,834,l),
(852,547,o),
(864,496,qs),
(967,0,l),
(1335,0,l),
(1609,1133,l),
(1278,1133,l),
(1189,698,ls),
(1180,655,o),
(1144,326,q),
(1139,326,l),
(1096,631,o),
(1089,670,qs),
(1004,1133,l),
(624,1133,l),
(532,676,ls),
(529,662,o),
(484,326,q),
(478,326,l),
(442,651,o),
(433,698,qs),
(352,1133,l),
(14,1133,l),
(286,0,l)
);
}
);
width = 1609;
},
{
layerId = "A52C9687-8F69-441E-A346-B6B4B01C4528";
shapes = (
{
closed = 1;
nodes = (
(528,2,l),
(724,618,ls),
(753,705,o),
(798,911,q),
(806,911,l),
(856,705,o),
(882,621,qs),
(1071,2,l),
(1282,2,l),
(1587,1100,l),
(1402,1100,l),
(1249,514,ls),
(1224,420,o),
(1175,188,q),
(1167,188,l),
(1114,410,o),
(1093,481,qs),
(905,1100,l),
(708,1100,l),
(514,481,ls),
(499,436,o),
(440,186,q),
(432,186,l),
(382,426,o),
(360,514,qs),
(208,1100,l),
(22,1100,l),
(323,2,l)
);
}
);
width = 1609;
},
{
layerId = "74807A0F-D47B-485E-A88B-DED3F6679B72";
shapes = (
{
closed = 1;
nodes = (
(480,-2,l),
(745,795,ls),
(775,885,o),
(804,987,q),
(808,987,l),
(851,848,o),
(867,795,qs),
(1126,-2,l),
(1171,-2,l),
(1459,1079,l),
(1406,1079,l),
(1203,319,ls),
(1181,231,o),
(1148,84,q),
(1144,84,l),
(1121,172,o),
(1074,322,qs),
(831,1079,l),
(788,1079,l),
(532,319,ls),
(501,225,o),
(462,84,q),
(458,84,l),
(423,225,o),
(396,319,qs),
(181,1079,l),
(122,1079,l),
(435,-2,l)
);
}
);
width = 1609;
}
);
note = w;
unicode = 119;
},
{
glyphname = x;
lastChange = "2024-07-08 04:22:56 +0000";
layers = (
{
layerId = m01;
shapes = (
{
closed = 1;
nodes = (
(387,0,l),
(549,267,l),
(710,0,l),
(1087,0,l),
(738,578,l),
(1074,1133,l),
(698,1133,l),
(550,889,l),
(403,1133,l),
(25,1133,l),
(361,578,l),
(10,0,l)
);
}
);
width = 1083;
},
{
layerId = "A52C9687-8F69-441E-A346-B6B4B01C4528";
shapes = (
{
closed = 1;
nodes = (
(239,0,l),
(540,420,l),
(841,0,l),
(1046,0,l),
(642,563,l),
(1025,1098,l),
(822,1098,l),
(541,705,l),
(259,1098,l),
(54,1098,l),
(438,562,l),
(36,0,l)
);
}
);
width = 1083;
},
{
layerId = "74807A0F-D47B-485E-A88B-DED3F6679B72";
shapes = (
{
closed = 1;
nodes = (
(176,0,l),
(544,510,l),
(914,0,l),
(979,0,l),
(577,556,l),
(955,1081,l),
(889,1081,l),
(544,601,l),
(197,1081,l),
(129,1081,l),
(511,555,l),
(113,0,l)
);
}
);
width = 1083;
}
);
note = x;
unicode = 120;
},
{
glyphname = y;
lastChange = "2024-07-08 04:22:56 +0000";
layers = (
{
layerId = m01;
shapes = (
{
closed = 1;
nodes = (
(527,-492,o),
(664,-72,qs),
(1048,1133,l),
(713,1133,l),
(353,-38,ls),
(307,-180,o),
(187,-180,qs),
(114,-180,o),
(85,-168,q),
(85,-475,l),
(125,-492,o),
(220,-492,qs)
);
},
{
closed = 1;
nodes = (
(652,67,l),
(344,1133,l),
(-2,1133,l),
(393,-47,l)
);
}
);
width = 1044;
},
{
layerId = "A52C9687-8F69-441E-A346-B6B4B01C4528";
shapes = (
{
closed = 1;
nodes = (
(435,-492,o),
(571,-152,q),
(1044,1098,l),
(850,1098,l),
(387,-127,l),
(299,-344,o),
(143,-344,qs),
(54,-344,o),
(22,-332,q),
(22,-475,l),
(71,-492,o),
(172,-492,qs)
);
},
{
closed = 1;
nodes = (
(606,9,l),
(195,1098,l),
(2,1098,l),
(451,-55,l)
);
}
);
width = 1044;
},
{
layerId = "74807A0F-D47B-485E-A88B-DED3F6679B72";
shapes = (
{
closed = 1;
nodes = (
(361,-498,o),
(461,-236,qs),
(971,1081,l),
(916,1081,l),
(418,-209,ls),
(327,-446,o),
(189,-446,qs),
(136,-446,o),
(78,-424,q),
(78,-477,l),
(133,-498,o),
(189,-498,qs)
);
},
{
closed = 1;
nodes = (
(553,20,l),
(146,1081,l),
(90,1081,l),
(504,5,l)
);
}
);
width = 1044;
}
);
note = y;
unicode = 121;
},
{
glyphname = z;
lastChange = "2024-07-08 04:22:56 +0000";
layers = (
{
layerId = m01;
shapes = (
{
closed = 1;
nodes = (
(957,0,l),
(957,299,l),
(486,299,l),
(934,891,l),
(934,1133,l),
(46,1133,l),
(46,834,l),
(488,834,l),
(19,223,l),
(19,0,l)
);
}
);
width = 962;
},
{
layerId = "A52C9687-8F69-441E-A346-B6B4B01C4528";
shapes = (
{
closed = 1;
nodes = (
(882,0,l),
(882,139,l),
(286,139,l),
(867,963,l),
(867,1098,l),
(114,1098,l),
(114,958,l),
(669,958,l),
(79,119,l),
(79,0,l)
);
}
);
width = 962;
},
{
layerId = "74807A0F-D47B-485E-A88B-DED3F6679B72";
shapes = (
{
closed = 1;
nodes = (
(863,0,l),
(863,51,l),
(177,51,l),
(869,1051,l),
(869,1081,l),
(158,1081,l),
(158,1030,l),
(791,1030,l),
(103,35,l),
(103,0,l)
);
}
);
width = 962;
}
);
note = z;
unicode = 122;
},
{
glyphname = braceleft;
lastChange = "2024-07-08 04:22:56 +0000";
layers = (
{
layerId = m01;
shapes = (
{
closed = 1;
nodes = (
(760,-66,l),
(669,-66,o),
(579,-12,o),
(579,41,qs),
(579,317,ls),
(579,434,o),
(461,545,o),
(350,563,q),
(350,575,l),
(460,590,o),
(579,702,o),
(579,827,qs),
(579,1098,ls),
(579,1151,o),
(669,1204,o),
(760,1204,q),
(760,1483,l),
(515,1483,o),
(270,1313,o),
(270,1143,qs),
(270,889,ls),
(270,804,o),
(152,719,o),
(35,719,q),
(35,418,l),
(152,418,o),
(270,333,o),
(270,248,qs),
(270,0,ls),
(270,-172,o),
(515,-344,o),
(760,-344,q)
);
}
);
width = 778;
},
{
layerId = "A52C9687-8F69-441E-A346-B6B4B01C4528";
shapes = (
{
closed = 1;
nodes = (
(720,-176,l),
(614,-172,o),
(493,-84,o),
(493,16,qs),
(493,313,ls),
(493,419,o),
(381,544,o),
(269,563,q),
(269,575,l),
(381,595,o),
(493,720,o),
(493,825,qs),
(493,1124,ls),
(493,1225,o),
(611,1313,o),
(720,1315,q),
(720,1462,l),
(532,1460,o),
(314,1300,o),
(314,1137,qs),
(314,838,ls),
(314,733,o),
(185,645,o),
(65,645,q),
(65,496,l),
(185,494,o),
(314,408,o),
(314,305,qs),
(314,0,ls),
(314,-164,o),
(540,-324,o),
(720,-324,q)
);
}
);
width = 778;
},
{
layerId = "74807A0F-D47B-485E-A88B-DED3F6679B72";
shapes = (
{
closed = 1;
nodes = (
(684,-272,l),
(539,-272,o),
(404,-160,o),
(404,-41,qs),
(404,311,ls),
(404,416,o),
(332,551,o),
(242,567,q),
(242,571,l),
(332,588,o),
(404,723,o),
(404,827,qs),
(404,1174,ls),
(404,1298,o),
(539,1411,o),
(684,1411,q),
(684,1462,l),
(516,1462,o),
(348,1319,o),
(348,1186,qs),
(348,836,ls),
(348,705,o),
(246,594,o),
(123,594,q),
(123,545,l),
(246,545,o),
(348,430,o),
(348,303,qs),
(348,-47,ls),
(348,-180,o),
(516,-324,o),
(684,-324,q)
);
}
);
width = 778;
}
);
note = braceleft;
unicode = 123;
},
{
glyphname = bar;
lastChange = "2024-07-08 04:22:56 +0000";
layers = (
{
layerId = m01;
shapes = (
{
closed = 1;
nodes = (
(715,-446,l),
(715,1556,l),
(447,1556,l),
(447,-446,l)
);
}
);
width = 1128;
},
{
layerId = "A52C9687-8F69-441E-A346-B6B4B01C4528";
shapes = (
{
closed = 1;
nodes = (
(639,-494,l),
(639,1556,l),
(489,1556,l),
(489,-494,l)
);
}
);
userData = {
assembly = "MPPEM[ ]	/* MeasurePixelPerEm */
PUSHB[ ]	/* 1 value pushed */
41
LT[ ]	/* LessThan */
IF[ ]	/* If */
NPUSHB[ ]	/* 11 values pushed */
0 1 1 33 77 0 0 0 36 0 78
ELSE[ ]	/* Else */
NPUSHB[ ]	/* 11 values pushed */
0 1 0 1 133 0 0 0 36 0 78
EIF[ ]	/* EndIf */
PUSHB[ ]	/* 5 values pushed */
17 16 2 8 24
CALL[ ]	/* CallFunction */";
};
width = 1128;
},
{
layerId = "74807A0F-D47B-485E-A88B-DED3F6679B72";
shapes = (
{
closed = 1;
nodes = (
(619,-514,l),
(619,1563,l),
(568,1563,l),
(568,-514,l)
);
}
);
width = 1128;
}
);
note = bar;
unicode = 124;
},
{
glyphname = braceright;
lastChange = "2024-07-08 04:22:56 +0000";
layers = (
{
layerId = m01;
shapes = (
{
closed = 1;
nodes = (
(280,-344,o),
(525,-172,o),
(525,0,qs),
(525,248,ls),
(525,333,o),
(643,418,o),
(760,418,q),
(760,719,l),
(643,719,o),
(525,804,o),
(525,889,qs),
(525,1143,ls),
(525,1313,o),
(280,1483,o),
(35,1483,q),
(35,1204,l),
(126,1204,o),
(216,1151,o),
(216,1098,qs),
(216,827,ls),
(216,702,o),
(335,590,o),
(445,575,q),
(445,563,l),
(334,545,o),
(216,434,o),
(216,317,qs),
(216,41,ls),
(216,-12,o),
(126,-66,o),
(35,-66,q),
(35,-344,l)
);
}
);
width = 778;
},
{
layerId = "A52C9687-8F69-441E-A346-B6B4B01C4528";
shapes = (
{
closed = 1;
nodes = (
(245,-324,o),
(471,-164,o),
(471,0,qs),
(471,305,ls),
(471,408,o),
(600,494,o),
(720,496,q),
(720,645,l),
(600,645,o),
(471,733,o),
(471,838,qs),
(471,1137,ls),
(471,1300,o),
(253,1460,o),
(65,1462,q),
(65,1315,l),
(174,1313,o),
(292,1225,o),
(292,1124,qs),
(292,825,ls),
(292,720,o),
(404,595,o),
(516,575,q),
(516,563,l),
(404,544,o),
(292,419,o),
(292,313,qs),
(292,16,ls),
(292,-84,o),
(171,-172,o),
(65,-176,q),
(65,-324,l)
);
}
);
width = 778;
},
{
layerId = "74807A0F-D47B-485E-A88B-DED3F6679B72";
shapes = (
{
closed = 1;
nodes = (
(271,-324,o),
(439,-180,o),
(439,-47,qs),
(439,303,ls),
(439,430,o),
(541,545,o),
(664,545,q),
(664,594,l),
(541,594,o),
(439,705,o),
(439,836,qs),
(439,1186,ls),
(439,1319,o),
(271,1462,o),
(103,1462,q),
(103,1411,l),
(248,1411,o),
(384,1298,o),
(384,1174,qs),
(384,827,ls),
(384,723,o),
(455,588,o),
(545,571,q),
(545,567,l),
(455,551,o),
(384,416,o),
(384,311,qs),
(384,-41,ls),
(384,-160,o),
(248,-272,o),
(103,-272,q),
(103,-324,l)
);
}
);
width = 778;
}
);
note = braceright;
unicode = 125;
},
{
glyphname = asciitilde;
lastChange = "2024-07-08 04:24:34 +0000";
layers = (
{
layerId = m01;
shapes = (
{
closed = 1;
nodes = (
(1106,918,l),
(988,797,o),
(874,797,qs),
(745,797,o),
(637,852,qs),
(506,915,o),
(356,915,qs),
(204,915,o),
(92,807,q),
(92,526,l),
(215,647,o),
(325,647,qs),
(453,647,o),
(561,592,qs),
(692,528,o),
(842,528,qs),
(1001,528,o),
(1106,637,q)
);
}
);
width = 1171;
},
{
layerId = "A52C9687-8F69-441E-A346-B6B4B01C4528";
shapes = (
{
closed = 1;
nodes = (
(1067,856,l),
(950,735,o),
(831,735,qs),
(730,735,o),
(618,791,qs),
(486,856,o),
(348,856,qs),
(206,856,o),
(102,748,q),
(102,588,l),
(223,709,o),
(335,709,qs),
(435,709,o),
(551,653,qs),
(681,588,o),
(821,588,qs),
(966,588,o),
(1067,698,q)
);
}
);
width = 1171;
},
{
layerId = "74807A0F-D47B-485E-A88B-DED3F6679B72";
shapes = (
{
closed = 1;
nodes = (
(1062,793,l),
(955,682,o),
(829,682,qs),
(742,682,o),
(613,745,qs),
(477,813,o),
(364,813,qs),
(223,813,o),
(124,715,q),
(124,651,l),
(237,764,o),
(364,764,qs),
(458,764,o),
(587,700,qs),
(725,633,o),
(829,633,qs),
(966,633,o),
(1062,733,q)
);
}
);
width = 1171;
}
);
note = asciitilde;
unicode = 126;
},
{
glyphname = guillemotleft;
lastChange = "2024-07-08 04:22:56 +0000";
layers = (
{
layerId = m01;
shapes = (
{
closed = 1;
nodes = (
(1039,227,l),
(815,575,l),
(1039,922,l),
(809,1071,l),
(492,588,l),
(492,561,l),
(809,80,l)
);
},
{
closed = 1;
nodes = (
(570,227,l),
(347,575,l),
(570,922,l),
(340,1071,l),
(23,588,l),
(23,561,l),
(340,80,l)
);
}
);
width = 1042;
},
{
layerId = "A52C9687-8F69-441E-A346-B6B4B01C4528";
shapes = (
{
closed = 1;
nodes = (
(962,190,l),
(675,541,l),
(962,891,l),
(835,965,l),
(487,553,l),
(487,526,l),
(835,115,l)
);
},
{
closed = 1;
nodes = (
(554,190,l),
(267,541,l),
(554,891,l),
(425,965,l),
(81,553,l),
(81,526,l),
(425,115,l)
);
}
);
userData = {
assembly = "PUSHB[ ]	/* 6 values pushed */
10 7 3 0 2 50
CALL[ ]	/* CallFunction */";
};
width = 1042;
},
{
layerId = "74807A0F-D47B-485E-A88B-DED3F6679B72";
shapes = (
{
closed = 1;
nodes = (
(863,201,l),
(583,571,l),
(863,942,l),
(830,967,l),
(519,584,l),
(519,557,l),
(830,178,l)
);
},
{
closed = 1;
nodes = (
(517,201,l),
(236,571,l),
(517,942,l),
(484,967,l),
(173,584,l),
(173,557,l),
(484,178,l)
);
}
);
width = 1042;
}
);
note = guillemotleft;
unicode = 171;
},
{
glyphname = guillemotright;
lastChange = "2024-07-08 04:22:56 +0000";
layers = (
{
layerId = m01;
shapes = (
{
closed = 1;
nodes = (
(1029,561,l),
(1029,588,l),
(712,1071,l),
(482,922,l),
(705,575,l),
(482,227,l),
(712,80,l)
);
},
{
closed = 1;
nodes = (
(560,561,l),
(560,588,l),
(243,1071,l),
(13,922,l),
(237,575,l),
(13,227,l),
(243,80,l)
);
}
);
width = 1042;
},
{
layerId = "A52C9687-8F69-441E-A346-B6B4B01C4528";
shapes = (
{
closed = 1;
nodes = (
(960,526,l),
(960,553,l),
(611,965,l),
(485,891,l),
(771,541,l),
(485,190,l),
(611,115,l)
);
},
{
closed = 1;
nodes = (
(552,526,l),
(552,553,l),
(206,965,l),
(79,891,l),
(366,541,l),
(79,190,l),
(206,115,l)
);
}
);
userData = {
assembly = "PUSHB[ ]	/* 6 values pushed */
10 7 3 0 2 50
CALL[ ]	/* CallFunction */";
};
width = 1042;
},
{
layerId = "74807A0F-D47B-485E-A88B-DED3F6679B72";
shapes = (
{
closed = 1;
nodes = (
(833,561,l),
(833,588,l),
(522,967,l),
(489,944,l),
(770,573,l),
(489,203,l),
(522,178,l)
);
},
{
closed = 1;
nodes = (
(487,561,l),
(487,588,l),
(176,967,l),
(143,944,l),
(424,573,l),
(143,203,l),
(176,178,l)
);
}
);
width = 1042;
}
);
note = guillemotright;
unicode = 187;
},
{
glyphname = uni1780;
lastChange = "2024-07-08 04:22:56 +0000";
layers = (
{
layerId = m01;
shapes = (
{
closed = 1;
nodes = (
(488,0,l),
(488,570,ls),
(488,655,o),
(650,655,qs),
(812,655,o),
(812,570,qs),
(812,0,l),
(1200,0,l),
(1200,570,ls),
(1200,893,o),
(650,893,qs),
(100,893,o),
(100,570,qs),
(100,0,l)
);
},
{
closed = 1;
nodes = (
(1200,1012,l),
(1200,1250,l),
(100,1250,l),
(100,1012,l)
);
}
);
width = 1300;
},
{
layerId = "A52C9687-8F69-441E-A346-B6B4B01C4528";
shapes = (
{
closed = 1;
nodes = (
(388,0,l),
(388,600,ls),
(388,785,o),
(650,785,qs),
(912,785,o),
(912,600,qs),
(912,0,l),
(1100,0,l),
(1100,600,ls),
(1100,923,o),
(650,923,qs),
(200,923,o),
(200,600,qs),
(200,0,l)
);
},
{
closed = 1;
nodes = (
(1100,1062,l),
(1100,1200,l),
(200,1200,l),
(200,1062,l)
);
}
);
width = 1300;
},
{
layerId = "74807A0F-D47B-485E-A88B-DED3F6679B72";
shapes = (
{
closed = 1;
nodes = (
(308,0,l),
(308,600,ls),
(308,873,o),
(650,873,qs),
(992,873,o),
(992,600,qs),
(992,0,l),
(1050,0,l),
(1050,600,ls),
(1050,923,o),
(650,923,qs),
(250,923,o),
(250,600,qs),
(250,0,l)
);
},
{
closed = 1;
nodes = (
(1050,1150,l),
(1050,1200,l),
(250,1200,l),
(250,1150,l)
);
}
);
width = 1300;
}
);
note = uni1780;
unicode = 6016;
},
{
glyphname = uni1781;
lastChange = "2024-07-08 04:22:56 +0000";
layers = (
{
layerId = m01;
shapes = (
{
closed = 1;
nodes = (
(1200,0,o),
(1200,359,qs),
(1200,510,l),
(812,510,l),
(812,359,ls),
(812,238,o),
(650,238,qs),
(488,238,o),
(488,359,qs),
(488,484,l),
(533,491,ls),
(1200,601,o),
(1200,891,qs),
(1200,1250,o),
(650,1250,qs),
(100,1250,o),
(100,911,qs),
(100,739,o),
(538,739,q),
(538,878,l),
(488,878,o),
(488,911,qs),
(488,1012,o),
(650,1012,qs),
(812,1012,o),
(812,891,qs),
(812,731,o),
(456,675,qs),
(100,617,l),
(100,359,ls),
(100,0,o),
(650,0,qs)
);
}
);
width = 1300;
},
{
layerId = "A52C9687-8F69-441E-A346-B6B4B01C4528";
shapes = (
{
closed = 1;
nodes = (
(1100,0,o),
(1100,323,qs),
(1100,480,l),
(912,480,l),
(912,323,ls),
(912,138,o),
(650,138,qs),
(388,138,o),
(388,323,qs),
(388,473,l),
(477,486,ls),
(1100,575,o),
(1100,877,qs),
(1100,1200,o),
(650,1200,qs),
(200,1200,o),
(200,897,qs),
(200,719,o),
(488,719,q),
(488,853,l),
(388,853,o),
(388,897,qs),
(388,1062,o),
(650,1062,qs),
(912,1062,o),
(912,877,qs),
(912,687,o),
(445,621,qs),
(200,586,l),
(200,323,ls),
(200,0,o),
(650,0,qs)
);
}
);
width = 1300;
},
{
layerId = "74807A0F-D47B-485E-A88B-DED3F6679B72";
shapes = (
{
closed = 1;
nodes = (
(1050,0,o),
(1050,323,qs),
(1050,480,l),
(992,480,l),
(992,323,ls),
(992,50,o),
(650,50,qs),
(308,50,o),
(308,323,qs),
(308,509,l),
(566,552,ls),
(1050,632,o),
(1050,877,qs),
(1050,1200,o),
(650,1200,qs),
(250,1200,o),
(250,877,qs),
(250,719,o),
(438,719,q),
(438,773,l),
(308,773,o),
(308,877,qs),
(308,1150,o),
(650,1150,qs),
(992,1150,o),
(992,877,qs),
(992,673,o),
(556,601,qs),
(250,551,l),
(250,323,ls),
(250,0,o),
(650,0,qs)
);
}
);
width = 1300;
}
);
note = uni1781;
unicode = 6017;
},
{
glyphname = uni1782;
lastChange = "2024-07-08 04:22:56 +0000";
layers = (
{
layerId = m01;
shapes = (
{
closed = 1;
nodes = (
(488,0,l),
(488,76,l),
(523,212,o),
(666,212,qs),
(710,212,l),
(710,450,l),
(663,450,ls),
(525,450,o),
(488,327,q),
(488,570,ls),
(488,655,o),
(650,655,qs),
(812,655,o),
(812,570,qs),
(812,0,l),
(1200,0,l),
(1200,570,ls),
(1200,893,o),
(650,893,qs),
(100,893,o),
(100,570,qs),
(100,0,l)
);
},
{
closed = 1;
nodes = (
(1200,1012,l),
(1200,1250,l),
(100,1250,l),
(100,1012,l)
);
}
);
width = 1300;
},
{
layerId = "A52C9687-8F69-441E-A346-B6B4B01C4528";
shapes = (
{
closed = 1;
nodes = (
(388,0,l),
(388,86,l),
(433,262,o),
(596,262,qs),
(700,262,l),
(700,400,l),
(573,400,ls),
(457,400,o),
(388,320,q),
(388,600,ls),
(388,785,o),
(650,785,qs),
(912,785,o),
(912,600,qs),
(912,0,l),
(1100,0,l),
(1100,600,ls),
(1100,923,o),
(650,923,qs),
(200,923,o),
(200,600,qs),
(200,0,l)
);
},
{
closed = 1;
nodes = (
(1100,1062,l),
(1100,1200,l),
(200,1200,l),
(200,1062,l)
);
}
);
width = 1300;
},
{
layerId = "74807A0F-D47B-485E-A88B-DED3F6679B72";
shapes = (
{
closed = 1;
nodes = (
(308,0,l),
(308,65,l),
(373,300,o),
(576,300,qs),
(630,300,l),
(630,350,l),
(576,350,ls),
(367,350,o),
(308,179,q),
(308,600,ls),
(308,873,o),
(650,873,qs),
(992,873,o),
(992,600,qs),
(992,0,l),
(1050,0,l),
(1050,600,ls),
(1050,923,o),
(650,923,qs),
(250,923,o),
(250,600,qs),
(250,0,l)
);
},
{
closed = 1;
nodes = (
(1050,1150,l),
(1050,1200,l),
(250,1200,l),
(250,1150,l)
);
}
);
width = 1300;
}
);
note = uni1782;
unicode = 6018;
},
{
glyphname = uni1783;
lastChange = "2024-07-08 04:22:56 +0000";
layers = (
{
layerId = m01;
shapes = (
{
closed = 1;
nodes = (
(829,0,o),
(954,89,q),
(1078,0,o),
(1281,0,qs),
(1800,0,o),
(1800,323,qs),
(1800,840,l),
(1539,991,l),
(1551,1012,l),
(1800,1012,l),
(1800,1250,l),
(1372,1250,l),
(1276,1087,ls),
(1244,1033,o),
(1244,1012,qs),
(1244,984,o),
(1286,940,qs),
(1412,806,l),
(1412,323,ls),
(1412,238,o),
(1281,238,qs),
(1149,238,o),
(1149,323,qs),
(1149,840,l),
(888,991,l),
(900,1012,l),
(1149,1012,l),
(1149,1250,l),
(721,1250,l),
(625,1087,ls),
(593,1033,o),
(593,1012,qs),
(593,984,o),
(635,940,qs),
(761,806,l),
(761,323,ls),
(761,238,o),
(625,238,qs),
(488,238,o),
(488,323,qs),
(488,1128,ls),
(488,1250,o),
(338,1250,qs),
(29,1250,l),
(29,1012,l),
(65,1012,ls),
(100,1012,o),
(100,965,qs),
(100,323,ls),
(100,0,o),
(625,0,qs)
);
}
);
width = 1900;
},
{
layerId = "A52C9687-8F69-441E-A346-B6B4B01C4528";
shapes = (
{
closed = 1;
nodes = (
(850,0,o),
(956,98,q),
(1062,0,o),
(1281,0,qs),
(1700,0,o),
(1700,323,qs),
(1700,840,l),
(1483,1034,l),
(1504,1062,l),
(1700,1062,l),
(1700,1200,l),
(1452,1200,l),
(1340,1053,ls),
(1324,1033,o),
(1324,1012,qs),
(1324,984,o),
(1355,955,qs),
(1512,806,l),
(1512,323,ls),
(1512,138,o),
(1281,138,qs),
(1050,138,o),
(1050,323,qs),
(1050,840,l),
(833,1034,l),
(854,1062,l),
(1050,1062,l),
(1050,1200,l),
(802,1200,l),
(690,1053,ls),
(674,1033,o),
(674,1012,qs),
(674,984,o),
(705,955,qs),
(862,806,l),
(862,323,ls),
(862,138,o),
(625,138,qs),
(388,138,o),
(388,323,qs),
(388,1098,ls),
(388,1200,o),
(238,1200,qs),
(59,1200,l),
(59,1062,l),
(130,1062,ls),
(200,1062,o),
(200,1015,qs),
(200,323,ls),
(200,0,o),
(625,0,qs)
);
}
);
width = 1900;
},
{
layerId = "74807A0F-D47B-485E-A88B-DED3F6679B72";
shapes = (
{
closed = 1;
nodes = (
(876,0,o),
(950,166,q),
(1024,0,o),
(1286,0,qs),
(1650,0,o),
(1650,323,qs),
(1650,830,l),
(1403,1050,l),
(1455,1150,l),
(1650,1150,l),
(1650,1200,l),
(1432,1200,l),
(1374,1105,ls),
(1354,1073,o),
(1354,1052,qs),
(1354,1024,o),
(1384,997,qs),
(1592,806,l),
(1592,323,ls),
(1592,50,o),
(1286,50,qs),
(979,50,o),
(979,323,qs),
(979,830,l),
(732,1050,l),
(784,1150,l),
(979,1150,l),
(979,1200,l),
(761,1200,l),
(703,1105,ls),
(683,1073,o),
(683,1052,qs),
(683,1024,o),
(713,997,qs),
(921,806,l),
(921,323,ls),
(921,50,o),
(615,50,qs),
(308,50,o),
(308,323,qs),
(308,1048,ls),
(308,1200,o),
(160,1200,qs),
(89,1200,l),
(89,1150,l),
(160,1150,ls),
(250,1150,o),
(250,1048,qs),
(250,323,ls),
(250,0,o),
(615,0,qs)
);
}
);
width = 1900;
}
);
note = uni1783;
unicode = 6019;
},
{
glyphname = uni1784;
lastChange = "2024-07-08 04:22:56 +0000";
layers = (
{
layerId = m01;
shapes = (
{
closed = 1;
nodes = (
(469,0,l),
(651,180,l),
(832,0,l),
(1200,0,l),
(1200,720,ls),
(1200,881,o),
(856,1044,o),
(856,1080,qs),
(856,1130,o),
(893,1130,qs),
(930,1130,o),
(930,1088,qs),
(930,993,o),
(581,993,qs),
(488,993,o),
(488,1039,qs),
(488,1400,l),
(100,1400,l),
(100,1039,ls),
(100,785,o),
(581,785,qs),
(1110,785,o),
(1110,1090,qs),
(1110,1250,o),
(893,1250,qs),
(676,1250,o),
(676,1080,qs),
(676,993,o),
(812,824,o),
(812,720,qs),
(812,321,l),
(691,443,l),
(610,443,l),
(488,321,l),
(488,526,ls),
(488,720,o),
(250,720,qs),
(30,720,l),
(30,526,l),
(65,526,ls),
(100,526,o),
(100,485,qs),
(100,0,l)
);
}
);
width = 1300;
},
{
layerId = "A52C9687-8F69-441E-A346-B6B4B01C4528";
shapes = (
{
closed = 1;
nodes = (
(419,0,l),
(651,248,l),
(882,0,l),
(1100,0,l),
(1100,720,ls),
(1100,831,o),
(806,994,o),
(806,1030,qs),
(806,1080,o),
(843,1080,qs),
(880,1080,o),
(880,1038,qs),
(880,923,o),
(581,923,qs),
(388,923,o),
(388,989,qs),
(388,1350,l),
(200,1350,l),
(200,989,ls),
(200,788,o),
(581,788,qs),
(1010,788,o),
(1010,1040,qs),
(1010,1200,o),
(843,1200,qs),
(676,1200,o),
(676,1030,qs),
(676,943,o),
(912,774,o),
(912,720,qs),
(912,180,l),
(672,420,l),
(630,420,l),
(388,180,l),
(388,568,ls),
(388,720,o),
(230,720,qs),
(119,720,l),
(119,580,l),
(160,580,ls),
(200,580,o),
(200,528,qs),
(200,0,l)
);
}
);
width = 1300;
},
{
layerId = "74807A0F-D47B-485E-A88B-DED3F6679B72";
shapes = (
{
closed = 1;
nodes = (
(323,0,l),
(651,348,l),
(979,0,l),
(1050,0,l),
(1050,720,ls),
(1050,831,o),
(726,974,o),
(726,1050,qs),
(726,1150,o),
(833,1150,qs),
(930,1150,o),
(930,1058,qs),
(930,878,o),
(581,878,qs),
(308,878,o),
(308,989,qs),
(308,1350,l),
(250,1350,l),
(250,989,ls),
(250,828,o),
(581,828,qs),
(980,828,o),
(980,1060,qs),
(980,1200,o),
(833,1200,qs),
(676,1200,o),
(676,1050,qs),
(676,943,o),
(992,804,o),
(992,720,qs),
(992,59,l),
(672,400,l),
(630,400,l),
(308,58,l),
(308,568,ls),
(308,720,o),
(160,720,qs),
(119,720,l),
(119,670,l),
(160,670,ls),
(250,670,o),
(250,568,qs),
(250,0,l)
);
}
);
width = 1300;
}
);
note = uni1784;
unicode = 6020;
},
{
glyphname = uni1785;
lastChange = "2024-07-08 04:22:56 +0000";
layers = (
{
layerId = m01;
shapes = (
{
closed = 1;
nodes = (
(1200,0,o),
(1200,323,qs),
(1200,728,ls),
(1200,890,o),
(901,890,qs),
(602,890,o),
(602,691,qs),
(602,492,o),
(792,492,qs),
(827,492,l),
(827,630,l),
(792,630,ls),
(750,630,o),
(750,691,qs),
(750,752,o),
(791,752,qs),
(812,752,o),
(812,728,qs),
(812,323,ls),
(812,188,o),
(650,188,qs),
(488,188,o),
(488,323,qs),
(488,820,l),
(237,974,l),
(263,1012,l),
(1200,1012,l),
(1200,1250,l),
(168,1250,l),
(39,1025,ls),
(20,992,o),
(20,955,qs),
(20,914,o),
(40,882,qs),
(100,786,l),
(100,323,ls),
(100,0,o),
(650,0,qs)
);
}
);
width = 1300;
},
{
layerId = "A52C9687-8F69-441E-A346-B6B4B01C4528";
shapes = (
{
closed = 1;
nodes = (
(1100,0,o),
(1100,323,qs),
(1100,743,ls),
(1100,900,o),
(896,900,qs),
(702,900,o),
(702,701,qs),
(702,502,o),
(892,502,qs),
(930,502,l),
(930,640,l),
(892,640,ls),
(820,640,o),
(820,701,qs),
(820,762,o),
(896,762,qs),
(912,762,o),
(912,743,qs),
(912,323,ls),
(912,138,o),
(650,138,qs),
(388,138,o),
(388,323,qs),
(388,820,l),
(237,992,l),
(288,1062,l),
(1100,1062,l),
(1100,1200,l),
(258,1200,l),
(118,1017,ls),
(100,992,o),
(100,955,qs),
(100,914,o),
(136,868,qs),
(200,786,l),
(200,323,ls),
(200,0,o),
(650,0,qs)
);
}
);
width = 1300;
},
{
layerId = "74807A0F-D47B-485E-A88B-DED3F6679B72";
shapes = (
{
closed = 1;
nodes = (
(1050,0,o),
(1050,323,qs),
(1050,778,ls),
(1050,900,o),
(912,900,qs),
(720,900,o),
(720,700,qs),
(720,520,o),
(912,520,qs),
(1002,520,l),
(1002,570,l),
(912,570,ls),
(770,570,o),
(770,700,qs),
(770,850,o),
(912,850,qs),
(992,850,o),
(992,778,qs),
(992,323,ls),
(992,50,o),
(650,50,qs),
(308,50,o),
(308,323,qs),
(308,850,l),
(162,1048,l),
(230,1150,l),
(1050,1150,l),
(1050,1200,l),
(203,1200,l),
(121,1077,ls),
(109,1059,o),
(109,1045,qs),
(109,1030,o),
(127,1006,qs),
(250,836,l),
(250,323,ls),
(250,0,o),
(650,0,qs)
);
}
);
width = 1300;
}
);
note = uni1785;
unicode = 6021;
},
{
glyphname = uni1786;
lastChange = "2024-07-08 04:22:56 +0000";
layers = (
{
layerId = m01;
shapes = (
{
closed = 1;
nodes = (
(520,0,o),
(520,192,qs),
(520,820,l),
(237,974,l),
(263,1012,l),
(1200,1012,l),
(1200,1250,l),
(168,1250,l),
(39,1025,ls),
(20,992,o),
(20,955,qs),
(20,914,o),
(48,882,qs),
(132,786,l),
(132,192,ls),
(132,160,o),
(116,160,qs),
(100,160,o),
(100,205,qs),
(100,262,o),
(122,262,qs),
(564,262,l),
(607,134,o),
(750,0,o),
(890,0,qs),
(1200,0,o),
(1200,323,qs),
(1200,728,ls),
(1200,890,o),
(901,890,qs),
(602,890,o),
(602,691,qs),
(602,492,o),
(792,492,qs),
(827,492,l),
(827,630,l),
(792,630,ls),
(750,630,o),
(750,691,qs),
(750,752,o),
(791,752,qs),
(812,752,o),
(812,728,qs),
(812,323,ls),
(812,198,o),
(790,198,qs),
(765,198,o),
(698,291,o),
(656,430,q),
(122,430,ls),
(0,430,o),
(0,235,qs),
(0,0,o),
(260,0,qs)
);
}
);
width = 1300;
},
{
layerId = "A52C9687-8F69-441E-A346-B6B4B01C4528";
shapes = (
{
closed = 1;
nodes = (
(388,0,o),
(388,142,qs),
(388,820,l),
(237,992,l),
(288,1062,l),
(1100,1062,l),
(1100,1200,l),
(258,1200,l),
(118,1017,ls),
(100,992,o),
(100,955,qs),
(100,914,o),
(136,868,qs),
(200,786,l),
(200,142,ls),
(200,110,o),
(174,110,qs),
(148,110,o),
(148,205,qs),
(148,262,o),
(190,262,qs),
(504,262,l),
(547,164,o),
(710,0,o),
(820,0,qs),
(1100,0,o),
(1100,323,qs),
(1100,743,ls),
(1100,900,o),
(896,900,qs),
(702,900,o),
(702,701,qs),
(702,502,o),
(892,502,qs),
(930,502,l),
(930,640,l),
(892,640,ls),
(820,640,o),
(820,701,qs),
(820,762,o),
(896,762,qs),
(912,762,o),
(912,743,qs),
(912,323,ls),
(912,138,o),
(820,138,qs),
(755,138,o),
(658,251,o),
(596,400,q),
(190,400,ls),
(48,400,o),
(48,205,qs),
(48,0,o),
(218,0,qs)
);
}
);
width = 1300;
},
{
layerId = "74807A0F-D47B-485E-A88B-DED3F6679B72";
shapes = (
{
closed = 1;
nodes = (
(308,0,o),
(308,82,qs),
(308,850,l),
(162,1048,l),
(230,1150,l),
(1050,1150,l),
(1050,1200,l),
(203,1200,l),
(121,1077,ls),
(109,1059,o),
(109,1045,qs),
(109,1030,o),
(127,1006,qs),
(250,836,l),
(250,82,ls),
(250,50,o),
(220,50,qs),
(138,50,o),
(138,205,qs),
(138,300,o),
(240,300,qs),
(554,300,l),
(597,164,o),
(750,0,o),
(820,0,qs),
(1050,0,o),
(1050,323,qs),
(1050,778,ls),
(1050,900,o),
(912,900,qs),
(720,900,o),
(720,700,qs),
(720,520,o),
(912,520,qs),
(1002,520,l),
(1002,570,l),
(912,570,ls),
(770,570,o),
(770,700,qs),
(770,850,o),
(912,850,qs),
(992,850,o),
(992,778,qs),
(992,323,ls),
(992,50,o),
(820,50,qs),
(755,50,o),
(618,231,o),
(596,350,q),
(240,350,ls),
(88,350,o),
(88,205,qs),
(88,0,o),
(220,0,qs)
);
}
);
width = 1300;
}
);
note = uni1786;
unicode = 6022;
},
{
glyphname = uni1787;
lastChange = "2024-07-08 04:22:56 +0000";
layers = (
{
layerId = m01;
shapes = (
{
closed = 1;
nodes = (
(469,0,l),
(651,180,l),
(832,0,l),
(1200,0,l),
(1200,893,l),
(812,893,l),
(812,321,l),
(691,444,l),
(610,444,l),
(488,321,l),
(488,820,l),
(237,974,l),
(263,1012,l),
(930,1012,ls),
(1200,1012,o),
(1200,1250,qs),
(1200,1400,l),
(812,1400,l),
(812,1300,ls),
(812,1250,o),
(750,1250,qs),
(218,1250,l),
(70,1057,ls),
(20,992,o),
(20,955,qs),
(20,914,o),
(60,850,qs),
(100,786,l),
(100,0,l)
);
}
);
width = 1300;
},
{
layerId = "A52C9687-8F69-441E-A346-B6B4B01C4528";
shapes = (
{
closed = 1;
nodes = (
(419,0,l),
(651,248,l),
(882,0,l),
(1100,0,l),
(1100,923,l),
(912,923,l),
(912,180,l),
(672,420,l),
(630,420,l),
(388,180,l),
(388,820,l),
(237,992,l),
(293,1062,l),
(800,1062,ls),
(1100,1062,o),
(1100,1250,qs),
(1100,1400,l),
(912,1400,l),
(912,1250,ls),
(912,1200,o),
(800,1200,qs),
(258,1200,l),
(118,1017,ls),
(100,992,o),
(100,955,qs),
(100,914,o),
(136,868,qs),
(200,786,l),
(200,0,l)
);
}
);
width = 1300;
},
{
layerId = "74807A0F-D47B-485E-A88B-DED3F6679B72";
shapes = (
{
closed = 1;
nodes = (
(323,0,l),
(651,348,l),
(979,0,l),
(1050,0,l),
(1050,923,l),
(992,923,l),
(992,59,l),
(672,400,l),
(630,400,l),
(308,58,l),
(308,850,l),
(162,1048,l),
(230,1150,l),
(800,1150,ls),
(1050,1150,o),
(1050,1280,qs),
(1050,1400,l),
(992,1400,l),
(992,1280,ls),
(992,1200,o),
(800,1200,qs),
(203,1200,l),
(121,1077,ls),
(109,1059,o),
(109,1045,qs),
(109,1030,o),
(127,1006,qs),
(250,836,l),
(250,0,l)
);
}
);
width = 1300;
}
);
note = uni1787;
unicode = 6023;
},
{
glyphname = uni1788;
lastChange = "2024-07-08 04:22:56 +0000";
layers = (
{
layerId = m01;
shapes = (
{
closed = 1;
nodes = (
(668,0,o),
(668,259,qs),
(668,467,o),
(488,467,qs),
(474,467,l),
(474,323,l),
(488,323,ls),
(550,323,o),
(550,259,qs),
(550,154,o),
(502,154,qs),
(488,154,o),
(488,174,qs),
(488,914,ls),
(488,1012,o),
(625,1012,qs),
(762,1012,o),
(762,914,qs),
(762,336,ls),
(762,0,o),
(1287,0,qs),
(1512,0,o),
(1618,102,q),
(1724,0,o),
(1943,0,qs),
(2462,0,o),
(2462,336,qs),
(2462,840,l),
(2201,991,l),
(2213,1012,l),
(2462,1012,l),
(2462,1250,l),
(2034,1250,l),
(1938,1087,ls),
(1906,1033,o),
(1906,1012,qs),
(1906,984,o),
(1948,940,qs),
(2074,806,l),
(2074,336,ls),
(2074,238,o),
(1943,238,qs),
(1812,238,o),
(1812,336,qs),
(1812,840,l),
(1551,991,l),
(1563,1012,l),
(1812,1012,l),
(1812,1250,l),
(1384,1250,l),
(1288,1087,ls),
(1256,1033,o),
(1256,1012,qs),
(1256,984,o),
(1298,940,qs),
(1424,806,l),
(1424,336,ls),
(1424,238,o),
(1287,238,qs),
(1150,238,o),
(1150,336,qs),
(1150,914,ls),
(1150,1250,o),
(625,1250,qs),
(100,1250,o),
(100,914,qs),
(100,127,ls),
(100,0,o),
(384,0,qs)
);
}
);
width = 2562;
},
{
layerId = "A52C9687-8F69-441E-A346-B6B4B01C4528";
shapes = (
{
closed = 1;
nodes = (
(598,0,o),
(598,249,qs),
(598,448,o),
(398,448,qs),
(365,448,l),
(365,310,l),
(398,310,ls),
(480,310,o),
(480,249,qs),
(480,138,o),
(410,138,qs),
(388,138,o),
(388,161,qs),
(388,877,ls),
(388,1062,o),
(625,1062,qs),
(862,1062,o),
(862,877,qs),
(862,323,ls),
(862,0,o),
(1287,0,qs),
(1512,0,o),
(1618,98,q),
(1724,0,o),
(1943,0,qs),
(2362,0,o),
(2362,323,qs),
(2362,840,l),
(2145,1034,l),
(2166,1062,l),
(2362,1062,l),
(2362,1200,l),
(2114,1200,l),
(2002,1053,ls),
(1986,1033,o),
(1986,1012,qs),
(1986,984,o),
(2017,955,qs),
(2174,806,l),
(2174,323,ls),
(2174,138,o),
(1943,138,qs),
(1712,138,o),
(1712,323,qs),
(1712,840,l),
(1495,1034,l),
(1516,1062,l),
(1712,1062,l),
(1712,1200,l),
(1464,1200,l),
(1352,1053,ls),
(1336,1033,o),
(1336,1012,qs),
(1336,984,o),
(1367,955,qs),
(1524,806,l),
(1524,323,ls),
(1524,138,o),
(1287,138,qs),
(1050,138,o),
(1050,323,qs),
(1050,877,ls),
(1050,1200,o),
(625,1200,qs),
(200,1200,o),
(200,877,qs),
(200,161,ls),
(200,0,o),
(388,0,qs)
);
}
);
width = 2562;
},
{
layerId = "74807A0F-D47B-485E-A88B-DED3F6679B72";
shapes = (
{
closed = 1;
nodes = (
(550,0,o),
(550,249,qs),
(550,400,o),
(388,400,qs),
(288,400,l),
(288,350,l),
(388,350,ls),
(500,350,o),
(500,249,qs),
(500,50,o),
(388,50,qs),
(308,50,o),
(308,122,qs),
(308,877,ls),
(308,1150,o),
(618,1150,qs),
(927,1150,o),
(927,877,qs),
(927,323,ls),
(927,0,o),
(1288,0,qs),
(1546,0,o),
(1619,166,q),
(1692,0,o),
(1951,0,qs),
(2312,0,o),
(2312,323,qs),
(2312,830,l),
(2065,1050,l),
(2117,1150,l),
(2312,1150,l),
(2312,1200,l),
(2094,1200,l),
(2036,1105,ls),
(2016,1073,o),
(2016,1052,qs),
(2016,1024,o),
(2046,997,qs),
(2254,806,l),
(2254,323,ls),
(2254,50,o),
(1951,50,qs),
(1648,50,o),
(1648,323,qs),
(1648,830,l),
(1401,1050,l),
(1453,1150,l),
(1648,1150,l),
(1648,1200,l),
(1430,1200,l),
(1372,1105,ls),
(1352,1073,o),
(1352,1052,qs),
(1352,1024,o),
(1382,997,qs),
(1590,806,l),
(1590,323,ls),
(1590,50,o),
(1288,50,qs),
(985,50,o),
(985,323,qs),
(985,877,ls),
(985,1200,o),
(618,1200,qs),
(250,1200,o),
(250,877,qs),
(250,122,ls),
(250,0,o),
(388,0,qs)
);
}
);
width = 2562;
}
);
note = uni1788;
unicode = 6024;
},
{
glyphname = uni1789;
lastChange = "2024-07-08 04:22:56 +0000";
layers = (
{
layerId = m01;
shapes = (
{
closed = 1;
nodes = (
(668,0,o),
(668,259,qs),
(668,467,o),
(488,467,qs),
(474,467,l),
(474,323,l),
(488,323,ls),
(550,323,o),
(550,259,qs),
(550,154,o),
(502,154,qs),
(488,154,o),
(488,174,qs),
(488,923,ls),
(488,952,o),
(505,980,o),
(521,980,qs),
(554,980,o),
(591,936,qs),
(618,905,o),
(650,905,qs),
(682,905,o),
(709,936,qs),
(746,980,o),
(780,980,qs),
(796,980,o),
(812,952,o),
(812,923,qs),
(812,0,l),
(1200,0,l),
(1200,973,ls),
(1200,1086,o),
(1001,1250,o),
(907,1250,qs),
(762,1250,o),
(650,1126,q),
(539,1250,o),
(395,1250,qs),
(300,1250,o),
(100,1086,o),
(100,973,qs),
(100,127,ls),
(100,0,o),
(384,0,qs)
);
},
{
closed = 1;
nodes = (
(1850,-500,o),
(1850,-260,qs),
(1850,-100,l),
(1360,-100,l),
(1360,-220,l),
(1462,-220,l),
(1462,-260,ls),
(1462,-300,o),
(1392,-300,qs),
(1281,-300,o),
(947,-100,o),
(600,-100,qs),
(100,-100,l),
(100,-300,l),
(600,-300,ls),
(864,-300,o),
(1185,-500,o),
(1452,-500,qs)
);
},
{
closed = 1;
nodes = (
(1850,0,l),
(1850,927,ls),
(1850,1065,o),
(1610,1250,o),
(1401,1250,qs),
(1166,1250,o),
(985,908,q),
(1160,827,l),
(1227,1012,o),
(1381,1012,qs),
(1415,1012,o),
(1462,969,o),
(1462,877,qs),
(1462,0,l)
);
}
);
width = 1950;
},
{
layerId = "A52C9687-8F69-441E-A346-B6B4B01C4528";
shapes = (
{
closed = 1;
nodes = (
(598,0,o),
(598,249,qs),
(598,448,o),
(398,448,qs),
(365,448,l),
(365,310,l),
(398,310,ls),
(480,310,o),
(480,249,qs),
(480,138,o),
(410,138,qs),
(388,138,o),
(388,161,qs),
(388,923,ls),
(388,987,o),
(425,1050,o),
(461,1050,qs),
(510,1050,o),
(591,956,qs),
(618,925,o),
(650,925,qs),
(682,925,o),
(709,956,qs),
(791,1050,o),
(840,1050,qs),
(876,1050,o),
(912,987,o),
(912,923,qs),
(912,0,l),
(1100,0,l),
(1100,923,ls),
(1100,1036,o),
(951,1200,o),
(857,1200,qs),
(762,1200,o),
(650,1076,q),
(539,1200,o),
(445,1200,qs),
(350,1200,o),
(200,1036,o),
(200,923,qs),
(200,161,ls),
(200,0,o),
(388,0,qs)
);
},
{
closed = 1;
nodes = (
(1750,-500,o),
(1750,-260,qs),
(1750,-100,l),
(1400,-100,l),
(1400,-220,l),
(1562,-220,l),
(1562,-260,ls),
(1562,-380,o),
(1422,-380,qs),
(1281,-380,o),
(947,-180,o),
(600,-180,qs),
(200,-180,l),
(200,-300,l),
(600,-300,ls),
(864,-300,o),
(1185,-500,o),
(1422,-500,qs)
);
},
{
closed = 1;
nodes = (
(1750,0,l),
(1750,877,ls),
(1750,1015,o),
(1550,1200,o),
(1351,1200,qs),
(1166,1200,o),
(1015,988,q),
(1090,877,l),
(1217,1062,o),
(1351,1062,qs),
(1445,1062,o),
(1562,969,o),
(1562,877,qs),
(1562,0,l)
);
}
);
width = 1950;
},
{
layerId = "74807A0F-D47B-485E-A88B-DED3F6679B72";
shapes = (
{
closed = 1;
nodes = (
(550,0,o),
(550,249,qs),
(550,400,o),
(388,400,qs),
(288,400,l),
(288,350,l),
(388,350,ls),
(500,350,o),
(500,249,qs),
(500,50,o),
(388,50,qs),
(308,50,o),
(308,122,qs),
(308,923,ls),
(308,1037,o),
(377,1150,o),
(445,1150,qs),
(504,1150,o),
(593,1034,qs),
(622,995,o),
(650,995,qs),
(678,995,o),
(708,1034,qs),
(797,1150,o),
(857,1150,qs),
(925,1150,o),
(992,1037,o),
(992,923,qs),
(992,0,l),
(1050,0,l),
(1050,923,ls),
(1050,1052,o),
(944,1200,o),
(857,1200,qs),
(762,1200,o),
(650,1056,q),
(539,1200,o),
(445,1200,qs),
(358,1200,o),
(250,1052,o),
(250,923,qs),
(250,122,ls),
(250,0,o),
(388,0,qs)
);
},
{
closed = 1;
nodes = (
(1700,-500,o),
(1700,-260,qs),
(1700,-100,l),
(1400,-100,l),
(1400,-150,l),
(1642,-150,l),
(1642,-260,ls),
(1642,-450,o),
(1422,-450,qs),
(1231,-450,o),
(857,-200,o),
(600,-200,qs),
(250,-200,l),
(250,-250,l),
(600,-250,ls),
(844,-250,o),
(1215,-500,o),
(1422,-500,qs)
);
},
{
closed = 1;
nodes = (
(1700,0,l),
(1700,877,ls),
(1700,1029,o),
(1521,1200,o),
(1361,1200,qs),
(1143,1200,o),
(1011,990,q),
(1039,956,l),
(1166,1150,o),
(1361,1150,qs),
(1502,1150,o),
(1642,1014,o),
(1642,877,qs),
(1642,0,l)
);
}
);
width = 1950;
}
);
note = uni1789;
unicode = 6025;
},
{
glyphname = uni178A;
lastChange = "2024-07-08 04:22:56 +0000";
layers = (
{
layerId = m01;
shapes = (
{
closed = 1;
nodes = (
(469,0,l),
(651,180,l),
(832,0,l),
(1200,0,l),
(1200,823,l),
(812,823,l),
(812,321,l),
(691,444,l),
(610,444,l),
(488,321,l),
(488,823,l),
(100,823,l),
(100,0,l)
);
},
{
closed = 1;
nodes = (
(960,932,ls),
(1200,932,o),
(1200,1220,qs),
(1200,1400,l),
(812,1400,l),
(812,1220,ls),
(812,1170,o),
(700,1170,qs),
(488,1170,l),
(488,1250,l),
(100,1250,l),
(100,932,l)
);
}
);
width = 1300;
},
{
layerId = "A52C9687-8F69-441E-A346-B6B4B01C4528";
shapes = (
{
closed = 1;
nodes = (
(419,0,l),
(651,248,l),
(882,0,l),
(1100,0,l),
(1100,823,l),
(912,823,l),
(912,180,l),
(672,420,l),
(630,420,l),
(388,180,l),
(388,823,l),
(200,823,l),
(200,0,l)
);
},
{
closed = 1;
nodes = (
(800,962,ls),
(1100,962,o),
(1100,1150,qs),
(1100,1400,l),
(912,1400,l),
(912,1150,ls),
(912,1100,o),
(800,1100,qs),
(388,1100,l),
(388,1250,l),
(200,1250,l),
(200,962,l)
);
}
);
width = 1300;
},
{
layerId = "74807A0F-D47B-485E-A88B-DED3F6679B72";
shapes = (
{
closed = 1;
nodes = (
(323,0,l),
(651,348,l),
(979,0,l),
(1050,0,l),
(1050,823,l),
(992,823,l),
(992,59,l),
(672,400,l),
(630,400,l),
(308,58,l),
(308,823,l),
(250,823,l),
(250,0,l)
);
},
{
closed = 1;
nodes = (
(800,970,ls),
(1050,970,o),
(1050,1150,qs),
(1050,1400,l),
(992,1400,l),
(992,1150,ls),
(992,1020,o),
(800,1020,qs),
(308,1020,l),
(308,1250,l),
(250,1250,l),
(250,970,l)
);
}
);
width = 1300;
}
);
note = uni178A;
unicode = 6026;
},
{
glyphname = uni178B;
lastChange = "2024-07-08 04:22:56 +0000";
layers = (
{
layerId = m01;
shapes = (
{
closed = 1;
nodes = (
(1200,0,o),
(1200,323,qs),
(1200,840,l),
(939,991,l),
(951,1012,l),
(1110,1012,ls),
(1280,1012,o),
(1280,1250,qs),
(1280,1400,l),
(952,1400,l),
(952,1300,ls),
(952,1250,o),
(910,1250,qs),
(772,1250,l),
(691,1087,ls),
(664,1033,o),
(664,1012,qs),
(664,984,o),
(701,940,qs),
(812,806,l),
(812,323,ls),
(812,188,o),
(650,188,qs),
(488,188,o),
(488,323,qs),
(488,1128,ls),
(488,1250,o),
(338,1250,qs),
(29,1250,l),
(29,1012,l),
(65,1012,ls),
(100,1012,o),
(100,965,qs),
(100,323,ls),
(100,0,o),
(650,0,qs)
);
}
);
width = 1300;
},
{
layerId = "A52C9687-8F69-441E-A346-B6B4B01C4528";
shapes = (
{
closed = 1;
nodes = (
(1100,0,o),
(1100,323,qs),
(1100,840,l),
(769,1045,l),
(782,1062,l),
(842,1062,ls),
(1100,1062,o),
(1100,1250,qs),
(1100,1400,l),
(912,1400,l),
(912,1250,ls),
(912,1200,o),
(842,1200,qs),
(742,1200,l),
(630,1053,ls),
(614,1033,o),
(614,1012,qs),
(614,984,o),
(645,955,q),
(912,746,l),
(912,323,ls),
(912,138,o),
(650,138,qs),
(388,138,o),
(388,323,qs),
(388,1098,ls),
(388,1200,o),
(238,1200,qs),
(80,1200,l),
(80,1062,l),
(140,1062,ls),
(200,1062,o),
(200,1015,qs),
(200,323,ls),
(200,0,o),
(650,0,qs)
);
}
);
width = 1300;
},
{
layerId = "74807A0F-D47B-485E-A88B-DED3F6679B72";
shapes = (
{
closed = 1;
nodes = (
(1050,0,o),
(1050,323,qs),
(1050,833,l),
(803,1045,l),
(855,1150,l),
(942,1150,ls),
(1070,1150,o),
(1070,1260,qs),
(1070,1400,l),
(1012,1400,l),
(1012,1260,ls),
(1012,1200,o),
(942,1200,qs),
(824,1200,l),
(772,1097,ls),
(754,1062,o),
(754,1042,qs),
(754,1019,o),
(784,993,qs),
(992,813,l),
(992,323,ls),
(992,50,o),
(650,50,qs),
(308,50,o),
(308,323,qs),
(308,1048,ls),
(308,1200,o),
(160,1200,qs),
(89,1200,l),
(89,1150,l),
(160,1150,ls),
(250,1150,o),
(250,1048,qs),
(250,323,ls),
(250,0,o),
(650,0,qs)
);
}
);
width = 1300;
}
);
note = uni178B;
unicode = 6027;
},
{
glyphname = uni178C;
lastChange = "2024-07-08 04:22:56 +0000";
layers = (
{
layerId = m01;
shapes = (
{
closed = 1;
nodes = (
(1200,-50,l),
(1200,480,l),
(812,480,l),
(812,403,l),
(685,238,o),
(547,238,qs),
(488,238,o),
(488,323,qs),
(488,453,l),
(533,460,ls),
(1200,565,o),
(1200,877,qs),
(1200,953,ls),
(1200,1086,o),
(1051,1250,o),
(917,1250,qs),
(762,1250,o),
(650,1126,q),
(539,1250,o),
(385,1250,qs),
(240,1250,o),
(100,1086,o),
(100,953,qs),
(100,893,ls),
(100,719,o),
(538,719,q),
(538,863,l),
(488,863,o),
(488,897,qs),
(488,953,ls),
(488,977,o),
(501,1000,o),
(514,1000,qs),
(530,1000,o),
(604,921,qs),
(628,895,o),
(650,895,qs),
(672,895,o),
(697,921,qs),
(771,1000,o),
(787,1000,qs),
(800,1000,o),
(812,977,o),
(812,953,qs),
(812,877,ls),
(812,687,o),
(434,639,qs),
(100,596,l),
(100,323,ls),
(100,0,o),
(430,0,qs),
(620,0,o),
(812,153,q),
(812,-50,l)
);
}
);
width = 1300;
},
{
layerId = "A52C9687-8F69-441E-A346-B6B4B01C4528";
shapes = (
{
closed = 1;
nodes = (
(1100,-50,l),
(1100,480,l),
(912,480,l),
(912,403,l),
(735,138,o),
(515,138,qs),
(388,138,o),
(388,323,qs),
(388,473,l),
(566,499,ls),
(1100,575,o),
(1100,877,qs),
(1100,923,ls),
(1100,1036,o),
(951,1200,o),
(857,1200,qs),
(762,1200,o),
(650,1076,q),
(539,1200,o),
(445,1200,qs),
(350,1200,o),
(200,1036,o),
(200,923,qs),
(200,873,ls),
(200,719,o),
(488,719,q),
(488,863,l),
(388,863,o),
(388,897,qs),
(388,923,ls),
(388,990,o),
(425,1050,o),
(461,1050,qs),
(510,1050,o),
(591,956,qs),
(618,925,o),
(650,925,qs),
(682,925,o),
(709,956,qs),
(791,1050,o),
(840,1050,qs),
(876,1050,o),
(912,1000,o),
(912,923,qs),
(912,877,ls),
(912,687,o),
(556,636,qs),
(200,586,l),
(200,323,ls),
(200,0,o),
(500,0,qs),
(730,0,o),
(912,193,q),
(912,-50,l)
);
}
);
width = 1300;
},
{
layerId = "74807A0F-D47B-485E-A88B-DED3F6679B72";
shapes = (
{
closed = 1;
nodes = (
(1050,-50,l),
(1050,480,l),
(992,480,l),
(992,323,l),
(852,50,o),
(530,50,qs),
(308,50,o),
(308,323,qs),
(308,509,l),
(566,552,ls),
(1050,632,o),
(1050,877,qs),
(1050,923,ls),
(1050,1052,o),
(944,1200,o),
(857,1200,qs),
(762,1200,o),
(650,1056,q),
(539,1200,o),
(445,1200,qs),
(358,1200,o),
(250,1052,o),
(250,923,qs),
(250,877,ls),
(250,719,o),
(438,719,q),
(438,773,l),
(308,773,o),
(308,877,qs),
(308,923,ls),
(308,1037,o),
(377,1150,o),
(445,1150,qs),
(504,1150,o),
(593,1034,qs),
(622,995,o),
(650,995,qs),
(678,995,o),
(708,1034,qs),
(797,1150,o),
(857,1150,qs),
(925,1150,o),
(992,1037,o),
(992,923,qs),
(992,877,ls),
(992,673,o),
(556,601,qs),
(250,551,l),
(250,323,ls),
(250,0,o),
(530,0,qs),
(836,0,o),
(992,222,q),
(992,-50,l)
);
}
);
width = 1300;
}
);
note = uni178C;
unicode = 6028;
},
{
glyphname = uni178D;
lastChange = "2024-07-08 04:22:56 +0000";
layers = (
{
layerId = m01;
shapes = (
{
closed = 1;
nodes = (
(668,0,o),
(668,259,qs),
(668,467,o),
(488,467,qs),
(474,467,l),
(474,323,l),
(488,323,ls),
(550,323,o),
(550,259,qs),
(550,154,o),
(502,154,qs),
(488,154,o),
(488,174,qs),
(488,923,ls),
(488,952,o),
(505,980,o),
(521,980,qs),
(554,980,o),
(591,936,qs),
(618,905,o),
(650,905,qs),
(682,905,o),
(709,936,qs),
(746,980,o),
(780,980,qs),
(796,980,o),
(812,952,o),
(812,923,qs),
(812,0,l),
(1200,0,l),
(1200,973,ls),
(1200,1086,o),
(1001,1250,o),
(907,1250,qs),
(762,1250,o),
(650,1126,q),
(539,1250,o),
(395,1250,qs),
(300,1250,o),
(100,1086,o),
(100,973,qs),
(100,127,ls),
(100,0,o),
(384,0,qs)
);
},
{
closed = 1;
nodes = (
(1800,0,o),
(1800,323,qs),
(1800,840,l),
(1539,991,l),
(1551,1012,l),
(1800,1012,l),
(1800,1250,l),
(1372,1250,l),
(1276,1087,ls),
(1244,1033,o),
(1244,1012,qs),
(1244,984,o),
(1286,940,qs),
(1412,806,l),
(1412,323,ls),
(1412,238,o),
(1370,238,qs),
(1328,238,o),
(1278,323,qs),
(1236,400,l),
(1180,400,l),
(1180,89,l),
(1277,0,o),
(1420,0,qs)
);
}
);
width = 1900;
},
{
layerId = "A52C9687-8F69-441E-A346-B6B4B01C4528";
shapes = (
{
closed = 1;
nodes = (
(598,0,o),
(598,249,qs),
(598,448,o),
(398,448,qs),
(365,448,l),
(365,310,l),
(398,310,ls),
(480,310,o),
(480,249,qs),
(480,138,o),
(410,138,qs),
(388,138,o),
(388,161,qs),
(388,923,ls),
(388,987,o),
(425,1050,o),
(461,1050,qs),
(510,1050,o),
(591,956,qs),
(618,925,o),
(650,925,qs),
(682,925,o),
(709,956,qs),
(791,1050,o),
(840,1050,qs),
(876,1050,o),
(912,987,o),
(912,923,qs),
(912,0,l),
(1100,0,l),
(1100,923,ls),
(1100,1036,o),
(951,1200,o),
(857,1200,qs),
(762,1200,o),
(650,1076,q),
(539,1200,o),
(445,1200,qs),
(350,1200,o),
(200,1036,o),
(200,923,qs),
(200,161,ls),
(200,0,o),
(388,0,qs)
);
},
{
closed = 1;
nodes = (
(1700,0,o),
(1700,323,qs),
(1700,840,l),
(1483,1034,l),
(1504,1062,l),
(1700,1062,l),
(1700,1200,l),
(1452,1200,l),
(1340,1053,ls),
(1324,1033,o),
(1324,1012,qs),
(1324,984,o),
(1355,955,qs),
(1512,806,l),
(1512,323,ls),
(1512,138,o),
(1420,138,qs),
(1285,138,o),
(1207,326,qs),
(1176,400,l),
(1084,400,l),
(1084,262,l),
(1190,0,o),
(1420,0,qs)
);
}
);
width = 1900;
},
{
layerId = "74807A0F-D47B-485E-A88B-DED3F6679B72";
shapes = (
{
closed = 1;
nodes = (
(550,0,o),
(550,249,qs),
(550,400,o),
(388,400,qs),
(288,400,l),
(288,350,l),
(388,350,ls),
(500,350,o),
(500,249,qs),
(500,50,o),
(388,50,qs),
(308,50,o),
(308,122,qs),
(308,923,ls),
(308,1037,o),
(377,1150,o),
(445,1150,qs),
(504,1150,o),
(593,1034,qs),
(622,995,o),
(650,995,qs),
(678,995,o),
(708,1034,qs),
(797,1150,o),
(857,1150,qs),
(925,1150,o),
(992,1037,o),
(992,923,qs),
(992,0,l),
(1050,0,l),
(1050,923,ls),
(1050,1052,o),
(944,1200,o),
(857,1200,qs),
(762,1200,o),
(650,1056,q),
(539,1200,o),
(445,1200,qs),
(358,1200,o),
(250,1052,o),
(250,923,qs),
(250,122,ls),
(250,0,o),
(388,0,qs)
);
},
{
closed = 1;
nodes = (
(1650,0,o),
(1650,323,qs),
(1650,830,l),
(1403,1050,l),
(1455,1150,l),
(1650,1150,l),
(1650,1200,l),
(1432,1200,l),
(1374,1105,ls),
(1354,1073,o),
(1354,1052,qs),
(1354,1024,o),
(1384,997,qs),
(1592,806,l),
(1592,323,ls),
(1592,50,o),
(1370,50,qs),
(1205,50,o),
(1116,275,qs),
(1086,350,l),
(1044,350,l),
(1044,300,l),
(1160,0,o),
(1370,0,qs)
);
}
);
width = 1900;
}
);
note = uni178D;
unicode = 6029;
},
{
glyphname = uni178E;
lastChange = "2024-07-08 04:22:56 +0000";
layers = (
{
layerId = m01;
shapes = (
{
closed = 1;
nodes = (
(668,0,o),
(668,259,qs),
(668,467,o),
(488,467,qs),
(474,467,l),
(474,323,l),
(488,323,ls),
(550,323,o),
(550,259,qs),
(550,154,o),
(502,154,qs),
(488,154,o),
(488,174,qs),
(488,877,ls),
(488,1012,o),
(619,1012,qs),
(750,1012,o),
(750,877,qs),
(750,0,l),
(1119,0,l),
(1270,149,l),
(1420,0,l),
(1788,0,l),
(1788,877,ls),
(1788,1012,o),
(1919,1012,qs),
(2050,1012,o),
(2050,877,qs),
(2050,0,l),
(2438,0,l),
(2438,877,ls),
(2438,1250,o),
(1919,1250,qs),
(1400,1250,o),
(1400,877,qs),
(1400,321,l),
(1303,421,l),
(1237,421,l),
(1138,321,l),
(1138,877,ls),
(1138,1250,o),
(619,1250,qs),
(100,1250,o),
(100,877,qs),
(100,127,ls),
(100,0,o),
(384,0,qs)
);
}
);
width = 2538;
},
{
layerId = "A52C9687-8F69-441E-A346-B6B4B01C4528";
shapes = (
{
closed = 1;
nodes = (
(598,0,o),
(598,249,qs),
(598,448,o),
(398,448,qs),
(365,448,l),
(365,310,l),
(398,310,ls),
(480,310,o),
(480,249,qs),
(480,138,o),
(410,138,qs),
(388,138,o),
(388,161,qs),
(388,877,ls),
(388,1062,o),
(619,1062,qs),
(850,1062,o),
(850,877,qs),
(850,0,l),
(1069,0,l),
(1270,182,l),
(1470,0,l),
(1688,0,l),
(1688,877,ls),
(1688,1062,o),
(1919,1062,qs),
(2150,1062,o),
(2150,877,qs),
(2150,0,l),
(2338,0,l),
(2338,877,ls),
(2338,1200,o),
(1919,1200,qs),
(1500,1200,o),
(1500,877,qs),
(1500,167,l),
(1299,351,l),
(1241,351,l),
(1038,166,l),
(1038,877,ls),
(1038,1200,o),
(619,1200,qs),
(200,1200,o),
(200,877,qs),
(200,161,ls),
(200,0,o),
(388,0,qs)
);
}
);
width = 2538;
},
{
layerId = "74807A0F-D47B-485E-A88B-DED3F6679B72";
shapes = (
{
closed = 1;
nodes = (
(550,0,o),
(550,249,qs),
(550,400,o),
(388,400,qs),
(288,400,l),
(288,350,l),
(388,350,ls),
(500,350,o),
(500,249,qs),
(500,50,o),
(388,50,qs),
(308,50,o),
(308,122,qs),
(308,877,ls),
(308,1150,o),
(612,1150,qs),
(915,1150,o),
(915,877,qs),
(915,0,l),
(988,0,l),
(1270,299,l),
(1552,0,l),
(1623,0,l),
(1623,877,ls),
(1623,1150,o),
(1927,1150,qs),
(2230,1150,o),
(2230,877,qs),
(2230,0,l),
(2288,0,l),
(2288,877,ls),
(2288,1200,o),
(1927,1200,qs),
(1565,1200,o),
(1565,877,qs),
(1565,59,l),
(1288,354,l),
(1251,354,l),
(973,58,l),
(973,877,ls),
(973,1200,o),
(612,1200,qs),
(250,1200,o),
(250,877,qs),
(250,122,ls),
(250,0,o),
(388,0,qs)
);
}
);
width = 2538;
}
);
note = uni178E;
unicode = 6030;
},
{
glyphname = uni178F;
lastChange = "2024-07-08 04:22:56 +0000";
layers = (
{
layerId = m01;
shapes = (
{
closed = 1;
nodes = (
(668,0,o),
(668,259,qs),
(668,467,o),
(488,467,qs),
(474,467,l),
(474,323,l),
(488,323,ls),
(550,323,o),
(550,259,qs),
(550,154,o),
(502,154,qs),
(488,154,o),
(488,174,qs),
(488,570,ls),
(488,655,o),
(650,655,qs),
(812,655,o),
(812,570,qs),
(812,0,l),
(1200,0,l),
(1200,570,ls),
(1200,893,o),
(650,893,qs),
(100,893,o),
(100,570,qs),
(100,127,ls),
(100,0,o),
(384,0,qs)
);
},
{
closed = 1;
nodes = (
(1200,1012,l),
(1200,1250,l),
(100,1250,l),
(100,1012,l)
);
}
);
width = 1300;
},
{
layerId = "A52C9687-8F69-441E-A346-B6B4B01C4528";
shapes = (
{
closed = 1;
nodes = (
(598,0,o),
(598,249,qs),
(598,448,o),
(398,448,qs),
(365,448,l),
(365,310,l),
(398,310,ls),
(480,310,o),
(480,249,qs),
(480,138,o),
(410,138,qs),
(388,138,o),
(388,161,qs),
(388,600,ls),
(388,785,o),
(650,785,qs),
(912,785,o),
(912,600,qs),
(912,0,l),
(1100,0,l),
(1100,600,ls),
(1100,923,o),
(650,923,qs),
(200,923,o),
(200,600,qs),
(200,161,ls),
(200,0,o),
(388,0,qs)
);
},
{
closed = 1;
nodes = (
(1100,1062,l),
(1100,1200,l),
(200,1200,l),
(200,1062,l)
);
}
);
width = 1300;
},
{
layerId = "74807A0F-D47B-485E-A88B-DED3F6679B72";
shapes = (
{
closed = 1;
nodes = (
(550,0,o),
(550,249,qs),
(550,400,o),
(388,400,qs),
(288,400,l),
(288,350,l),
(388,350,ls),
(500,350,o),
(500,249,qs),
(500,50,o),
(388,50,qs),
(308,50,o),
(308,122,qs),
(308,600,ls),
(308,873,o),
(650,873,qs),
(992,873,o),
(992,600,qs),
(992,0,l),
(1050,0,l),
(1050,600,ls),
(1050,923,o),
(650,923,qs),
(250,923,o),
(250,600,qs),
(250,122,ls),
(250,0,o),
(388,0,qs)
);
},
{
closed = 1;
nodes = (
(1050,1150,l),
(1050,1200,l),
(250,1200,l),
(250,1150,l)
);
}
);
width = 1300;
}
);
note = uni178F;
unicode = 6031;
},
{
glyphname = uni1790;
lastChange = "2024-07-08 04:22:56 +0000";
layers = (
{
layerId = m01;
shapes = (
{
closed = 1;
nodes = (
(1200,0,o),
(1200,323,qs),
(1200,728,ls),
(1200,890,o),
(901,890,qs),
(602,890,o),
(602,691,qs),
(602,492,o),
(792,492,qs),
(827,492,l),
(827,630,l),
(792,630,ls),
(750,630,o),
(750,691,qs),
(750,752,o),
(791,752,qs),
(812,752,o),
(812,728,qs),
(812,323,ls),
(812,188,o),
(650,188,qs),
(488,188,o),
(488,323,qs),
(488,820,l),
(237,974,l),
(263,1012,l),
(930,1012,ls),
(1200,1012,o),
(1200,1250,qs),
(1200,1400,l),
(812,1400,l),
(812,1300,ls),
(812,1250,o),
(750,1250,qs),
(218,1250,l),
(70,1057,ls),
(20,992,o),
(20,955,qs),
(20,914,o),
(60,850,qs),
(100,786,l),
(100,323,ls),
(100,0,o),
(650,0,qs)
);
}
);
width = 1300;
},
{
layerId = "A52C9687-8F69-441E-A346-B6B4B01C4528";
shapes = (
{
closed = 1;
nodes = (
(1100,0,o),
(1100,323,qs),
(1100,743,ls),
(1100,900,o),
(896,900,qs),
(702,900,o),
(702,701,qs),
(702,502,o),
(892,502,qs),
(930,502,l),
(930,640,l),
(892,640,ls),
(820,640,o),
(820,701,qs),
(820,762,o),
(896,762,qs),
(912,762,o),
(912,743,qs),
(912,323,ls),
(912,138,o),
(650,138,qs),
(388,138,o),
(388,323,qs),
(388,820,l),
(237,992,l),
(293,1062,l),
(800,1062,ls),
(1100,1062,o),
(1100,1250,qs),
(1100,1400,l),
(912,1400,l),
(912,1250,ls),
(912,1200,o),
(800,1200,qs),
(258,1200,l),
(118,1017,ls),
(100,992,o),
(100,955,qs),
(100,914,o),
(136,868,qs),
(200,786,l),
(200,323,ls),
(200,0,o),
(650,0,qs)
);
}
);
width = 1300;
},
{
layerId = "74807A0F-D47B-485E-A88B-DED3F6679B72";
shapes = (
{
closed = 1;
nodes = (
(1050,0,o),
(1050,323,qs),
(1050,778,ls),
(1050,900,o),
(912,900,qs),
(720,900,o),
(720,700,qs),
(720,520,o),
(912,520,qs),
(1002,520,l),
(1002,570,l),
(912,570,ls),
(770,570,o),
(770,700,qs),
(770,850,o),
(912,850,qs),
(992,850,o),
(992,778,qs),
(992,323,ls),
(992,50,o),
(650,50,qs),
(308,50,o),
(308,323,qs),
(308,850,l),
(162,1048,l),
(230,1150,l),
(800,1150,ls),
(1050,1150,o),
(1050,1280,qs),
(1050,1400,l),
(992,1400,l),
(992,1280,ls),
(992,1200,o),
(800,1200,qs),
(203,1200,l),
(121,1077,ls),
(109,1059,o),
(109,1045,qs),
(109,1030,o),
(127,1006,qs),
(250,836,l),
(250,323,ls),
(250,0,o),
(650,0,qs)
);
}
);
width = 1300;
}
);
note = uni1790;
unicode = 6032;
},
{
glyphname = uni1791;
lastChange = "2024-07-08 04:22:56 +0000";
layers = (
{
layerId = m01;
shapes = (
{
closed = 1;
nodes = (
(1092,0,o),
(1092,323,qs),
(1092,659,ls),
(1092,690,o),
(1108,690,qs),
(1124,690,o),
(1124,670,qs),
(1124,640,o),
(1011,640,qs),
(827,640,ls),
(488,640,o),
(488,877,qs),
(488,1012,o),
(650,1012,qs),
(812,1012,o),
(812,877,q),
(1200,877,l),
(1200,1250,o),
(650,1250,qs),
(100,1250,o),
(100,877,qs),
(100,490,o),
(830,490,qs),
(1011,490,ls),
(1200,490,o),
(1200,670,qs),
(1200,790,o),
(992,790,qs),
(750,790,o),
(750,660,qs),
(750,323,ls),
(750,238,o),
(644,238,qs),
(538,238,o),
(538,323,qs),
(538,460,l),
(150,460,l),
(150,323,ls),
(150,0,o),
(644,0,qs)
);
}
);
width = 1300;
},
{
layerId = "A52C9687-8F69-441E-A346-B6B4B01C4528";
shapes = (
{
closed = 1;
nodes = (
(992,0,o),
(992,323,qs),
(992,629,ls),
(992,660,o),
(1008,660,qs),
(1024,660,o),
(1024,640,qs),
(1024,610,o),
(911,610,qs),
(827,610,ls),
(388,610,o),
(388,877,qs),
(388,1052,o),
(650,1052,qs),
(912,1052,o),
(912,877,q),
(1100,877,l),
(1100,1200,o),
(650,1200,qs),
(200,1200,o),
(200,877,qs),
(200,490,o),
(830,490,qs),
(911,490,ls),
(1100,490,o),
(1100,640,qs),
(1100,760,o),
(962,760,qs),
(804,760,o),
(804,630,qs),
(804,323,ls),
(804,138,o),
(621,138,qs),
(438,138,o),
(438,323,qs),
(438,480,l),
(250,480,l),
(250,323,ls),
(250,0,o),
(621,0,qs)
);
}
);
width = 1300;
},
{
layerId = "74807A0F-D47B-485E-A88B-DED3F6679B72";
shapes = (
{
closed = 1;
nodes = (
(902,0,o),
(902,323,qs),
(902,599,ls),
(902,670,o),
(947,670,qs),
(994,670,o),
(994,620,qs),
(994,570,o),
(911,570,qs),
(827,570,ls),
(308,570,o),
(308,877,qs),
(308,1150,o),
(650,1150,qs),
(992,1150,o),
(992,877,q),
(1050,877,l),
(1050,1200,o),
(650,1200,qs),
(250,1200,o),
(250,877,qs),
(250,520,o),
(830,520,qs),
(911,520,ls),
(1050,520,o),
(1050,620,qs),
(1050,720,o),
(947,720,qs),
(844,720,o),
(844,600,qs),
(844,323,ls),
(844,50,o),
(601,50,qs),
(358,50,o),
(358,323,qs),
(358,480,l),
(300,480,l),
(300,323,ls),
(300,0,o),
(601,0,qs)
);
}
);
width = 1300;
}
);
note = uni1791;
unicode = 6033;
},
{
glyphname = uni1792;
lastChange = "2024-07-08 04:22:56 +0000";
layers = (
{
layerId = m01;
shapes = (
{
closed = 1;
nodes = (
(469,0,l),
(651,180,l),
(832,0,l),
(1200,0,l),
(1200,728,ls),
(1200,890,o),
(901,890,qs),
(602,890,o),
(602,691,qs),
(602,492,o),
(792,492,qs),
(827,492,l),
(827,630,l),
(792,630,ls),
(750,630,o),
(750,691,qs),
(750,752,o),
(791,752,qs),
(812,752,o),
(812,728,qs),
(812,321,l),
(691,443,l),
(610,443,l),
(488,321,l),
(488,820,l),
(237,974,l),
(263,1012,l),
(1200,1012,l),
(1200,1250,l),
(168,1250,l),
(39,1025,ls),
(20,992,o),
(20,955,qs),
(20,914,o),
(40,882,qs),
(100,786,l),
(100,0,l)
);
}
);
width = 1300;
},
{
layerId = "A52C9687-8F69-441E-A346-B6B4B01C4528";
shapes = (
{
closed = 1;
nodes = (
(419,0,l),
(651,248,l),
(882,0,l),
(1100,0,l),
(1100,743,ls),
(1100,900,o),
(896,900,qs),
(702,900,o),
(702,701,qs),
(702,502,o),
(892,502,qs),
(930,502,l),
(930,640,l),
(892,640,ls),
(820,640,o),
(820,701,qs),
(820,762,o),
(896,762,qs),
(912,762,o),
(912,743,qs),
(912,180,l),
(672,420,l),
(630,420,l),
(388,180,l),
(388,820,l),
(237,992,l),
(288,1062,l),
(1100,1062,l),
(1100,1200,l),
(258,1200,l),
(118,1017,ls),
(100,992,o),
(100,955,qs),
(100,914,o),
(136,868,qs),
(200,786,l),
(200,0,l)
);
}
);
width = 1300;
},
{
layerId = "74807A0F-D47B-485E-A88B-DED3F6679B72";
shapes = (
{
closed = 1;
nodes = (
(323,0,l),
(651,348,l),
(979,0,l),
(1050,0,l),
(1050,778,ls),
(1050,900,o),
(912,900,qs),
(720,900,o),
(720,700,qs),
(720,520,o),
(912,520,qs),
(1002,520,l),
(1002,570,l),
(912,570,ls),
(770,570,o),
(770,700,qs),
(770,850,o),
(912,850,qs),
(992,850,o),
(992,778,qs),
(992,59,l),
(672,400,l),
(630,400,l),
(308,58,l),
(308,850,l),
(162,1048,l),
(230,1150,l),
(1050,1150,l),
(1050,1200,l),
(203,1200,l),
(121,1077,ls),
(109,1059,o),
(109,1045,qs),
(109,1030,o),
(127,1006,qs),
(250,836,l),
(250,0,l)
);
}
);
width = 1300;
}
);
note = uni1792;
unicode = 6034;
},
{
glyphname = uni1793;
lastChange = "2024-07-08 04:22:56 +0000";
layers = (
{
layerId = m01;
shapes = (
{
closed = 1;
nodes = (
(488,0,l),
(488,169,l),
(510,169,ls),
(550,169,o),
(585,127,qs),
(688,0,o),
(890,0,qs),
(1200,0,o),
(1200,295,qs),
(1200,378,ls),
(1200,615,o),
(844,688,qs),
(488,761,o),
(488,914,qs),
(488,1012,o),
(650,1012,qs),
(812,1012,o),
(812,955,qs),
(812,920,o),
(752,920,q),
(752,770,l),
(1200,770,o),
(1200,955,qs),
(1200,1250,o),
(650,1250,qs),
(100,1250,o),
(100,914,qs),
(100,630,o),
(723,527,qs),
(812,512,o),
(812,378,qs),
(812,284,ls),
(812,238,o),
(774,238,qs),
(731,238,o),
(716,256,qs),
(610,385,o),
(510,385,qs),
(488,385,l),
(488,504,l),
(100,504,l),
(100,0,l)
);
}
);
width = 1300;
},
{
layerId = "A52C9687-8F69-441E-A346-B6B4B01C4528";
shapes = (
{
closed = 1;
nodes = (
(388,0,l),
(388,212,l),
(452,212,ls),
(515,212,o),
(615,93,qs),
(690,0,o),
(820,0,qs),
(1100,0,o),
(1100,283,qs),
(1100,363,ls),
(1100,586,o),
(744,636,qs),
(388,687,o),
(388,877,qs),
(388,1062,o),
(650,1062,qs),
(912,1062,o),
(912,897,qs),
(912,863,o),
(812,863,q),
(812,719,l),
(1100,719,o),
(1100,897,qs),
(1100,1200,o),
(650,1200,qs),
(200,1200,o),
(200,877,qs),
(200,575,o),
(734,499,qs),
(912,473,o),
(912,363,qs),
(912,273,ls),
(912,138,o),
(820,138,qs),
(780,138,o),
(728,205,qs),
(609,350,o),
(452,350,qs),
(388,350,l),
(388,503,l),
(200,504,l),
(200,0,l)
);
}
);
width = 1300;
},
{
layerId = "74807A0F-D47B-485E-A88B-DED3F6679B72";
shapes = (
{
closed = 1;
nodes = (
(308,0,l),
(308,250,l),
(380,250,ls),
(554,250,o),
(620,128,qs),
(690,0,o),
(820,0,qs),
(1050,0,o),
(1050,283,qs),
(1050,363,ls),
(1050,530,o),
(748,595,qs),
(308,689,o),
(308,897,qs),
(308,1150,o),
(650,1150,qs),
(992,1150,o),
(992,897,qs),
(992,775,o),
(862,775,q),
(862,721,l),
(1050,721,o),
(1050,897,qs),
(1050,1200,o),
(650,1200,qs),
(250,1200,o),
(250,897,qs),
(250,651,o),
(735,547,qs),
(992,491,o),
(992,363,qs),
(992,273,ls),
(992,50,o),
(820,50,qs),
(725,50,o),
(669,154,qs),
(591,300,o),
(380,300,qs),
(308,300,l),
(308,510,l),
(250,510,l),
(250,0,l)
);
}
);
width = 1300;
}
);
note = uni1793;
unicode = 6035;
},
{
glyphname = uni1794;
lastChange = "2024-07-08 04:22:56 +0000";
layers = (
{
layerId = m01;
shapes = (
{
closed = 1;
nodes = (
(1200,0,o),
(1200,323,qs),
(1200,840,l),
(939,991,l),
(951,1012,l),
(1200,1012,l),
(1200,1250,l),
(772,1250,l),
(676,1087,ls),
(644,1033,o),
(644,1012,qs),
(644,984,o),
(686,940,qs),
(812,806,l),
(812,323,ls),
(812,238,o),
(650,238,qs),
(488,238,o),
(488,323,qs),
(488,840,l),
(277,1001,l),
(283,1012,l),
(558,1012,l),
(558,1250,l),
(140,1250,l),
(42,1084,ls),
(9,1029,o),
(9,1005,qs),
(9,980,o),
(32,946,qs),
(100,843,l),
(100,323,ls),
(100,0,o),
(650,0,qs)
);
}
);
width = 1300;
},
{
layerId = "A52C9687-8F69-441E-A346-B6B4B01C4528";
shapes = (
{
closed = 1;
nodes = (
(1100,0,o),
(1100,323,qs),
(1100,840,l),
(883,1034,l),
(904,1062,l),
(1100,1062,l),
(1100,1200,l),
(852,1200,l),
(740,1053,ls),
(724,1033,o),
(724,1012,qs),
(724,984,o),
(755,955,qs),
(912,806,l),
(912,323,ls),
(912,138,o),
(650,138,qs),
(388,138,o),
(388,323,qs),
(388,840,l),
(215,1034,l),
(237,1062,l),
(438,1062,l),
(438,1200,l),
(190,1200,l),
(78,1053,ls),
(59,1029,o),
(59,1005,qs),
(59,980,o),
(80,955,qs),
(200,806,l),
(200,323,ls),
(200,0,o),
(650,0,qs)
);
}
);
width = 1300;
},
{
layerId = "74807A0F-D47B-485E-A88B-DED3F6679B72";
shapes = (
{
closed = 1;
nodes = (
(1050,0,o),
(1050,323,qs),
(1050,830,l),
(803,1050,l),
(855,1150,l),
(1050,1150,l),
(1050,1200,l),
(832,1200,l),
(774,1105,ls),
(754,1073,o),
(754,1052,qs),
(754,1024,o),
(784,997,qs),
(992,806,l),
(992,323,ls),
(992,50,o),
(650,50,qs),
(308,50,o),
(308,323,qs),
(308,830,l),
(122,1048,l),
(200,1150,l),
(408,1150,l),
(408,1200,l),
(180,1200,l),
(97,1102,ls),
(69,1069,o),
(69,1045,qs),
(69,1020,o),
(92,994,qs),
(250,806,l),
(250,323,ls),
(250,0,o),
(650,0,qs)
);
}
);
width = 1300;
}
);
note = uni1794;
unicode = 6036;
},
{
glyphname = uni1795;
lastChange = "2024-07-08 04:22:56 +0000";
layers = (
{
layerId = m01;
shapes = (
{
closed = 1;
nodes = (
(469,0,l),
(651,180,l),
(832,0,l),
(1200,0,l),
(1200,728,ls),
(1200,890,o),
(901,890,qs),
(602,890,o),
(602,691,qs),
(602,492,o),
(792,492,qs),
(827,492,l),
(827,630,l),
(792,630,ls),
(750,630,o),
(750,691,qs),
(750,752,o),
(791,752,qs),
(812,752,o),
(812,728,qs),
(812,321,l),
(691,443,l),
(610,443,l),
(488,321,l),
(488,820,l),
(237,974,l),
(263,1012,l),
(930,1012,ls),
(1200,1012,o),
(1200,1250,qs),
(1200,1400,l),
(812,1400,l),
(812,1300,ls),
(812,1250,o),
(750,1250,qs),
(218,1250,l),
(70,1057,ls),
(20,992,o),
(20,955,qs),
(20,914,o),
(60,850,qs),
(100,786,l),
(100,0,l)
);
}
);
width = 1300;
},
{
layerId = "A52C9687-8F69-441E-A346-B6B4B01C4528";
shapes = (
{
closed = 1;
nodes = (
(419,0,l),
(651,248,l),
(882,0,l),
(1100,0,l),
(1100,743,ls),
(1100,900,o),
(896,900,qs),
(702,900,o),
(702,701,qs),
(702,502,o),
(892,502,qs),
(930,502,l),
(930,640,l),
(892,640,ls),
(820,640,o),
(820,701,qs),
(820,762,o),
(896,762,qs),
(912,762,o),
(912,743,qs),
(912,180,l),
(672,420,l),
(630,420,l),
(388,180,l),
(388,820,l),
(237,992,l),
(293,1062,l),
(800,1062,ls),
(1100,1062,o),
(1100,1250,qs),
(1100,1400,l),
(912,1400,l),
(912,1250,ls),
(912,1200,o),
(800,1200,qs),
(258,1200,l),
(118,1017,ls),
(100,992,o),
(100,955,qs),
(100,914,o),
(136,868,qs),
(200,786,l),
(200,0,l)
);
}
);
width = 1300;
},
{
layerId = "74807A0F-D47B-485E-A88B-DED3F6679B72";
shapes = (
{
closed = 1;
nodes = (
(323,0,l),
(651,348,l),
(979,0,l),
(1050,0,l),
(1050,778,ls),
(1050,900,o),
(912,900,qs),
(720,900,o),
(720,700,qs),
(720,520,o),
(912,520,qs),
(1002,520,l),
(1002,570,l),
(912,570,ls),
(770,570,o),
(770,700,qs),
(770,850,o),
(912,850,qs),
(992,850,o),
(992,778,qs),
(992,59,l),
(672,400,l),
(630,400,l),
(308,58,l),
(308,850,l),
(162,1048,l),
(230,1150,l),
(800,1150,ls),
(1050,1150,o),
(1050,1280,qs),
(1050,1400,l),
(992,1400,l),
(992,1280,ls),
(992,1200,o),
(800,1200,qs),
(203,1200,l),
(121,1077,ls),
(109,1059,o),
(109,1045,qs),
(109,1030,o),
(127,1006,qs),
(250,836,l),
(250,0,l)
);
}
);
width = 1300;
}
);
note = uni1795;
unicode = 6037;
},
{
glyphname = uni1796;
lastChange = "2024-07-08 04:22:56 +0000";
layers = (
{
layerId = m01;
shapes = (
{
closed = 1;
nodes = (
(668,0,o),
(668,259,qs),
(668,467,o),
(488,467,qs),
(474,467,l),
(474,323,l),
(488,323,ls),
(550,323,o),
(550,259,qs),
(550,154,o),
(502,154,qs),
(488,154,o),
(488,174,qs),
(488,923,ls),
(488,952,o),
(505,980,o),
(521,980,qs),
(554,980,o),
(591,936,qs),
(618,905,o),
(650,905,qs),
(682,905,o),
(709,936,qs),
(746,980,o),
(780,980,qs),
(796,980,o),
(812,952,o),
(812,923,qs),
(812,0,l),
(1200,0,l),
(1200,973,ls),
(1200,1086,o),
(1001,1250,o),
(907,1250,qs),
(762,1250,o),
(650,1126,q),
(539,1250,o),
(395,1250,qs),
(300,1250,o),
(100,1086,o),
(100,973,qs),
(100,127,ls),
(100,0,o),
(384,0,qs)
);
}
);
width = 1300;
},
{
layerId = "A52C9687-8F69-441E-A346-B6B4B01C4528";
shapes = (
{
closed = 1;
nodes = (
(598,0,o),
(598,249,qs),
(598,448,o),
(398,448,qs),
(365,448,l),
(365,310,l),
(398,310,ls),
(480,310,o),
(480,249,qs),
(480,138,o),
(410,138,qs),
(388,138,o),
(388,161,qs),
(388,923,ls),
(388,987,o),
(425,1050,o),
(461,1050,qs),
(510,1050,o),
(591,956,qs),
(618,925,o),
(650,925,qs),
(682,925,o),
(709,956,qs),
(791,1050,o),
(840,1050,qs),
(876,1050,o),
(912,987,o),
(912,923,qs),
(912,0,l),
(1100,0,l),
(1100,923,ls),
(1100,1036,o),
(951,1200,o),
(857,1200,qs),
(762,1200,o),
(650,1076,q),
(539,1200,o),
(445,1200,qs),
(350,1200,o),
(200,1036,o),
(200,923,qs),
(200,161,ls),
(200,0,o),
(388,0,qs)
);
}
);
width = 1300;
},
{
layerId = "74807A0F-D47B-485E-A88B-DED3F6679B72";
shapes = (
{
closed = 1;
nodes = (
(550,0,o),
(550,249,qs),
(550,400,o),
(388,400,qs),
(288,400,l),
(288,350,l),
(388,350,ls),
(500,350,o),
(500,249,qs),
(500,50,o),
(388,50,qs),
(308,50,o),
(308,122,qs),
(308,923,ls),
(308,1037,o),
(377,1150,o),
(445,1150,qs),
(504,1150,o),
(593,1034,qs),
(622,995,o),
(650,995,qs),
(678,995,o),
(708,1034,qs),
(797,1150,o),
(857,1150,qs),
(925,1150,o),
(992,1037,o),
(992,923,qs),
(992,0,l),
(1050,0,l),
(1050,923,ls),
(1050,1052,o),
(944,1200,o),
(857,1200,qs),
(762,1200,o),
(650,1056,q),
(539,1200,o),
(445,1200,qs),
(358,1200,o),
(250,1052,o),
(250,923,qs),
(250,122,ls),
(250,0,o),
(388,0,qs)
);
}
);
width = 1300;
}
);
note = uni1796;
unicode = 6038;
},
{
glyphname = uni1797;
lastChange = "2024-07-08 04:22:56 +0000";
layers = (
{
layerId = m01;
shapes = (
{
closed = 1;
nodes = (
(558,0,o),
(558,224,qs),
(558,348,o),
(488,520,o),
(488,570,qs),
(488,655,o),
(650,655,qs),
(812,655,o),
(812,570,qs),
(812,0,l),
(1200,0,l),
(1200,570,ls),
(1200,893,o),
(650,893,qs),
(100,893,o),
(100,570,qs),
(100,487,o),
(190,307,o),
(190,264,qs),
(190,234,o),
(166,234,qs),
(148,234,o),
(119,304,q),
(10,253,l),
(60,0,o),
(306,0,qs)
);
},
{
closed = 1;
nodes = (
(1200,1012,l),
(1200,1250,l),
(100,1250,l),
(100,1012,l)
);
}
);
width = 1300;
},
{
layerId = "A52C9687-8F69-441E-A346-B6B4B01C4528";
shapes = (
{
closed = 1;
nodes = (
(458,0,o),
(458,224,qs),
(458,348,o),
(388,540,o),
(388,600,qs),
(388,785,o),
(650,785,qs),
(912,785,o),
(912,600,qs),
(912,0,l),
(1100,0,l),
(1100,600,ls),
(1100,923,o),
(650,923,qs),
(200,923,o),
(200,600,qs),
(200,507,o),
(270,267,o),
(270,224,qs),
(270,174,o),
(236,174,qs),
(181,174,o),
(147,264,q),
(40,223,l),
(80,0,o),
(236,0,qs)
);
},
{
closed = 1;
nodes = (
(1100,1062,l),
(1100,1200,l),
(200,1200,l),
(200,1062,l)
);
}
);
width = 1300;
},
{
layerId = "74807A0F-D47B-485E-A88B-DED3F6679B72";
shapes = (
{
closed = 1;
nodes = (
(398,0,o),
(398,174,qs),
(398,318,o),
(308,480,o),
(308,600,qs),
(308,873,o),
(650,873,qs),
(992,873,o),
(992,600,qs),
(992,0,l),
(1050,0,l),
(1050,600,ls),
(1050,923,o),
(650,923,qs),
(250,923,o),
(250,600,qs),
(250,477,o),
(340,297,o),
(340,174,qs),
(340,50,o),
(266,50,qs),
(181,50,o),
(147,234,q),
(90,223,l),
(130,0,o),
(266,0,qs)
);
},
{
closed = 1;
nodes = (
(1050,1150,l),
(1050,1200,l),
(250,1200,l),
(250,1150,l)
);
}
);
width = 1300;
}
);
note = uni1797;
unicode = 6039;
},
{
glyphname = uni1798;
lastChange = "2024-07-08 04:22:56 +0000";
layers = (
{
layerId = m01;
shapes = (
{
closed = 1;
nodes = (
(1200,0,o),
(1200,323,qs),
(1200,840,l),
(939,991,l),
(951,1012,l),
(1200,1012,l),
(1200,1250,l),
(772,1250,l),
(676,1087,ls),
(644,1033,o),
(644,1012,qs),
(644,984,o),
(686,940,qs),
(812,806,l),
(812,323,ls),
(812,238,o),
(650,238,qs),
(488,238,o),
(488,323,qs),
(488,840,l),
(277,1001,l),
(283,1012,l),
(558,1012,l),
(558,1250,l),
(140,1250,l),
(42,1084,ls),
(9,1029,o),
(9,1005,qs),
(9,980,o),
(32,946,qs),
(100,843,l),
(100,323,ls),
(100,0,o),
(650,0,qs)
);
},
{
closed = 1;
nodes = (
(852,481,l),
(852,719,l),
(448,719,l),
(448,481,l)
);
}
);
width = 1300;
},
{
layerId = "A52C9687-8F69-441E-A346-B6B4B01C4528";
shapes = (
{
closed = 1;
nodes = (
(1100,0,o),
(1100,323,qs),
(1100,840,l),
(883,1034,l),
(904,1062,l),
(1100,1062,l),
(1100,1200,l),
(852,1200,l),
(740,1053,ls),
(724,1033,o),
(724,1012,qs),
(724,984,o),
(755,955,qs),
(912,806,l),
(912,323,ls),
(912,138,o),
(650,138,qs),
(388,138,o),
(388,323,qs),
(388,840,l),
(215,1034,l),
(237,1062,l),
(438,1062,l),
(438,1200,l),
(190,1200,l),
(78,1053,ls),
(59,1029,o),
(59,1005,qs),
(59,980,o),
(80,955,qs),
(200,806,l),
(200,323,ls),
(200,0,o),
(650,0,qs)
);
},
{
closed = 1;
nodes = (
(952,531,l),
(952,669,l),
(348,669,l),
(348,531,l)
);
}
);
width = 1300;
},
{
layerId = "74807A0F-D47B-485E-A88B-DED3F6679B72";
shapes = (
{
closed = 1;
nodes = (
(1050,0,o),
(1050,323,qs),
(1050,830,l),
(803,1050,l),
(855,1150,l),
(1050,1150,l),
(1050,1200,l),
(832,1200,l),
(774,1105,ls),
(754,1073,o),
(754,1052,qs),
(754,1024,o),
(784,997,qs),
(992,806,l),
(992,323,ls),
(992,50,o),
(650,50,qs),
(308,50,o),
(308,323,qs),
(308,830,l),
(122,1048,l),
(200,1150,l),
(408,1150,l),
(408,1200,l),
(180,1200,l),
(97,1102,ls),
(69,1069,o),
(69,1045,qs),
(69,1020,o),
(92,994,qs),
(250,806,l),
(250,323,ls),
(250,0,o),
(650,0,qs)
);
},
{
closed = 1;
nodes = (
(1012,575,l),
(1012,625,l),
(288,625,l),
(288,575,l)
);
}
);
width = 1300;
}
);
note = uni1798;
unicode = 6040;
},
{
glyphname = uni1799;
lastChange = "2024-07-08 04:22:56 +0000";
layers = (
{
layerId = m01;
shapes = (
{
closed = 1;
nodes = (
(879,0,o),
(1004,109,q),
(1128,0,o),
(1331,0,qs),
(1850,0,o),
(1850,323,qs),
(1850,840,l),
(1589,991,l),
(1601,1012,l),
(1850,1012,l),
(1850,1250,l),
(1422,1250,l),
(1326,1087,ls),
(1294,1033,o),
(1294,1012,qs),
(1294,984,o),
(1336,940,qs),
(1462,806,l),
(1462,323,ls),
(1462,238,o),
(1331,238,qs),
(1199,238,o),
(1199,323,qs),
(1199,840,l),
(938,991,l),
(950,1012,l),
(1199,1012,l),
(1199,1250,l),
(771,1250,l),
(675,1087,ls),
(643,1033,o),
(643,1012,qs),
(643,984,o),
(685,940,qs),
(811,806,l),
(811,323,ls),
(811,238,o),
(650,238,qs),
(488,238,o),
(488,323,qs),
(488,965,ls),
(488,1012,o),
(524,1012,qs),
(559,1012,l),
(559,1250,l),
(300,1250,ls),
(100,1250,o),
(100,1128,qs),
(100,323,ls),
(100,0,o),
(650,0,qs)
);
}
);
width = 1950;
},
{
layerId = "A52C9687-8F69-441E-A346-B6B4B01C4528";
shapes = (
{
closed = 1;
nodes = (
(850,0,o),
(956,98,q),
(1062,0,o),
(1281,0,qs),
(1700,0,o),
(1700,323,qs),
(1700,840,l),
(1483,1034,l),
(1504,1062,l),
(1700,1062,l),
(1700,1200,l),
(1452,1200,l),
(1340,1053,ls),
(1324,1033,o),
(1324,1012,qs),
(1324,984,o),
(1355,955,qs),
(1512,806,l),
(1512,323,ls),
(1512,138,o),
(1281,138,qs),
(1050,138,o),
(1050,323,qs),
(1050,840,l),
(877,1034,l),
(899,1062,l),
(1100,1062,l),
(1100,1200,l),
(852,1200,l),
(740,1053,ls),
(721,1029,o),
(721,1005,qs),
(721,980,o),
(742,955,qs),
(862,806,l),
(862,323,ls),
(862,138,o),
(625,138,qs),
(388,138,o),
(388,323,qs),
(388,1015,ls),
(388,1062,o),
(458,1062,qs),
(529,1062,l),
(529,1200,l),
(350,1200,ls),
(200,1200,o),
(200,1098,qs),
(200,323,ls),
(200,0,o),
(625,0,qs)
);
}
);
width = 1950;
},
{
layerId = "74807A0F-D47B-485E-A88B-DED3F6679B72";
shapes = (
{
closed = 1;
nodes = (
(926,0,o),
(1000,166,q),
(1074,0,o),
(1336,0,qs),
(1700,0,o),
(1700,323,qs),
(1700,830,l),
(1453,1050,l),
(1505,1150,l),
(1700,1150,l),
(1700,1200,l),
(1482,1200,l),
(1424,1105,ls),
(1404,1073,o),
(1404,1052,qs),
(1404,1024,o),
(1434,997,qs),
(1642,806,l),
(1642,323,ls),
(1642,50,o),
(1336,50,qs),
(1029,50,o),
(1029,323,qs),
(1029,830,l),
(843,1048,l),
(921,1150,l),
(1129,1150,l),
(1129,1200,l),
(901,1200,l),
(818,1102,ls),
(790,1069,o),
(790,1045,qs),
(790,1020,o),
(813,994,qs),
(971,806,l),
(971,323,ls),
(971,50,o),
(640,50,qs),
(308,50,o),
(308,323,qs),
(308,1048,ls),
(308,1150,o),
(398,1150,qs),
(469,1150,l),
(469,1200,l),
(398,1200,ls),
(250,1200,o),
(250,1048,qs),
(250,323,ls),
(250,0,o),
(640,0,qs)
);
}
);
width = 1950;
}
);
note = uni1799;
unicode = 6041;
},
{
glyphname = uni179A;
lastChange = "2024-07-08 04:22:56 +0000";
layers = (
{
layerId = m01;
shapes = (
{
closed = 1;
nodes = (
(558,0,o),
(558,127,qs),
(558,840,l),
(297,991,l),
(309,1012,l),
(558,1012,l),
(558,1250,l),
(130,1250,l),
(49,1087,ls),
(22,1033,o),
(22,1012,qs),
(22,984,o),
(59,940,qs),
(170,806,l),
(170,174,ls),
(170,154,o),
(156,154,qs),
(128,154,o),
(128,259,qs),
(128,323,o),
(170,323,qs),
(184,323,l),
(184,467,l),
(170,467,ls),
(20,467,o),
(20,259,qs),
(20,0,o),
(274,0,qs)
);
}
);
width = 658;
},
{
layerId = "A52C9687-8F69-441E-A346-B6B4B01C4528";
shapes = (
{
closed = 1;
nodes = (
(458,0,o),
(458,162,qs),
(458,840,l),
(241,1034,l),
(262,1062,l),
(458,1062,l),
(458,1200,l),
(210,1200,l),
(98,1053,ls),
(82,1033,o),
(82,1012,qs),
(82,984,o),
(113,955,qs),
(270,806,l),
(270,162,ls),
(270,138,o),
(254,138,qs),
(198,138,o),
(198,249,qs),
(198,310,o),
(260,310,qs),
(293,310,l),
(293,448,l),
(260,448,ls),
(80,448,o),
(80,249,qs),
(80,0,o),
(270,0,qs)
);
}
);
width = 658;
},
{
layerId = "74807A0F-D47B-485E-A88B-DED3F6679B72";
shapes = (
{
closed = 1;
nodes = (
(408,0,o),
(408,122,qs),
(408,830,l),
(161,1050,l),
(213,1150,l),
(408,1150,l),
(408,1200,l),
(190,1200,l),
(132,1105,ls),
(112,1073,o),
(112,1052,qs),
(112,1024,o),
(142,997,qs),
(350,806,l),
(350,122,ls),
(350,50,o),
(270,50,qs),
(158,50,o),
(158,249,qs),
(158,350,o),
(270,350,qs),
(370,350,l),
(370,400,l),
(270,400,ls),
(108,400,o),
(108,249,qs),
(108,0,o),
(270,0,qs)
);
}
);
width = 658;
}
);
note = uni179A;
unicode = 6042;
},
{
glyphname = uni179B;
lastChange = "2024-07-08 04:22:56 +0000";
layers = (
{
layerId = m01;
shapes = (
{
closed = 1;
nodes = (
(668,0,o),
(668,259,qs),
(668,467,o),
(488,467,qs),
(474,467,l),
(474,323,l),
(488,323,ls),
(550,323,o),
(550,259,qs),
(550,154,o),
(502,154,qs),
(488,154,o),
(488,174,qs),
(488,914,ls),
(488,1012,o),
(625,1012,qs),
(762,1012,o),
(762,914,qs),
(762,336,ls),
(762,0,o),
(1281,0,qs),
(1800,0,o),
(1800,336,qs),
(1800,840,l),
(1539,991,l),
(1551,1012,l),
(1800,1012,l),
(1800,1250,l),
(1372,1250,l),
(1276,1087,ls),
(1244,1033,o),
(1244,1012,qs),
(1244,984,o),
(1286,940,qs),
(1412,806,l),
(1412,336,ls),
(1412,238,o),
(1281,238,qs),
(1150,238,o),
(1150,336,qs),
(1150,914,ls),
(1150,1250,o),
(625,1250,qs),
(100,1250,o),
(100,914,qs),
(100,127,ls),
(100,0,o),
(384,0,qs)
);
}
);
width = 1900;
},
{
layerId = "A52C9687-8F69-441E-A346-B6B4B01C4528";
shapes = (
{
closed = 1;
nodes = (
(598,0,o),
(598,249,qs),
(598,448,o),
(398,448,qs),
(365,448,l),
(365,310,l),
(398,310,ls),
(480,310,o),
(480,249,qs),
(480,138,o),
(410,138,qs),
(388,138,o),
(388,161,qs),
(388,877,ls),
(388,1062,o),
(625,1062,qs),
(862,1062,o),
(862,877,qs),
(862,323,ls),
(862,0,o),
(1281,0,qs),
(1700,0,o),
(1700,323,qs),
(1700,840,l),
(1483,1034,l),
(1504,1062,l),
(1700,1062,l),
(1700,1200,l),
(1452,1200,l),
(1340,1053,ls),
(1324,1033,o),
(1324,1012,qs),
(1324,984,o),
(1355,955,qs),
(1512,806,l),
(1512,323,ls),
(1512,138,o),
(1281,138,qs),
(1050,138,o),
(1050,323,qs),
(1050,877,ls),
(1050,1200,o),
(625,1200,qs),
(200,1200,o),
(200,877,qs),
(200,161,ls),
(200,0,o),
(388,0,qs)
);
}
);
width = 1900;
},
{
layerId = "74807A0F-D47B-485E-A88B-DED3F6679B72";
shapes = (
{
closed = 1;
nodes = (
(550,0,o),
(550,249,qs),
(550,400,o),
(388,400,qs),
(288,400,l),
(288,350,l),
(388,350,ls),
(500,350,o),
(500,249,qs),
(500,50,o),
(388,50,qs),
(308,50,o),
(308,122,qs),
(308,877,ls),
(308,1150,o),
(625,1150,qs),
(927,1150,o),
(927,877,qs),
(927,323,ls),
(927,0,o),
(1281,0,qs),
(1650,0,o),
(1650,323,qs),
(1650,830,l),
(1403,1050,l),
(1455,1150,l),
(1650,1150,l),
(1650,1200,l),
(1432,1200,l),
(1374,1105,ls),
(1354,1073,o),
(1354,1052,qs),
(1354,1024,o),
(1384,997,qs),
(1592,806,l),
(1592,323,ls),
(1592,50,o),
(1281,50,qs),
(985,50,o),
(985,323,qs),
(985,877,ls),
(985,1200,o),
(625,1200,qs),
(250,1200,o),
(250,877,qs),
(250,122,ls),
(250,0,o),
(388,0,qs)
);
}
);
width = 1900;
}
);
note = uni179B;
unicode = 6043;
},
{
glyphname = uni179C;
lastChange = "2024-07-08 04:22:56 +0000";
layers = (
{
layerId = m01;
shapes = (
{
closed = 1;
nodes = (
(558,0,o),
(558,127,qs),
(558,840,l),
(297,991,l),
(309,1012,l),
(468,1012,ls),
(638,1012,o),
(638,1250,qs),
(638,1400,l),
(310,1400,l),
(310,1300,ls),
(310,1250,o),
(268,1250,qs),
(130,1250,l),
(49,1087,ls),
(22,1033,o),
(22,1012,qs),
(22,984,o),
(59,940,qs),
(170,806,l),
(170,174,ls),
(170,154,o),
(156,154,qs),
(128,154,o),
(128,259,qs),
(128,323,o),
(170,323,qs),
(184,323,l),
(184,467,l),
(170,467,ls),
(20,467,o),
(20,259,qs),
(20,0,o),
(274,0,qs)
);
}
);
width = 658;
},
{
layerId = "A52C9687-8F69-441E-A346-B6B4B01C4528";
shapes = (
{
closed = 1;
nodes = (
(458,0,o),
(458,162,qs),
(458,840,l),
(230,1045,l),
(243,1062,l),
(300,1062,ls),
(550,1062,o),
(550,1250,qs),
(550,1400,l),
(362,1400,l),
(362,1250,ls),
(362,1200,o),
(300,1200,qs),
(210,1200,l),
(98,1053,ls),
(82,1033,o),
(82,1012,qs),
(82,984,o),
(113,955,qs),
(270,806,l),
(270,162,ls),
(270,138,o),
(254,138,qs),
(198,138,o),
(198,249,qs),
(198,310,o),
(260,310,qs),
(293,310,l),
(293,448,l),
(260,448,ls),
(80,448,o),
(80,249,qs),
(80,0,o),
(270,0,qs)
);
}
);
width = 658;
},
{
layerId = "74807A0F-D47B-485E-A88B-DED3F6679B72";
shapes = (
{
closed = 1;
nodes = (
(408,0,o),
(408,122,qs),
(408,830,l),
(161,1050,l),
(213,1150,l),
(308,1150,ls),
(436,1150,o),
(436,1260,qs),
(436,1400,l),
(378,1400,l),
(378,1260,ls),
(378,1200,o),
(308,1200,qs),
(190,1200,l),
(132,1105,ls),
(112,1073,o),
(112,1052,qs),
(112,1024,o),
(142,997,qs),
(350,806,l),
(350,122,ls),
(350,50,o),
(270,50,qs),
(158,50,o),
(158,249,qs),
(158,350,o),
(270,350,qs),
(370,350,l),
(370,400,l),
(270,400,ls),
(108,400,o),
(108,249,qs),
(108,0,o),
(270,0,qs)
);
}
);
width = 658;
}
);
note = uni179C;
unicode = 6044;
},
{
glyphname = uni179D;
lastChange = "2024-07-08 04:22:56 +0000";
layers = (
{
layerId = m01;
shapes = (
{
closed = 1;
nodes = (
(488,0,l),
(488,76,l),
(523,212,o),
(666,212,qs),
(710,212,l),
(710,450,l),
(663,450,ls),
(525,450,o),
(488,327,q),
(488,570,ls),
(488,655,o),
(650,655,qs),
(812,655,o),
(812,570,qs),
(812,0,l),
(1200,0,l),
(1200,570,ls),
(1200,893,o),
(650,893,qs),
(100,893,o),
(100,570,qs),
(100,0,l)
);
},
{
closed = 1;
nodes = (
(1270,212,l),
(1270,450,l),
(740,450,l),
(740,212,l)
);
},
{
closed = 1;
nodes = (
(1200,1012,l),
(1200,1250,l),
(100,1250,l),
(100,1012,l)
);
}
);
width = 1300;
},
{
layerId = "A52C9687-8F69-441E-A346-B6B4B01C4528";
shapes = (
{
closed = 1;
nodes = (
(388,0,l),
(388,86,l),
(433,262,o),
(596,262,qs),
(700,262,l),
(700,400,l),
(573,400,ls),
(457,400,o),
(388,320,q),
(388,600,ls),
(388,785,o),
(650,785,qs),
(912,785,o),
(912,600,qs),
(912,0,l),
(1100,0,l),
(1100,600,ls),
(1100,923,o),
(650,923,qs),
(200,923,o),
(200,600,qs),
(200,0,l)
);
},
{
closed = 1;
nodes = (
(1200,262,l),
(1200,400,l),
(740,400,l),
(740,262,l)
);
},
{
closed = 1;
nodes = (
(1100,1062,l),
(1100,1200,l),
(200,1200,l),
(200,1062,l)
);
}
);
width = 1300;
},
{
layerId = "74807A0F-D47B-485E-A88B-DED3F6679B72";
shapes = (
{
closed = 1;
nodes = (
(308,0,l),
(308,65,l),
(373,300,o),
(576,300,qs),
(630,300,l),
(630,350,l),
(576,350,ls),
(367,350,o),
(308,179,q),
(308,600,ls),
(308,873,o),
(650,873,qs),
(992,873,o),
(992,600,qs),
(992,0,l),
(1050,0,l),
(1050,600,ls),
(1050,923,o),
(650,923,qs),
(250,923,o),
(250,600,qs),
(250,0,l)
);
},
{
closed = 1;
nodes = (
(1200,300,l),
(1200,350,l),
(740,350,l),
(740,300,l)
);
},
{
closed = 1;
nodes = (
(1050,1150,l),
(1050,1200,l),
(250,1200,l),
(250,1150,l)
);
}
);
width = 1300;
}
);
note = uni179D;
unicode = 6045;
},
{
glyphname = uni179E;
lastChange = "2024-07-08 04:22:56 +0000";
layers = (
{
layerId = m01;
shapes = (
{
closed = 1;
nodes = (
(1200,0,o),
(1200,323,qs),
(1200,840,l),
(939,991,l),
(951,1012,l),
(1200,1012,l),
(1200,1250,l),
(772,1250,l),
(676,1087,ls),
(644,1033,o),
(644,1012,qs),
(644,984,o),
(686,940,qs),
(812,806,l),
(812,323,ls),
(812,238,o),
(650,238,qs),
(488,238,o),
(488,323,qs),
(488,840,l),
(277,1001,l),
(283,1012,l),
(558,1012,l),
(558,1250,l),
(140,1250,l),
(42,1084,ls),
(9,1029,o),
(9,1005,qs),
(9,980,o),
(32,946,qs),
(100,843,l),
(100,323,ls),
(100,0,o),
(650,0,qs)
);
},
{
closed = 1;
nodes = (
(1270,506,l),
(1270,744,l),
(690,744,l),
(690,506,l)
);
}
);
width = 1300;
},
{
layerId = "A52C9687-8F69-441E-A346-B6B4B01C4528";
shapes = (
{
closed = 1;
nodes = (
(1100,0,o),
(1100,323,qs),
(1100,840,l),
(883,1034,l),
(904,1062,l),
(1100,1062,l),
(1100,1200,l),
(852,1200,l),
(740,1053,ls),
(724,1033,o),
(724,1012,qs),
(724,984,o),
(755,955,qs),
(912,806,l),
(912,323,ls),
(912,138,o),
(650,138,qs),
(388,138,o),
(388,323,qs),
(388,840,l),
(215,1034,l),
(237,1062,l),
(438,1062,l),
(438,1200,l),
(190,1200,l),
(78,1053,ls),
(59,1029,o),
(59,1005,qs),
(59,980,o),
(80,955,qs),
(200,806,l),
(200,323,ls),
(200,0,o),
(650,0,qs)
);
},
{
closed = 1;
nodes = (
(1200,531,l),
(1200,669,l),
(740,669,l),
(740,531,l)
);
}
);
width = 1300;
},
{
layerId = "74807A0F-D47B-485E-A88B-DED3F6679B72";
shapes = (
{
closed = 1;
nodes = (
(1050,0,o),
(1050,323,qs),
(1050,830,l),
(803,1050,l),
(855,1150,l),
(1050,1150,l),
(1050,1200,l),
(832,1200,l),
(774,1105,ls),
(754,1073,o),
(754,1052,qs),
(754,1024,o),
(784,997,qs),
(992,806,l),
(992,323,ls),
(992,50,o),
(650,50,qs),
(308,50,o),
(308,323,qs),
(308,830,l),
(122,1048,l),
(200,1150,l),
(408,1150,l),
(408,1200,l),
(180,1200,l),
(97,1102,ls),
(69,1069,o),
(69,1045,qs),
(69,1020,o),
(92,994,qs),
(250,806,l),
(250,323,ls),
(250,0,o),
(650,0,qs)
);
},
{
closed = 1;
nodes = (
(1200,575,l),
(1200,625,l),
(740,625,l),
(740,575,l)
);
}
);
width = 1300;
}
);
note = uni179E;
unicode = 6046;
},
{
glyphname = uni179F;
lastChange = "2024-07-08 04:22:56 +0000";
layers = (
{
layerId = m01;
shapes = (
{
closed = 1;
nodes = (
(668,0,o),
(668,259,qs),
(668,467,o),
(488,467,qs),
(474,467,l),
(474,323,l),
(488,323,ls),
(550,323,o),
(550,259,qs),
(550,154,o),
(502,154,qs),
(488,154,o),
(488,174,qs),
(488,594,ls),
(488,692,o),
(625,692,qs),
(762,692,o),
(762,594,qs),
(762,336,ls),
(762,0,o),
(1281,0,qs),
(1800,0,o),
(1800,336,qs),
(1800,840,l),
(1539,991,l),
(1551,1012,l),
(1800,1012,l),
(1800,1250,l),
(1372,1250,l),
(1276,1087,ls),
(1244,1033,o),
(1244,1012,qs),
(1244,984,o),
(1286,940,qs),
(1412,806,l),
(1412,336,ls),
(1412,238,o),
(1281,238,qs),
(1150,238,o),
(1150,336,qs),
(1150,594,ls),
(1150,930,o),
(625,930,qs),
(100,930,o),
(100,594,qs),
(100,127,ls),
(100,0,o),
(384,0,qs)
);
},
{
closed = 1;
nodes = (
(484,903,l),
(393,1002,l),
(400,1012,l),
(860,1012,l),
(860,1250,l),
(330,1250,l),
(207,1057,ls),
(189,1029,o),
(189,1005,qs),
(189,970,o),
(210,945,qs),
(316,821,l)
);
}
);
width = 1900;
},
{
layerId = "A52C9687-8F69-441E-A346-B6B4B01C4528";
shapes = (
{
closed = 1;
nodes = (
(598,0,o),
(598,249,qs),
(598,448,o),
(398,448,qs),
(365,448,l),
(365,310,l),
(398,310,ls),
(480,310,o),
(480,249,qs),
(480,138,o),
(410,138,qs),
(388,138,o),
(388,161,qs),
(388,600,ls),
(388,785,o),
(625,785,qs),
(862,785,o),
(862,600,qs),
(862,323,ls),
(862,0,o),
(1281,0,qs),
(1700,0,o),
(1700,323,qs),
(1700,840,l),
(1483,1034,l),
(1504,1062,l),
(1700,1062,l),
(1700,1200,l),
(1452,1200,l),
(1340,1053,ls),
(1324,1033,o),
(1324,1012,qs),
(1324,984,o),
(1355,955,qs),
(1512,806,l),
(1512,323,ls),
(1512,138,o),
(1281,138,qs),
(1050,138,o),
(1050,323,qs),
(1050,600,ls),
(1050,923,o),
(625,923,qs),
(200,923,o),
(200,600,qs),
(200,161,ls),
(200,0,o),
(388,0,qs)
);
},
{
closed = 1;
nodes = (
(525,896,l),
(396,1044,l),
(410,1062,l),
(850,1062,l),
(850,1200,l),
(380,1200,l),
(268,1053,ls),
(249,1029,o),
(249,1005,qs),
(249,980,o),
(270,955,qs),
(376,833,l)
);
}
);
width = 1900;
},
{
layerId = "74807A0F-D47B-485E-A88B-DED3F6679B72";
shapes = (
{
closed = 1;
nodes = (
(550,0,o),
(550,249,qs),
(550,400,o),
(388,400,qs),
(288,400,l),
(288,350,l),
(388,350,ls),
(500,350,o),
(500,249,qs),
(500,50,o),
(388,50,qs),
(308,50,o),
(308,122,qs),
(308,557,ls),
(308,830,o),
(618,830,qs),
(927,830,o),
(927,557,qs),
(927,323,ls),
(927,0,o),
(1281,0,qs),
(1650,0,o),
(1650,323,qs),
(1650,830,l),
(1403,1050,l),
(1455,1150,l),
(1650,1150,l),
(1650,1200,l),
(1432,1200,l),
(1374,1105,ls),
(1354,1073,o),
(1354,1052,qs),
(1354,1024,o),
(1384,997,qs),
(1592,806,l),
(1592,323,ls),
(1592,50,o),
(1281,50,qs),
(985,50,o),
(985,323,qs),
(985,557,ls),
(985,880,o),
(618,880,qs),
(250,880,o),
(250,557,qs),
(250,122,ls),
(250,0,o),
(388,0,qs)
);
},
{
closed = 1;
nodes = (
(553,866,l),
(363,1050,l),
(425,1150,l),
(810,1150,l),
(810,1200,l),
(399,1200,l),
(335,1097,ls),
(314,1063,o),
(314,1042,qs),
(314,1023,o),
(337,1001,qs),
(499,845,l)
);
}
);
width = 1900;
}
);
note = uni179F;
unicode = 6047;
},
{
glyphname = uni17A0;
lastChange = "2024-07-08 04:22:56 +0000";
layers = (
{
layerId = m01;
shapes = (
{
closed = 1;
nodes = (
(1150,0,o),
(1150,336,qs),
(1150,914,ls),
(1150,1012,o),
(1281,1012,qs),
(1412,1012,o),
(1412,914,qs),
(1412,0,l),
(1800,0,l),
(1800,914,ls),
(1800,1250,o),
(1281,1250,qs),
(762,1250,o),
(762,914,qs),
(762,336,ls),
(762,238,o),
(625,238,qs),
(488,238,o),
(488,336,qs),
(488,840,l),
(277,1001,l),
(283,1012,l),
(558,1012,l),
(558,1250,l),
(140,1250,l),
(42,1084,ls),
(9,1029,o),
(9,1005,qs),
(9,980,o),
(32,946,qs),
(100,843,l),
(100,336,ls),
(100,0,o),
(625,0,qs)
);
}
);
width = 1900;
},
{
layerId = "A52C9687-8F69-441E-A346-B6B4B01C4528";
shapes = (
{
closed = 1;
nodes = (
(1050,0,o),
(1050,323,qs),
(1050,877,ls),
(1050,1062,o),
(1281,1062,qs),
(1512,1062,o),
(1512,877,qs),
(1512,0,l),
(1700,0,l),
(1700,877,ls),
(1700,1200,o),
(1275,1200,qs),
(862,1200,o),
(862,877,qs),
(862,323,ls),
(862,138,o),
(625,138,qs),
(388,138,o),
(388,323,qs),
(388,840,l),
(215,1034,l),
(237,1062,l),
(438,1062,l),
(438,1200,l),
(190,1200,l),
(78,1053,ls),
(59,1029,o),
(59,1005,qs),
(59,980,o),
(80,955,qs),
(200,806,l),
(200,323,ls),
(200,0,o),
(625,0,qs)
);
}
);
width = 1900;
},
{
layerId = "74807A0F-D47B-485E-A88B-DED3F6679B72";
shapes = (
{
closed = 1;
nodes = (
(985,0,o),
(985,323,qs),
(985,877,ls),
(985,1150,o),
(1289,1150,qs),
(1592,1150,o),
(1592,877,qs),
(1592,0,l),
(1650,0,l),
(1650,877,ls),
(1650,1200,o),
(1289,1200,qs),
(927,1200,o),
(927,877,qs),
(927,323,ls),
(927,50,o),
(618,50,qs),
(308,50,o),
(308,323,qs),
(308,830,l),
(122,1048,l),
(200,1150,l),
(408,1150,l),
(408,1200,l),
(180,1200,l),
(97,1102,ls),
(69,1069,o),
(69,1045,qs),
(69,1020,o),
(92,994,qs),
(250,806,l),
(250,323,ls),
(250,0,o),
(618,0,qs)
);
}
);
width = 1900;
}
);
note = uni17A0;
unicode = 6048;
},
{
glyphname = uni17A1;
lastChange = "2024-07-08 04:22:56 +0000";
layers = (
{
layerId = m01;
shapes = (
{
closed = 1;
nodes = (
(1119,-490,l),
(1276,-363,l),
(1432,-490,l),
(1800,-490,l),
(1800,840,l),
(1539,991,l),
(1551,1012,l),
(1800,1012,l),
(1800,1250,l),
(1372,1250,l),
(1276,1087,ls),
(1244,1033,o),
(1244,1012,qs),
(1244,984,o),
(1286,940,qs),
(1412,806,l),
(1412,-249,l),
(1310,-166,l),
(1242,-166,l),
(1138,-249,l),
(1138,-149,ls),
(1138,-50,o),
(1019,-50,qs),
(700,-50,l),
(700,-194,l),
(725,-194,ls),
(750,-194,o),
(750,-212,qs),
(750,-490,l)
);
},
{
closed = 1;
nodes = (
(1092,0,o),
(1092,323,qs),
(1092,659,ls),
(1092,690,o),
(1108,690,qs),
(1124,690,o),
(1124,670,qs),
(1124,640,o),
(1011,640,qs),
(827,640,ls),
(488,640,o),
(488,877,qs),
(488,1012,o),
(650,1012,qs),
(812,1012,o),
(812,877,q),
(1200,877,l),
(1200,1250,o),
(650,1250,qs),
(100,1250,o),
(100,877,qs),
(100,490,o),
(830,490,qs),
(1011,490,ls),
(1200,490,o),
(1200,670,qs),
(1200,790,o),
(992,790,qs),
(750,790,o),
(750,660,qs),
(750,323,ls),
(750,238,o),
(644,238,qs),
(538,238,o),
(538,323,qs),
(538,460,l),
(150,460,l),
(150,323,ls),
(150,0,o),
(644,0,qs)
);
}
);
width = 1900;
},
{
layerId = "A52C9687-8F69-441E-A346-B6B4B01C4528";
shapes = (
{
closed = 1;
nodes = (
(1069,-470,l),
(1276,-291,l),
(1482,-470,l),
(1700,-470,l),
(1700,840,l),
(1483,1034,l),
(1504,1062,l),
(1700,1062,l),
(1700,1200,l),
(1452,1200,l),
(1340,1053,ls),
(1324,1033,o),
(1324,1012,qs),
(1324,984,o),
(1355,955,qs),
(1512,806,l),
(1512,-311,l),
(1306,-131,l),
(1246,-131,l),
(1038,-312,l),
(1038,-151,ls),
(1038,-50,o),
(934,-50,qs),
(750,-50,l),
(750,-187,l),
(800,-187,ls),
(850,-187,o),
(850,-233,qs),
(850,-470,l)
);
},
{
closed = 1;
nodes = (
(992,0,o),
(992,323,qs),
(992,629,ls),
(992,660,o),
(1008,660,qs),
(1024,660,o),
(1024,640,qs),
(1024,610,o),
(911,610,qs),
(827,610,ls),
(388,610,o),
(388,877,qs),
(388,1052,o),
(650,1052,qs),
(912,1052,o),
(912,877,q),
(1100,877,l),
(1100,1200,o),
(650,1200,qs),
(200,1200,o),
(200,877,qs),
(200,490,o),
(830,490,qs),
(911,490,ls),
(1100,490,o),
(1100,640,qs),
(1100,760,o),
(962,760,qs),
(804,760,o),
(804,630,qs),
(804,323,ls),
(804,138,o),
(621,138,qs),
(438,138,o),
(438,323,qs),
(438,480,l),
(250,480,l),
(250,323,ls),
(250,0,o),
(621,0,qs)
);
}
);
width = 1900;
},
{
layerId = "74807A0F-D47B-485E-A88B-DED3F6679B72";
shapes = (
{
closed = 1;
nodes = (
(1061,-470,l),
(1322,-266,l),
(1582,-470,l),
(1650,-470,l),
(1650,830,l),
(1403,1050,l),
(1455,1150,l),
(1650,1150,l),
(1650,1200,l),
(1432,1200,l),
(1374,1105,ls),
(1354,1073,o),
(1354,1052,qs),
(1354,1024,o),
(1384,997,qs),
(1592,806,l),
(1592,-408,l),
(1339,-207,l),
(1305,-207,l),
(1050,-409,l),
(1050,-135,ls),
(1050,-60,o),
(962,-60,qs),
(862,-60,l),
(862,-114,l),
(962,-114,ls),
(992,-114,o),
(992,-135,qs),
(992,-470,l)
);
},
{
closed = 1;
nodes = (
(902,0,o),
(902,323,qs),
(902,599,ls),
(902,670,o),
(947,670,qs),
(994,670,o),
(994,620,qs),
(994,570,o),
(911,570,qs),
(827,570,ls),
(308,570,o),
(308,877,qs),
(308,1150,o),
(650,1150,qs),
(992,1150,o),
(992,877,q),
(1050,877,l),
(1050,1200,o),
(650,1200,qs),
(250,1200,o),
(250,877,qs),
(250,520,o),
(830,520,qs),
(911,520,ls),
(1050,520,o),
(1050,620,qs),
(1050,720,o),
(947,720,qs),
(844,720,o),
(844,600,qs),
(844,323,ls),
(844,50,o),
(601,50,qs),
(358,50,o),
(358,323,qs),
(358,480,l),
(300,480,l),
(300,323,ls),
(300,0,o),
(601,0,qs)
);
}
);
width = 1900;
}
);
note = uni17A1;
unicode = 6049;
},
{
glyphname = uni17A2;
lastChange = "2024-07-08 04:24:53 +0000";
layers = (
{
layerId = m01;
shapes = (
{
closed = 1;
nodes = (
(1200,0,o),
(1200,127,qs),
(1200,840,l),
(939,991,l),
(951,1012,l),
(1200,1012,l),
(1200,1250,l),
(772,1250,l),
(691,1087,ls),
(664,1033,o),
(664,1012,qs),
(664,984,o),
(701,940,qs),
(812,806,l),
(812,174,ls),
(812,154,o),
(798,154,qs),
(770,154,o),
(770,259,qs),
(770,303,o),
(812,303,qs),
(826,303,l),
(826,447,l),
(812,447,ls),
(662,447,o),
(662,259,qs),
(662,0,o),
(916,0,qs)
);
},
{
closed = 1;
nodes = (
(558,0,o),
(558,127,qs),
(558,840,l),
(297,991,l),
(309,1012,l),
(558,1012,l),
(558,1250,l),
(130,1250,l),
(49,1087,ls),
(22,1033,o),
(22,1012,qs),
(22,984,o),
(59,940,qs),
(170,806,l),
(170,174,ls),
(170,154,o),
(156,154,qs),
(128,154,o),
(128,259,qs),
(128,323,o),
(170,323,qs),
(184,323,l),
(184,467,l),
(170,467,ls),
(20,467,o),
(20,259,qs),
(20,0,o),
(274,0,qs)
);
},
{
closed = 1;
nodes = (
(842,500,l),
(842,700,l),
(518,700,l),
(518,500,l)
);
}
);
width = 1300;
},
{
layerId = "A52C9687-8F69-441E-A346-B6B4B01C4528";
shapes = (
{
closed = 1;
nodes = (
(1100,0,o),
(1100,162,qs),
(1100,840,l),
(883,1034,l),
(904,1062,l),
(1100,1062,l),
(1100,1200,l),
(852,1200,l),
(740,1053,ls),
(724,1033,o),
(724,1012,qs),
(724,984,o),
(755,955,qs),
(912,806,l),
(912,162,ls),
(912,138,o),
(896,138,qs),
(840,138,o),
(840,249,qs),
(840,310,o),
(902,310,qs),
(935,310,l),
(935,448,l),
(902,448,ls),
(722,448,o),
(722,249,qs),
(722,0,o),
(912,0,qs)
);
},
{
closed = 1;
nodes = (
(428,0,o),
(428,162,qs),
(428,840,l),
(211,1034,l),
(232,1062,l),
(428,1062,l),
(428,1200,l),
(180,1200,l),
(68,1053,ls),
(52,1033,o),
(52,1012,qs),
(52,984,o),
(83,955,qs),
(240,806,l),
(240,162,ls),
(240,138,o),
(224,138,qs),
(168,138,o),
(168,249,qs),
(168,310,o),
(230,310,qs),
(263,310,l),
(263,448,l),
(230,448,ls),
(50,448,o),
(50,249,qs),
(50,0,o),
(240,0,qs)
);
},
{
closed = 1;
nodes = (
(962,531,l),
(962,669,l),
(388,669,l),
(388,531,l)
);
}
);
width = 1300;
},
{
layerId = "74807A0F-D47B-485E-A88B-DED3F6679B72";
shapes = (
{
closed = 1;
nodes = (
(1050,0,o),
(1050,122,qs),
(1050,830,l),
(803,1050,l),
(855,1150,l),
(1050,1150,l),
(1050,1200,l),
(832,1200,l),
(774,1105,ls),
(754,1073,o),
(754,1052,qs),
(754,1024,o),
(784,997,qs),
(992,806,l),
(992,122,ls),
(992,50,o),
(912,50,qs),
(800,50,o),
(800,249,qs),
(800,350,o),
(912,350,qs),
(1012,350,l),
(1012,400,l),
(912,400,ls),
(750,400,o),
(750,249,qs),
(750,0,o),
(912,0,qs)
);
},
{
closed = 1;
nodes = (
(328,0,o),
(328,122,qs),
(328,830,l),
(142,1048,l),
(220,1150,l),
(428,1150,l),
(428,1200,l),
(200,1200,l),
(117,1102,ls),
(89,1069,o),
(89,1045,qs),
(89,1020,o),
(112,994,qs),
(270,806,l),
(270,122,ls),
(270,50,o),
(220,50,qs),
(118,50,o),
(118,249,qs),
(118,350,o),
(220,350,qs),
(290,350,l),
(290,400,l),
(220,400,ls),
(68,400,o),
(68,249,qs),
(68,0,o),
(220,0,qs)
);
},
{
closed = 1;
nodes = (
(1002,575,l),
(1002,625,l),
(318,625,l),
(318,575,l)
);
}
);
width = 1300;
}
);
note = uni17A2;
unicode = 6050;
},
{
glyphname = uni17A3;
lastChange = "2024-07-08 04:25:06 +0000";
layers = (
{
layerId = m01;
shapes = (
{
closed = 1;
nodes = (
(1200,0,o),
(1200,127,qs),
(1200,840,l),
(939,991,l),
(951,1012,l),
(1200,1012,l),
(1200,1250,l),
(772,1250,l),
(691,1087,ls),
(664,1033,o),
(664,1012,qs),
(664,984,o),
(701,940,qs),
(812,806,l),
(812,174,ls),
(812,154,o),
(798,154,qs),
(770,154,o),
(770,259,qs),
(770,303,o),
(812,303,qs),
(826,303,l),
(826,447,l),
(812,447,ls),
(662,447,o),
(662,259,qs),
(662,0,o),
(916,0,qs)
);
},
{
closed = 1;
nodes = (
(558,0,o),
(558,127,qs),
(558,840,l),
(297,991,l),
(309,1012,l),
(558,1012,l),
(558,1250,l),
(130,1250,l),
(49,1087,ls),
(22,1033,o),
(22,1012,qs),
(22,984,o),
(59,940,qs),
(170,806,l),
(170,174,ls),
(170,154,o),
(156,154,qs),
(128,154,o),
(128,259,qs),
(128,323,o),
(170,323,qs),
(184,323,l),
(184,467,l),
(170,467,ls),
(20,467,o),
(20,259,qs),
(20,0,o),
(274,0,qs)
);
},
{
closed = 1;
nodes = (
(842,500,l),
(842,700,l),
(518,700,l),
(518,500,l)
);
}
);
width = 1300;
},
{
layerId = "A52C9687-8F69-441E-A346-B6B4B01C4528";
shapes = (
{
closed = 1;
nodes = (
(1100,0,o),
(1100,162,qs),
(1100,840,l),
(883,1034,l),
(904,1062,l),
(1100,1062,l),
(1100,1200,l),
(852,1200,l),
(740,1053,ls),
(724,1033,o),
(724,1012,qs),
(724,984,o),
(755,955,qs),
(912,806,l),
(912,162,ls),
(912,138,o),
(896,138,qs),
(840,138,o),
(840,249,qs),
(840,310,o),
(902,310,qs),
(935,310,l),
(935,448,l),
(902,448,ls),
(722,448,o),
(722,249,qs),
(722,0,o),
(912,0,qs)
);
},
{
closed = 1;
nodes = (
(428,0,o),
(428,162,qs),
(428,840,l),
(211,1034,l),
(232,1062,l),
(428,1062,l),
(428,1200,l),
(180,1200,l),
(68,1053,ls),
(52,1033,o),
(52,1012,qs),
(52,984,o),
(83,955,qs),
(240,806,l),
(240,162,ls),
(240,138,o),
(224,138,qs),
(168,138,o),
(168,249,qs),
(168,310,o),
(230,310,qs),
(263,310,l),
(263,448,l),
(230,448,ls),
(50,448,o),
(50,249,qs),
(50,0,o),
(240,0,qs)
);
},
{
closed = 1;
nodes = (
(962,531,l),
(962,669,l),
(388,669,l),
(388,531,l)
);
}
);
width = 1300;
},
{
layerId = "74807A0F-D47B-485E-A88B-DED3F6679B72";
shapes = (
{
closed = 1;
nodes = (
(1050,0,o),
(1050,122,qs),
(1050,830,l),
(803,1050,l),
(855,1150,l),
(1050,1150,l),
(1050,1200,l),
(832,1200,l),
(774,1105,ls),
(754,1073,o),
(754,1052,qs),
(754,1024,o),
(784,997,qs),
(992,806,l),
(992,122,ls),
(992,50,o),
(912,50,qs),
(800,50,o),
(800,249,qs),
(800,350,o),
(912,350,qs),
(1012,350,l),
(1012,400,l),
(912,400,ls),
(750,400,o),
(750,249,qs),
(750,0,o),
(912,0,qs)
);
},
{
closed = 1;
nodes = (
(328,0,o),
(328,122,qs),
(328,830,l),
(142,1048,l),
(220,1150,l),
(428,1150,l),
(428,1200,l),
(200,1200,l),
(117,1102,ls),
(89,1069,o),
(89,1045,qs),
(89,1020,o),
(112,994,qs),
(270,806,l),
(270,122,ls),
(270,50,o),
(220,50,qs),
(118,50,o),
(118,249,qs),
(118,350,o),
(220,350,qs),
(290,350,l),
(290,400,l),
(220,400,ls),
(68,400,o),
(68,249,qs),
(68,0,o),
(220,0,qs)
);
},
{
closed = 1;
nodes = (
(1002,575,l),
(1002,625,l),
(318,625,l),
(318,575,l)
);
}
);
width = 1300;
}
);
note = uni17A3;
unicode = 6051;
},
{
glyphname = uni17A4;
lastChange = "2024-07-08 04:22:56 +0000";
layers = (
{
layerId = m01;
shapes = (
{
closed = 1;
nodes = (
(1200,0,o),
(1200,127,qs),
(1200,840,l),
(939,991,l),
(951,1012,l),
(1280,1012,ls),
(1412,1012,o),
(1412,887,qs),
(1412,0,l),
(1800,0,l),
(1800,937,ls),
(1800,1250,o),
(1380,1250,qs),
(772,1250,l),
(691,1087,ls),
(664,1033,o),
(664,1012,qs),
(664,984,o),
(701,940,qs),
(812,806,l),
(812,174,ls),
(812,154,o),
(798,154,qs),
(770,154,o),
(770,259,qs),
(770,303,o),
(812,303,qs),
(826,303,l),
(826,447,l),
(812,447,ls),
(662,447,o),
(662,259,qs),
(662,0,o),
(916,0,qs)
);
},
{
closed = 1;
nodes = (
(558,0,o),
(558,127,qs),
(558,840,l),
(297,991,l),
(309,1012,l),
(558,1012,l),
(558,1250,l),
(130,1250,l),
(49,1087,ls),
(22,1033,o),
(22,1012,qs),
(22,984,o),
(59,940,qs),
(170,806,l),
(170,174,ls),
(170,154,o),
(156,154,qs),
(128,154,o),
(128,259,qs),
(128,323,o),
(170,323,qs),
(184,323,l),
(184,467,l),
(170,467,ls),
(20,467,o),
(20,259,qs),
(20,0,o),
(274,0,qs)
);
},
{
closed = 1;
nodes = (
(842,500,l),
(842,700,l),
(518,700,l),
(518,500,l)
);
}
);
width = 1900;
},
{
layerId = "A52C9687-8F69-441E-A346-B6B4B01C4528";
shapes = (
{
closed = 1;
nodes = (
(1100,0,o),
(1100,162,qs),
(1100,840,l),
(883,1034,l),
(904,1062,l),
(1380,1062,ls),
(1512,1062,o),
(1512,937,qs),
(1512,0,l),
(1700,0,l),
(1700,937,ls),
(1700,1200,o),
(1380,1200,qs),
(852,1200,l),
(740,1053,ls),
(724,1033,o),
(724,1012,qs),
(724,984,o),
(755,955,qs),
(912,806,l),
(912,162,ls),
(912,138,o),
(896,138,qs),
(840,138,o),
(840,249,qs),
(840,310,o),
(902,310,qs),
(935,310,l),
(935,448,l),
(902,448,ls),
(722,448,o),
(722,249,qs),
(722,0,o),
(912,0,qs)
);
},
{
closed = 1;
nodes = (
(428,0,o),
(428,162,qs),
(428,840,l),
(211,1034,l),
(232,1062,l),
(428,1062,l),
(428,1200,l),
(180,1200,l),
(68,1053,ls),
(52,1033,o),
(52,1012,qs),
(52,984,o),
(83,955,qs),
(240,806,l),
(240,162,ls),
(240,138,o),
(224,138,qs),
(168,138,o),
(168,249,qs),
(168,310,o),
(230,310,qs),
(263,310,l),
(263,448,l),
(230,448,ls),
(50,448,o),
(50,249,qs),
(50,0,o),
(240,0,qs)
);
},
{
closed = 1;
nodes = (
(962,531,l),
(962,669,l),
(388,669,l),
(388,531,l)
);
}
);
width = 1900;
},
{
layerId = "74807A0F-D47B-485E-A88B-DED3F6679B72";
shapes = (
{
closed = 1;
nodes = (
(1050,0,o),
(1050,122,qs),
(1050,830,l),
(803,1050,l),
(855,1150,l),
(1380,1150,ls),
(1592,1150,o),
(1592,937,qs),
(1592,0,l),
(1650,0,l),
(1650,937,ls),
(1650,1200,o),
(1380,1200,qs),
(832,1200,l),
(774,1105,ls),
(754,1073,o),
(754,1052,qs),
(754,1024,o),
(784,997,qs),
(992,806,l),
(992,122,ls),
(992,50,o),
(912,50,qs),
(800,50,o),
(800,249,qs),
(800,350,o),
(912,350,qs),
(1012,350,l),
(1012,400,l),
(912,400,ls),
(750,400,o),
(750,249,qs),
(750,0,o),
(912,0,qs)
);
},
{
closed = 1;
nodes = (
(328,0,o),
(328,122,qs),
(328,830,l),
(142,1048,l),
(220,1150,l),
(428,1150,l),
(428,1200,l),
(200,1200,l),
(117,1102,ls),
(89,1069,o),
(89,1045,qs),
(89,1020,o),
(112,994,qs),
(270,806,l),
(270,122,ls),
(270,50,o),
(220,50,qs),
(118,50,o),
(118,249,qs),
(118,350,o),
(220,350,qs),
(290,350,l),
(290,400,l),
(220,400,ls),
(68,400,o),
(68,249,qs),
(68,0,o),
(220,0,qs)
);
},
{
closed = 1;
nodes = (
(1002,575,l),
(1002,625,l),
(318,625,l),
(318,575,l)
);
}
);
width = 1900;
}
);
note = uni17A4;
unicode = 6052;
},
